<svg width="276" height="263" viewBox="0 0 276 263" fill="none" xmlns="http://www.w3.org/2000/svg">
<path d="M58.98 196.28H58.87H58.83L58.72 196.18L57.24 193.46L55.77 191.17L54.32 189.33L52.89 187.92L51.72 187.29L50.12 187.03L48.19 187.15L45.56 187.63L44.49 187.85L42.62 187.93L39.86 187.63L34.69 186.83L29.25 185.6L24.13 183.67L19.56 181.19L15.27 178.09L11.49 174.62L8.23999 170.92L5.54001 166.98L3.37 162.8L1.88 158.87L0.830017 154.75L0.200012 150.44L0 145.94L0.309998 141.14L1.23001 136.51L2.67999 132.23L4.69 128.1L7.25 124.12L10.36 120.29L12.71 117.87L15.2 115.67L17.81 113.69L20.56 111.94L24.16 110.07L27.96 108.55L31.96 107.37L36.16 106.54L39.07 106.21L42.32 106.07L49.85 106.34L50.86 106.6L51.27 106.63L51.55 106.35L54.08 101.83L56.77 97.52L59.63 93.41L62.64 89.5L65.82 85.8L69.16 82.3L72.67 79L76.33 75.91L80.42 72.83L84.7 69.98L89.17 67.36L93.82 64.98L98.65 62.83L103.67 60.91L108.87 59.22L114.26 57.76L115.21 57.15L115.57 56.07L115.64 51.02L116 46.04L116.63 41.13L117.55 36.29L119.29 29.95L121.59 24.09L124.45 18.72L127.88 13.83L131.37 10L135.28 6.75L138.23 4.83002L141.38 3.19L144.73 1.83002L148.28 0.740021L151.61 0.0900269L154.58 0L157.14 0.470001L159.3 1.46002L160.55 2.42001L161.68 3.65002L163.04 5.96002L163.41 7.13L163.58 8.31003L163.49 9.87003L162.76 13.35L161.87 15.85L161.81 15.96L160.83 17.46L159.42 18.84L157.52 20.13L154.74 21.62L151.84 23.17L149.9 24.54L147.56 26.71L145.48 29.02L143.65 31.47L142.09 34.06L140.15 38.41L138.85 43.11L138.84 44.05L139.5 43.38L141.44 40.75L143.62 38.21L146.02 35.75L148.65 33.37L151.8 30.95L155.06 28.96L158.43 27.4L161.92 26.26L164.21 25.75L166.5 25.43L168.67 25.33L170.72 25.44L172.64 25.76L174.9 26.39L176.95 27.21L178.8 28.21L180.43 29.39L181.7 30.69L182.6 32.16L183.22 34.25L183.25 36.6L182.6 39.42L182.03 40.62L181.29 41.68L180.41 42.59L179.37 43.37L176.81 44.53L172.82 45.87L169.72 47.19L167.15 48.66L164.98 50.35L159.08 56.3L159.02 56.39L159.01 56.78L159.31 57.03L168.16 59.39L176.57 62.44L180.6 64.22L184.53 66.17L188.34 68.29L192.04 70.59L195.83 73.2L199.5 76L203.04 78.99L206.45 82.18L209.75 85.56L212.91 89.13L215.95 92.89L218.87 96.84L221.66 101.19L223.71 105.3L223.97 105.66L224.4 105.84L227.18 106.22L233.79 106L240.05 106.55L243.05 107.11L245.96 107.86L248.78 108.81L251.51 109.94L256.44 112.62L261.05 115.98L265.35 120.02L269.33 124.75L271.2 127.71L273.11 131.69L274.53 135.55L275.37 139.19L275.94 144.77L275.87 150.12L275.15 155.24L273.79 160.14L272.2 163.97L270.18 167.65L267.72 171.17L264.84 174.55L262.08 177.17L258.88 179.62L255.25 181.89L251.17 183.99L248.42 185.12L245.58 186L242.57 186.65L239.29 187.1L235.89 187.33L232.26 187.34L224.28 186.72L223.65 186.8L223.13 187.18L218.07 193.96L217.24 195.51L216.85 197.11L216.82 197.99L216.78 201.61L216.43 207.4L216.03 210.57L215.29 213.85L214.22 217.26L212.8 220.78L211.56 223.25L209.89 226.02L205.27 232.48L200.89 237.52L198.32 240L195.58 242.34L191.59 245.4L187.53 248.2L183.4 250.76L179.21 253.07L174.96 255.12L170.63 256.93L166.25 258.49L161.79 259.79L154.85 261.31L149.51 262.11L144.24 262.62L139.05 262.86L133.93 262.82L128.89 262.5L123.92 261.9L119.03 261.03L114.22 259.87L110.09 258.64L106.01 257.2L101.99 255.54L98.03 253.67L94.12 251.59L90.27 249.3L86.48 246.79L82.75 244.08L78.14 240.25L74.42 236.63L70.95 232.73L67.74 228.54L64.78 224.07L63.25 221.36L61.95 218.55L60.23 213.59L59.14 208.37L58.68 202.89L58.84 197.14L58.95 196.86L59.11 196.63L59.17 196.41L58.98 196.28ZM137.43 139.13L135.19 135.86L131.73 131.57L127.98 128L123.95 125.15L119.63 123.02L116.07 121.85L112.33 121.12L108.42 120.83L104.34 120.97L101.12 121.37L98.11 121.99L95.32 122.84L92.73 123.9L90.2 125.25L87.72 126.91L85.28 128.86L82.89 131.11L80.53 133.75L78.51 136.52L76.84 139.41L75.52 142.44L74.21 147.07L73.8 149.88L73.68 152.69L74.01 156.67L74.91 160.64L76.13 164.06L77.68 167.32L79.44 170.25L81.5 173.02L83.41 175.05L85.83 177.13L88.88 179.36L92.98 182.07L93.43 182.36L93.51 182.41L93.84 183.06L93.59 183.74L91.24 185.99L87.57 189.63L85.64 192.22L84.3 194.97L83.36 197.7L82.81 200.43L82.66 203.16L82.7 204.01L83.04 206.84L83.67 209.57L84.89 212.89L86.59 216.07L88.76 219.11L91.41 222.01L96.29 226.3L101.57 229.94L107.35 232.98L113.53 235.35L118.11 236.67L122.72 237.71L127.34 238.48L131.99 238.96L138.41 239.19L144.87 238.88L151.37 238.06L157.91 236.71L162.45 235.43L166.7 233.88L170.64 232.08L174.29 230.01L178.15 227.38L181.71 224.54L184.96 221.47L187.91 218.18L190.18 214.94L191.71 211.61L192.35 209.38L192.72 207.06L192.86 204.54L192.75 201.89L192.42 199.4L191.85 197.05L191.04 194.84L190 192.77L189.61 192.14L187.61 189.57L184.31 186.21L181.78 183.68L181.73 183.62L181.61 183.09L181.93 182.65L186.22 179.93L189.88 177.14L192.83 174.39L195.37 171.45L197.49 168.33L199.2 165.03L200.74 160.71L201.65 156.11L201.88 152.81L201.75 149.55L201.25 146.35L200.4 143.19L199.18 140.06L197.6 136.97L195.6 133.89L193.29 131.11L190.82 128.75L188.07 126.66L185.04 124.82L181.73 123.25L178.28 122.06L174.6 121.25L170.76 120.85L166.85 120.84L163.02 121.25L159.29 122.06L155.85 123.24L152.64 124.81L148.37 127.65L144.57 130.98L141.25 134.79L138.41 139.09L138 139.37L137.51 139.23L137.43 139.13ZM237.55 128.7L234.78 128.28L232.66 128.21L232.56 128.22L231.88 128.66L231.74 129.46L232.56 133.19L233.16 137L233.51 140.91L233.64 144.91L233.53 149.91L233.17 154.68L232.54 159.21L231.66 163.51L231.81 164.44L232.57 164.97L232.62 164.98L234.82 165.24L236.95 165.26L239.02 165.05L241.01 164.6L243.47 163.67L245.82 162.34L247.65 160.91L249.44 159.07L251.05 157L252.45 154.72L253.51 152.42L254.2 150.26L254.55 148.15L254.54 146.08L254.12 143.48L253.42 141.06L252.4 138.75L251.09 136.65L249.9 135.17L248.55 133.82L245.4 131.55L241.72 129.83L237.55 128.7ZM43.17 130.93L43.41 129.94L43.05 129.1L42.22 128.71L39.55 128.66L37.02 128.9L34.62 129.45L32.35 130.29L29.79 131.7L27.67 133.29L25.85 135.02L24.35 136.91L23.15 138.95L22.34 140.93L21.62 143.76L21.39 146.59L21.5 148.52L21.84 150.45L22.4 152.37L23.19 154.3L24.65 156.9L26.45 159.19L27.92 160.61L29.57 161.87L31.39 162.97L33.38 163.92L37.98 165.47L42.34 166.19H42.46L42.98 166.07L43.41 165.76L43.67 165.29L43.72 164.76L42.8 159.37L42.01 153.97L41.72 148.6L41.78 143.16L42.18 137.64L42.93 132.06L43.17 130.93Z" fill="black"/>
<path d="M104.6 169.14C113.74 169.14 121.15 161.73 121.15 152.59C121.15 143.45 113.74 136.04 104.6 136.04C95.4595 136.04 88.0498 143.45 88.0498 152.59C88.0498 161.73 95.4595 169.14 104.6 169.14Z" fill="black"/>
<path d="M170.76 169.12C179.906 169.12 187.32 161.706 187.32 152.56C187.32 143.414 179.906 136 170.76 136C161.614 136 154.2 143.414 154.2 152.56C154.2 161.706 161.614 169.12 170.76 169.12Z" fill="black"/>
<path d="M124.532 190.205C129.616 190.027 133.61 186.259 133.454 181.788C133.298 177.317 129.051 173.837 123.967 174.015C118.884 174.192 114.889 177.96 115.045 182.431C115.202 186.902 119.449 190.382 124.532 190.205Z" fill="black"/>
<path d="M151.944 190.082C156.843 189.28 160.223 185.011 159.492 180.547C158.761 176.083 154.196 173.115 149.297 173.917C144.397 174.72 141.017 178.989 141.748 183.452C142.479 187.916 147.044 190.884 151.944 190.082Z" fill="black"/>
<path d="M106.75 207.689L107.4 205.729L107.89 205.059L108.49 204.599L109.16 204.369L109.94 204.319L111.79 204.779L116.58 206.609L121.08 208.019L125.31 209.029L129.26 209.629L136.74 210.049L144.15 209.739L148.7 209.179L153.21 208.349L157.7 207.229L162.17 205.839L164.07 205.309L165.69 205.119L167.01 205.309L167.9 205.859L168.38 206.559L168.74 207.809L168.64 209.639L167.83 211.579L166.26 213.569L164.13 215.389L159.85 218.119L155.47 220.279L151.01 221.859L146.46 222.869L141.45 223.309L135.26 223.229L129.69 222.679L124.61 221.639L119.85 220.089L116.61 218.659L113.38 216.899L110.58 214.749L108.21 212.109L106.96 209.769L106.72 208.709L106.75 207.689Z" fill="black"/>
</svg>
