<svg width="277" height="264" viewBox="0 0 277 264" fill="none" xmlns="http://www.w3.org/2000/svg">
<path d="M139.1 43.67L139.11 43.79L139.29 43.92L139.49 43.82L141.34 41.25L143.35 38.82L146.63 35.43L150.26 32.34L154.99 29.13L157.19 28L159.27 27.19L162.25 26.32L164.99 25.73L167.46 25.43L169.69 25.4L171.92 25.63L174.04 26.08L176.03 26.75L177.91 27.63L180.44 29.32L181.99 30.87L183.02 32.63L183.39 33.83L183.56 35.11L183.31 37.92L182.58 40.09L181.41 41.89L179.51 43.5L177.02 44.61L170.46 47.05L168.09 48.29L165.67 50.05L163.14 52.35L159.74 55.88L159.23 56.42L159.07 56.78L159.4 57L170.64 60.19L177.45 62.68L184.78 66.14L191.83 70.3L198.57 75.17L205.03 80.75L211.13 86.9L216.35 93.1L220.63 99.28L222.43 102.38L224.05 105.57L224.46 106.04L225.07 106.2L233.12 106.11L237.59 106.25L241.11 106.65L246.29 107.91L251.32 109.84L256.19 112.43L260.73 115.6L264.8 119.24L268.39 123.35L271.38 127.82L273.66 132.46L275.03 136.57L275.89 140.94L276.24 145.54L276.07 150.4L275.62 153.96L274.88 157.38L273.86 160.67L272.55 163.83L270.25 168.03L267.38 171.97L263.96 175.64L259.98 179.06L257.27 180.96L254.3 182.69L251.06 184.23L247.57 185.59L245.08 186.34L242.4 186.89L239.54 187.24L236.49 187.4L230.08 187.34L225.18 186.86L224.12 186.84L223.35 187.17L223.08 187.45L218.78 193.37L217.93 194.72L217.34 196.05L217.02 197.37L216.96 198.68V198.71L217.05 203.25L216.73 207.66L216.01 211.94L214.89 216.09L212.7 221.55L211.27 224.27L209.61 227.01L205.56 232.55L200.79 237.85L195.62 242.55L191.12 246.01L186.47 249.16L181.67 251.99L176.73 254.5L171.31 256.82L165.73 258.78L159.99 260.39L154.07 261.64L148.12 262.51L142.2 262.99L136.31 263.08L130.46 262.78L124.96 262.13L118.47 260.93L112.18 259.31L106.09 257.25L100.2 254.77L94 251.57L88.03 247.87L82.31 243.65L76.82 238.92L72.77 234.83L69.18 230.51L66.05 225.96L63.38 221.18L62.52 219.37L61.37 216.56L59.98 211.95L59.13 207.13L58.83 202.11L59.06 196.9L59.05 196.46L58.88 195.99L56.28 191.7L53.59 188.33L52.68 187.61L51.67 187.22L50.55 187.09L47.27 187.5L46.36 187.66L44.1 187.96L42.39 187.98L36.28 187.24L30.84 186.1L26.08 184.56L21.98 182.62L17.52 179.78L13.56 176.61L10.1 173.09L7.13 169.25L4.70999 165.18L2.76001 160.79L1.29001 156.08L0.279999 151.05L0.0100098 148.29L0 145.47L0.25 142.59L0.769989 139.65L2.09 134.79L3.85999 130.27L6.07001 126.11L8.72 122.29L12.08 118.58L15.95 115.27L20.19 112.4L24.54 110.07L29.01 108.29L33.59 107.05L35.18 106.75L38.38 106.35L41.98 106.16L50.36 106.38L50.86 106.54L50.98 106.63L51.2 106.83L51.32 106.89L51.64 106.58L54.15 102.07L56.83 97.75L59.66 93.64L62.66 89.74L65.83 86.03L69.15 82.53L72.64 79.23L76.29 76.13L80.44 73L84.77 70.1L89.3 67.44L94.03 65.03L98.94 62.85L104.04 60.91L109.34 59.2L114.83 57.74L115.43 57.4L115.68 56.75L115.86 53.44L115.81 50.07L115.91 47.54L116.39 43.87L118.52 33.12L119.47 29.69L120.8 26.13L122.48 22.54L124.46 19.02L126.61 15.79L128.96 12.78L131.44 10.14L133.89 7.98999L136.43 6.16L139.05 4.54999L141.75 3.17001L144.54 2.01999L148.22 0.869995L152.04 0.100006L154.92 0L157.54 0.579987L159.5 1.57999L161.29 3.04001L162.47 4.47L163.25 5.97L163.7 7.70001L163.76 9.69L163.4 11.96L162.63 14.6L162.12 15.8L161.03 17.42L159.53 18.89L157.55 20.28L154.71 21.82L152.37 23.08L150.83 24.11L148.34 26.24L146.13 28.53L144.2 30.97L142.56 33.58L141.39 35.93L140.42 38.39L139.65 40.97L139.1 43.67ZM93.59 183.93L89.22 188.35L86.84 191.02L85.02 193.97L84.13 196.05L83.47 198.21L83.07 200.43L82.91 202.69L82.99 204.97L83.32 207.26L83.89 209.54L84.7 211.78L85.88 214.31L87.24 216.69L88.77 218.92L90.48 220.98L91.57 222.13L93.91 224.31L96.43 226.36L99.18 228.33L102.07 230.15L108.18 233.28L111.32 234.56L114.48 235.62L121.46 237.43L128.41 238.62L135.33 239.2L142.22 239.17L148.24 238.64L154.23 237.63L160.2 236.16L166.15 234.21L168.94 233.07L171.68 231.73L177 228.46L182.12 224.37L187.02 219.49L188.76 217.43L190.16 215.42L191.24 213.46L191.99 211.56L192.57 209.29L192.93 206.93L193.07 204.53L192.98 202.11L192.66 199.72L192.12 197.39L191.38 195.25L190.43 193.23L189.47 191.7L188.14 190.03L183.95 185.76L181.91 183.77L181.86 183.72L181.74 183.22L182.03 182.79L186.83 179.65L190.52 176.88L192.88 174.69L195.06 172.17L197.07 169.32L198.9 166.14L200.17 163.26L201.11 160.15L201.74 156.78L202.01 153.32L201.92 149.91L201.48 146.57L200.71 143.47L199.6 140.58L197.37 136.41L194.8 132.74L191.87 129.56L188.59 126.88L184.8 124.62L180.64 122.91L176.09 121.73L171.16 121.09L166.42 121.02L162 121.53L157.9 122.6L154.12 124.24L151.14 125.98L148.38 127.92L145.84 130.06L143.51 132.39L140.85 135.67L138.54 139.27L138.12 139.56L137.63 139.4L137.54 139.28L134.33 134.49L131.37 131.01L128.18 128.05L124.76 125.61L121.11 123.68L116.68 122.11L111.94 121.21L106.9 120.99L101.57 121.43L96.9 122.49L92.45 124.27L88.2 126.77L84.36 129.86L80.99 133.48L78.17 137.54L76.04 141.87L74.58 146.48L74.03 149.73L73.89 152.98L74.06 155.47L74.47 157.95L75.22 160.87L76.21 163.73L77.38 166.4L78.78 168.96L80.36 171.35L82.15 173.58L84.07 175.56L86.19 177.36L93.38 182.2L93.83 182.59L94.01 183L93.93 183.45L93.59 183.93ZM232.36 128.51L232 128.7L231.9 129.1L231.91 129.14L232.59 132.1L233.25 135.88L233.69 139.69L233.93 143.55L233.95 147.46L233.75 151.4L233.35 155.4L232.72 159.43L231.89 163.51L231.88 163.58L231.89 164.13L232.12 164.64L232.53 165.02L233.06 165.2L235.22 165.37L237.4 165.3L239.62 165L241.87 164.46L243.7 163.77L245.46 162.78L247.23 161.47L248.86 159.94L250.44 158.1L251.83 156.12L253.04 153.97L253.98 151.79L254.66 149.11L254.79 146.52L254.46 143.97L253.84 141.72L253.01 139.63L251.98 137.72L250.74 135.97L248.91 134.02L246.76 132.34L244.3 130.91L241.52 129.74L237.52 128.71L233.55 128.44L232.36 128.51ZM38.46 128.9L35.58 129.3L32.75 130.27L29.96 131.8L27.42 133.77L25.27 136.07L23.56 138.65L22.39 141.4L21.86 144.08L21.77 147.39L22.1 150.46L22.87 153.29L24.06 155.86L25.89 158.44L28.24 160.72L31.13 162.7L34.54 164.37L38.46 165.63L42.72 166.32L43.48 166.08L43.84 165.36V165.35L43.73 163.2L42.43 155.8L41.86 148.37L41.88 143.85L42.17 139.33L42.74 134.79L43.57 130.25L43.48 129.56L42.98 129.09L41.98 128.77L39.76 128.79L38.46 128.9Z" fill="white"/>
<path d="M104.8 169.23C113.952 169.23 121.37 161.811 121.37 152.66C121.37 143.508 113.952 136.09 104.8 136.09C95.6491 136.09 88.2305 143.508 88.2305 152.66C88.2305 161.811 95.6491 169.23 104.8 169.23Z" fill="white"/>
<path d="M170.97 169.22C180.132 169.22 187.56 161.792 187.56 152.63C187.56 143.468 180.132 136.04 170.97 136.04C161.807 136.04 154.38 143.468 154.38 152.63C154.38 161.792 161.807 169.22 170.97 169.22Z" fill="white"/>
<path d="M124.73 190.306C129.813 190.137 133.814 186.367 133.665 181.885C133.517 177.403 129.275 173.906 124.191 174.075C119.108 174.243 115.107 178.013 115.256 182.495C115.404 186.978 119.646 190.474 124.73 190.306Z" fill="white"/>
<path d="M152.212 190.183C157.117 189.344 160.474 185.046 159.711 180.582C158.948 176.118 154.354 173.179 149.449 174.017C144.544 174.855 141.186 179.154 141.949 183.618C142.712 188.082 147.307 191.021 152.212 190.183Z" fill="white"/>
<path d="M144.91 209.77L149.62 209.08L154.41 208.13L159.25 206.93L164.17 205.47L166.04 205.15L167.52 205.53L168.33 206.22L168.74 206.86L169.01 207.66L169.07 208.51L168.62 210.46L167.36 212.64L165.62 214.45L161.49 217.36L157.25 219.71L152.89 221.47L148.41 222.67L144.12 223.27L138.68 223.41L131.76 223.08L129.25 222.77L126.4 222.16L119.68 220.08L116.85 218.9L114.28 217.47L111.97 215.8L109.91 213.89L108.09 211.7L107.04 209.74L106.83 208.79L106.84 207.88L107.36 206.35L108.52 204.91L109.69 204.28L110.39 204.26L111.13 204.48L117.42 206.89L123.71 208.65L130.03 209.75L136.35 210.2L140.63 210.14L144.91 209.77Z" fill="white"/>
</svg>
