<svg width="1024" height="1024" viewBox="0 0 1024 1024" fill="none" xmlns="http://www.w3.org/2000/svg">
<g clip-path="url(#clip0_975_27603)">
<path d="M0 0H1024V1024H0V0Z" fill="black"/>
<path d="M199.483 384.605L199.555 249.396L199.516 216.09C199.474 202.043 198.466 190.363 204.081 177.246C213.781 154.584 234.722 138.838 259.654 138.199C271.237 137.903 283.204 138.029 294.985 138.11L661.241 138.432L761.788 138.283L790.268 138.337C796.541 138.359 804.303 138.159 810.355 139.042C823.064 140.935 834.825 146.873 843.896 155.974C864.38 176.641 861.124 196.925 861.2 223.624L861.228 288.279L861.135 505.594C872.326 510.126 882.87 520.402 887.308 531.619C895.507 552.341 890.469 572.219 884.024 592.257C904.018 591.26 913.914 606.597 913.599 624.919C912.969 661.605 896.032 694.417 870.799 720.354C874.297 733.546 878.596 746.496 882.475 759.582C883.256 762.215 884.228 765.529 884.376 768.347C882.913 787.673 851.541 799.614 836.871 802.999C815.153 808.011 793.365 806.11 774.672 794.394C756.76 783.031 745.094 764.525 740.573 743.987C738.387 734.017 737.328 723.833 737.414 713.627C739.322 711.461 741.263 709.184 743.251 707.103C746.945 713.803 750.129 719.677 755.653 725.159C778.382 747.85 816.44 747.229 843.052 732.124C873.746 714.721 895.193 680.66 903.143 646.844C906.499 632.571 909.962 604.615 890.696 600.492C876.182 597.386 870.623 610.944 869.238 622.485L864.864 615.486C880.937 585.048 899.724 533.601 859.49 513.19C841.325 503.975 826.778 505.795 808.421 512.527C816.253 489.339 824.33 464.002 812.523 440.653C806.963 429.659 793.844 416.822 782.002 413.149C766.515 407.232 749.349 407.473 734.034 413.823C710.706 423.49 696.176 448.792 717.864 469.637C720.489 472.16 726.015 475.383 727.339 478.547C727.748 485.914 718.742 502.904 715.329 510.03C713.434 501.031 710.429 497.091 703.437 491.546C708.219 466.7 690.468 477.465 676.645 473.28C672.687 472.089 669.124 469.851 666.332 466.803C656.835 456.45 662.492 448.553 657.973 437.393C655.881 432.226 647.728 432.089 643.674 434.645C638.337 438.008 639.264 449.097 638.368 454.9C635.273 474.951 625.346 470.962 609.089 473.837C606.533 474.3 602.994 474.9 600.932 476.575C596.585 480.103 596.633 487.167 600.098 491.238C604.377 496.266 611.894 495.554 617.795 496.405C624.142 497.319 628.54 497.773 632.673 503.129L633.057 503.637C584.715 500.22 539.426 528.198 513.825 568.057C512.491 541.394 508.813 526.264 485.806 511.089C532.27 509.38 578.857 478.177 583.5 428.849C585.284 409.903 580.08 390.122 567.528 375.509C546.048 350.501 504.073 344.933 478.68 367.344C469.48 375.311 463.964 386.714 463.429 398.873C462.795 411.516 466.481 420.471 474.846 429.626C453.925 449.11 405.303 425.848 382.723 416.78C345.598 401.87 311.254 388.753 271.104 384.521C232.728 379.913 194.684 388.258 164.02 412.491C140.743 430.886 123.114 459.479 119.615 489.17C116.621 514.38 123.995 539.725 140.046 559.393C165.046 590.564 209.129 599.956 245.896 585.918C238.446 603.377 225.301 630.905 216.315 647.183C209.062 640.743 202.489 637.547 193.424 633.926L193.614 633.341C198.138 618.919 185.441 611.836 172.783 614.064C165.51 615.344 159.476 617.38 153.023 621.011C138.107 629.241 127.082 643.072 122.387 659.448C117.959 675.48 120.124 694.382 128.585 708.823C153.955 752.125 218.272 751.423 257.1 728.551C278.803 715.766 292.483 696.147 302.157 673.451C304.908 667.161 309.815 656.153 313.233 650.491C310.472 671.671 316.926 697.92 330.04 714.861C333.219 718.974 336.848 722.719 340.858 726.027C340.164 728.514 339.451 730.94 338.916 733.467C335.46 732.673 330.538 732.757 327.384 734.53C321.856 737.637 324.035 747.108 322.026 751.426C315.807 764.787 304.756 776.905 293.135 785.827C281.962 793.851 275.136 783.576 267.554 798.956C234.778 807.604 192.236 809.858 167.972 781.524C163.66 776.489 160.097 770.607 156.486 765.042L140.431 740.038C134.739 731.202 126.785 720.698 121.881 711.713C118.962 706.462 116.727 700.859 115.231 695.039C110.389 676.686 113.016 657.162 122.538 640.742C130.85 626.688 144.935 615.35 160.345 609.938C161.319 602.793 162.389 594.854 162.708 587.688C147.574 579.822 133.174 565.238 124.978 550.391C92.1088 490.849 125.898 419.229 183.761 391.008C188.174 388.855 192.655 386.69 197.337 385.226C198.047 385 198.762 384.793 199.483 384.605Z" fill="black"/>
<path d="M199.483 384.605L199.555 249.396L199.516 216.09C199.474 202.043 198.466 190.363 204.081 177.246C213.781 154.584 234.722 138.838 259.654 138.199C271.237 137.903 283.204 138.029 294.985 138.11L661.241 138.432L761.788 138.283L790.268 138.337C796.541 138.359 804.303 138.159 810.355 139.042C823.064 140.935 834.825 146.873 843.896 155.974C864.38 176.641 861.124 196.925 861.2 223.624L861.228 288.279L861.135 505.594C872.326 510.126 882.87 520.402 887.308 531.619C895.507 552.341 890.469 572.219 884.024 592.257C904.018 591.26 913.914 606.597 913.599 624.919C912.969 661.605 896.032 694.417 870.799 720.354C874.297 733.546 878.596 746.496 882.475 759.582C883.256 762.215 884.228 765.529 884.376 768.347C882.913 787.673 851.541 799.614 836.871 802.999C815.153 808.011 793.365 806.11 774.672 794.394C756.76 783.031 745.094 764.525 740.573 743.987C738.387 734.017 737.328 723.833 737.414 713.627C739.322 711.461 741.263 709.184 743.251 707.103C746.945 713.803 750.129 719.677 755.653 725.159C778.382 747.85 816.44 747.229 843.052 732.124C873.746 714.721 895.193 680.66 903.143 646.844C906.499 632.571 909.962 604.615 890.696 600.492C876.182 597.386 870.623 610.944 869.238 622.485L864.864 615.486C880.937 585.048 899.724 533.601 859.49 513.19C841.325 503.975 826.778 505.795 808.421 512.527C816.253 489.339 824.33 464.002 812.523 440.653C806.963 429.659 793.844 416.822 782.002 413.149C782.637 410.363 783.066 409.039 784.8 406.809C810.748 416.851 819.419 432.181 825.963 457.758L825.576 286.689L825.553 239.193C825.539 218.763 827.821 200.526 811.846 184.766C800.769 173.838 789.966 169.955 774.527 169.893L430.804 169.837L325.309 169.82L293.426 169.826C274.081 169.84 261.113 169.566 246.278 184.392C239.21 191.481 234.444 200.536 232.602 210.375C231.114 217.985 231.501 227.38 231.534 235.238L231.635 265.212L231.696 377.233C247.206 375.987 254.422 376.066 269.995 377.045C270.875 379.779 270.882 381.678 271.104 384.521C232.728 379.913 194.684 388.258 164.02 412.491C140.743 430.886 123.114 459.479 119.615 489.17C116.621 514.38 123.995 539.725 140.046 559.393C165.046 590.564 209.129 599.956 245.896 585.918C238.446 603.377 225.301 630.905 216.315 647.183C209.062 640.743 202.489 637.547 193.424 633.926L193.614 633.341C198.138 618.919 185.441 611.836 172.783 614.064C165.51 615.344 159.476 617.38 153.023 621.011C138.107 629.241 127.082 643.072 122.387 659.448C117.959 675.48 120.124 694.382 128.585 708.823C153.955 752.125 218.272 751.423 257.1 728.551C278.803 715.766 292.483 696.147 302.157 673.451C304.908 667.161 309.815 656.153 313.233 650.491C310.472 671.671 316.926 697.92 330.04 714.861C333.219 718.974 336.848 722.719 340.858 726.027C340.164 728.514 339.451 730.94 338.916 733.467C335.46 732.673 330.538 732.757 327.384 734.53C321.856 737.637 324.035 747.108 322.026 751.426C315.807 764.787 304.756 776.905 293.135 785.827C281.962 793.851 275.136 783.576 267.554 798.956C234.778 807.604 192.236 809.858 167.972 781.524C163.66 776.489 160.097 770.607 156.486 765.042L140.431 740.038C134.739 731.202 126.785 720.698 121.881 711.713C118.962 706.462 116.727 700.859 115.231 695.039C110.389 676.686 113.016 657.162 122.538 640.742C130.85 626.688 144.935 615.35 160.345 609.938C161.319 602.793 162.389 594.854 162.708 587.688C147.574 579.822 133.174 565.238 124.978 550.391C92.1088 490.849 125.898 419.229 183.761 391.008C188.174 388.855 192.655 386.69 197.337 385.226C198.047 385 198.762 384.793 199.483 384.605Z" fill="#A7C957"/>
<path d="M269.992 377.045C269.467 373.361 269.298 366.9 269.518 363.136C270.172 351.959 268.288 338.687 270.377 327.764C273.939 309.136 295.229 312.295 308.615 312.294L348.064 312.301L475.772 312.281L664.832 312.299L728.549 312.106C739.999 312.068 751.535 311.915 762.954 312.191C774.737 312.477 784.545 323.576 784.846 335.084C785.395 356.118 784.949 377.218 785.015 398.264C785.022 400.585 785.156 404.683 784.797 406.809C783.063 409.039 782.634 410.363 781.999 413.149C766.512 407.232 749.346 407.473 734.031 413.823C710.703 423.49 696.173 448.792 717.861 469.637C720.486 472.16 726.012 475.383 727.336 478.547C727.745 485.914 718.739 502.904 715.326 510.03C713.431 501.031 710.426 497.091 703.434 491.546C708.216 466.7 690.465 477.465 676.642 473.28C672.684 472.089 669.121 469.851 666.329 466.803C656.832 456.45 662.489 448.553 657.97 437.393C655.878 432.226 647.725 432.089 643.671 434.645C638.334 438.008 639.261 449.097 638.365 454.9C635.27 474.951 625.343 470.962 609.086 473.837C606.53 474.3 602.991 474.9 600.929 476.575C596.582 480.103 596.63 487.167 600.095 491.238C604.374 496.266 611.891 495.554 617.792 496.405C624.139 497.319 628.537 497.773 632.67 503.129L633.054 503.637C584.712 500.22 539.423 528.198 513.822 568.057C512.488 541.394 508.81 526.264 485.803 511.089C532.267 509.38 578.854 478.177 583.497 428.849C585.281 409.903 580.077 390.122 567.525 375.509C546.045 350.501 504.07 344.933 478.677 367.344C469.477 375.311 463.961 386.714 463.426 398.873C462.792 411.516 466.478 420.471 474.843 429.626C453.922 449.11 405.3 425.848 382.72 416.78C345.595 401.87 311.251 388.753 271.101 384.521C270.879 381.678 270.872 379.779 269.992 377.045Z" fill="#C9182C"/>
<path d="M647.443 356.672C665.053 355.449 680.311 368.753 681.498 386.366C682.686 403.978 669.351 419.21 651.736 420.362C634.171 421.511 618.992 408.222 617.808 390.659C616.624 373.097 629.882 357.891 647.443 356.672Z" fill="black"/>
<path d="M647.051 370.836C656.743 369.396 665.789 376.022 667.338 385.697C668.888 395.371 662.364 404.492 652.707 406.15C646.363 407.24 639.923 404.836 635.844 399.855C631.766 394.875 630.679 388.087 632.998 382.083C635.317 376.078 640.684 371.782 647.051 370.836Z" fill="#FBF7EF"/>
<path d="M461.785 195.738C480.595 192.555 498.397 205.305 501.44 224.138C504.483 242.971 491.602 260.679 472.747 263.582C454.088 266.456 436.605 253.738 433.594 235.101C430.582 216.463 443.17 198.887 461.785 195.738Z" fill="#A7C957"/>
<path d="M383.829 195.272C402.807 193.802 419.359 208.053 420.723 227.039C422.088 246.026 407.744 262.497 388.751 263.756C369.906 265.005 353.592 250.798 352.238 231.961C350.885 213.124 365 196.731 383.829 195.272Z" fill="#A7C957"/>
<path d="M298.913 195.749C317.467 192.454 335.174 204.837 338.445 223.394C341.716 241.952 329.31 259.643 310.749 262.89C292.221 266.131 274.569 253.753 271.304 235.229C268.039 216.706 280.394 199.038 298.913 195.749Z" fill="#A7C957"/>
<path d="M588.351 228.09C593.354 227.531 607.16 227.946 612.893 227.952L662.827 227.983L737.104 227.977C749.651 227.962 762.267 227.807 774.802 227.953C782.943 228.048 784.187 236.411 777.654 241.4C773.981 242.566 742.956 241.959 736.879 241.943L644.28 241.786L610.846 241.86C604.518 241.9 598.033 242.141 591.73 241.728C583.251 241.172 581.851 232.986 588.351 228.09Z" fill="#A7C957"/>
<path d="M754.349 421.188C774.22 417.411 796.27 430.964 803.328 449.821C805.889 456.746 806.927 464.142 806.371 471.504C804.909 492.262 788.621 529.405 779.673 549.082C783.684 544.657 787.935 540.032 792.649 536.42C806.58 525.744 821.585 516.783 839.733 519.219C849.095 520.475 859.862 524.218 865.546 532.194C885.23 559.817 851.786 614.994 840.447 642.172C837.208 649.936 831.95 658.424 830.495 666.967C830.161 668.931 830.351 672.028 831.785 673.379C832.857 674.39 835.083 675.2 836.411 674.984C855.309 670.451 868.179 646.655 876.05 630.274C877.995 626.226 881.628 604.344 890.191 613.461C894.519 618.071 893.609 628.067 892.87 634.238C887.203 681.548 846.652 736.157 794.024 730.315C781.657 728.926 767.519 722.006 759.936 711.902C744.526 691.369 757.631 667.429 766.404 647.138L782.361 610.643C784.38 605.967 792.067 591.537 788.678 587.39C780.098 582.663 759.951 605.423 755.558 611.521C752.347 616.031 749.424 620.739 746.808 625.618C741.563 635.293 737.1 645.796 732.315 655.671C725.45 669.836 712.638 686.181 740.168 680.738C733.177 705.377 708.801 729.059 682.554 731.014C664.784 732.337 649.089 721.72 648.311 702.915C629.664 717.42 610.929 726.689 587.503 730.664C542.55 738.291 505.626 710.412 498.643 665.529C487.029 684.537 477.243 697.106 459.024 711.205C423.71 738.532 367.216 743.646 338.306 704.374C323.123 683.748 322.662 657.517 326.648 632.916C331.563 601.76 352.699 564.895 378.01 546.437C402.012 528.933 432.865 513.488 463.304 517.803C493.774 522.123 503.515 548.283 498.921 575.925C495.193 597.216 483.133 616.142 465.411 628.515C443.942 643.678 420.281 647.072 394.842 642.646C392.55 661.449 394.97 681.424 419.021 682.608C452.975 684.28 482.878 655.511 498.802 628.159C502.72 620.807 504.937 612.595 508.199 604.898C530.904 551.328 577.329 512.489 638.742 517.158C640.486 525.238 636.239 544.382 653.848 539.278C656.389 538.542 658.163 535.043 659.047 532.723C665.645 543.091 671.137 554.412 672.34 566.755C675.137 595.467 657.468 627.98 626.273 630.092C619.141 630.575 610.485 629.049 605.237 623.977C592.221 611.486 599.948 585.878 614.769 577.925C623.093 573.459 637.296 568.07 637.68 556.271C637.829 551.713 633.062 546.228 628.008 547.314C618.216 549.417 609.507 559.424 603.195 566.665C584.522 590.998 567.438 624.838 569.52 656.139C571.001 678.401 591.888 686.734 611.467 683.723C630.984 681.059 650.009 665.149 661.004 648.592C682.18 616.704 697.173 577.288 713.688 542.641C721.389 526.486 728.021 510.379 735.018 493.977C736.819 489.754 738.871 483.063 738.871 478.34C736.823 460.767 706.916 458.341 723.123 435.723C729.655 426.608 743.465 422.488 754.349 421.188Z" fill="#FBF7EF"/>
<path d="M451.813 545.54C465.434 544.854 455.202 570.765 452.169 576.453C443.002 593.822 427.313 606.839 408.55 612.643L401.789 614.272C403.246 610.55 404.757 606.85 406.322 603.172C414.591 584.104 432.095 553.331 451.813 545.54Z" fill="black"/>
<path d="M514 366.706C519.951 366.15 526.899 367.017 532.616 368.697C546.164 372.555 557.599 381.685 564.361 394.043C582.315 427.449 562.004 470.014 529.814 485.879C494.338 503.364 448.634 499.535 410.994 491.177C400.117 488.762 389.538 484.731 378.964 481.502C358.635 524.035 338.618 566.716 318.915 609.542C311.601 625.556 304.126 641.496 296.49 657.36C284.557 682.609 277.007 701.467 252.074 717.25C219.659 737.77 161.483 739.439 139.485 703.077C132.463 691.372 130.379 677.357 133.69 664.115C136.992 651.398 144.433 639.624 156.16 633.255C160.939 630.659 178.974 621.211 182.632 627.98C182.681 631.91 177.375 639.689 175.227 643.182C162.37 664.081 185.187 679.045 204.495 671.313C216.17 666.638 222.167 656.891 227.227 645.792C230.835 637.879 234.796 629.579 238.514 621.62L272.976 547.971C281.786 528.498 290.844 509.138 300.149 489.897C305.613 478.383 310.909 466.637 316.867 455.384C272.261 441.557 222.36 446.167 205.402 496.114C212.603 491.815 217.512 489.14 225.908 487.727C248.729 483.887 268.04 500.926 270.976 523.155C272.612 535.546 268.165 548.534 260.442 558.341C250.655 570.771 236.887 578.012 221.161 579.714C199.006 582.109 176.816 575.519 159.559 561.421C143.503 548.465 133.349 529.583 131.395 509.044C128.901 482.978 138.635 457.499 155.265 437.645C165.685 425.171 178.593 415.006 193.164 407.801C250.096 379.382 314.4 404.269 369.854 425.573C399.011 436.774 457.439 468.178 485.289 437.689C489.8 432.75 491.457 424.961 485.255 420.329C472.918 411.113 474.32 391.558 483.73 380.701C491.914 371.132 502.04 367.761 514 366.706Z" fill="#FBF7EF"/>
<path d="M270.485 810.628C271.616 810.993 274.948 813.622 276.983 813.892C282.383 814.607 287.898 814.029 293.128 815.77C307.63 820.6 319.625 833.194 322.154 848.483C323.045 854.461 322.367 859.811 325.243 865.345C328.456 871.526 336.69 872.177 342.303 868.974C349.982 864.593 347.326 853.414 349.54 845.612C352.621 834.449 359.957 824.938 369.972 819.123C379.09 813.929 395.04 812.893 404.827 815.636C406.981 834.479 414.099 849.261 426.116 863.585C412.973 877.325 397.223 883.238 378.626 884.984C354.68 885.581 341.817 879.97 322.421 867.076C302.133 882.522 281.773 890.093 256.015 883.881C243.819 880.94 227.574 871.857 220.223 861.42C208.794 845.196 197.935 827.354 187.602 810.339C214.421 821.445 243.106 817.031 270.485 810.628Z" fill="#A7C957"/>
<path d="M481.56 708.389C482.588 709.294 489.505 730.642 491.108 734.449C496.259 746.68 502.994 757.813 510.027 769.037C489.609 796.855 439.499 814.189 406.622 803.477C401.482 801.802 402.964 801.481 400.838 796.894C396.648 787.853 390.236 791.662 382.661 789.418C372.741 786.287 364.133 779.967 358.174 771.44C350.49 760.657 347.348 744.795 349.497 731.838C362.854 739.515 374.027 743.477 389.674 744.499C415.556 746.085 441.212 738.862 462.464 724.006C469.38 719.196 475.237 713.921 481.56 708.389Z" fill="#A7C957"/>
<path d="M755.608 795.304C757.106 795.775 765.769 803.679 768.234 805.165C796.618 822.273 825.835 820.543 855.853 809.976C858.096 817.559 859.828 825.725 862.067 833.207C867.633 851.805 860.133 861.733 845.477 872.586C838.637 877.504 830.947 881.117 822.795 883.243C807.872 887.118 785.517 886.7 772.139 878.392C754.47 867.419 752.458 853.327 748.227 835.11C746.042 825.38 743.737 815.678 741.312 806.006C746.85 802.398 750.769 799.763 755.608 795.304Z" fill="#A7C957"/>
<path d="M493.368 694.319C494.862 695.844 497.244 700.177 498.405 702.133C530.736 756.592 594.012 752.391 641.589 722.819C641.172 727.852 640.814 732.889 640.514 737.931C639.874 749.87 640.067 756.956 631.606 766.802C625.029 774.455 614.515 777.893 604.629 778.485C595.308 778.42 586.169 781.453 588.965 793.455C591.685 805.128 608.796 800.059 617.62 805.107C614.276 806.441 598.887 805.71 594.327 806.091C577.903 807.464 560.725 803.044 548.039 792.194C520.544 768.678 499.327 734.921 491.35 699.536C490.829 697.225 492.048 695.964 493.368 694.319Z" fill="#A7C957"/>
<path d="M478.89 806.968C481.127 807.659 487.713 820.368 500.444 824.041C509.219 826.572 517.96 825.082 525.856 820.759C525.726 839.429 527.463 853.422 537.238 869.797L536.603 870.283C519.745 882.95 499.544 887.634 478.777 884.861C442.846 879.212 422.379 851.384 415.07 817.514C437.772 820.932 458.424 816.703 478.89 806.968Z" fill="#A7C957"/>
<path d="M539.553 800.941C545.051 804.731 550.398 808.499 556.404 811.457C574.632 820.435 596.215 819.064 615.784 816.24C620.591 825.326 629.798 842.39 637.715 848.193C636.057 854.998 634.436 862.277 634.232 869.256C631.61 871.639 629.569 873.132 626.696 875.227L625.848 875.725C610.135 884.887 591.421 887.415 573.84 882.751C536.312 872.698 530.635 833.757 539.553 800.941Z" fill="#A7C957"/>
<path d="M730.592 812.044C731.707 813.105 738.974 847.632 739.861 851.606C734.589 861.097 723.248 870.226 713.405 874.436C694.843 882.374 675.39 881.952 656.79 875.013C651.771 872.967 649.387 871.676 645.094 868.402C645.459 863.113 646.759 857.535 647.941 852.354C665.555 853.742 662.253 841.284 663.398 829.195C663.841 824.527 665.863 819.997 668.616 816.206C689.245 821.798 710.725 819.083 730.592 812.044Z" fill="#A7C957"/>
<path d="M333.56 739.911C342.152 739.426 340.699 745.872 340.707 752.247C340.633 761.242 343.262 770.053 348.252 777.539C358.835 793.104 374.589 797.703 391.537 797.643C396.315 797.626 397.038 806.444 391.619 807.414C388.715 807.934 385.715 807.391 382.762 807.434C360.498 807.162 342.293 824.843 340.859 846.905C340.588 851.066 341.236 859.504 339.453 862.948C338.088 864.139 337.041 864.147 335.252 864.492C334.251 863.897 330.835 861.858 330.785 860.921C329.96 845.669 330.601 832.752 319.108 820.268C312.133 812.658 302.448 808.094 292.139 807.56C285.709 807.224 273.149 810.233 274.573 800.547C274.798 799.015 277.535 796.698 278.87 796.841C289.862 798.018 302.111 794.504 311.17 788.159C321.904 780.734 328.817 768.951 330.062 755.958C330.41 751.923 329.99 747.556 330.52 743.56C330.776 741.633 332.034 740.932 333.56 739.911Z" fill="#FBF7EF"/>
<path d="M725.799 723.901C726.598 727.096 727.317 735.945 728.044 739.996C731.048 756.755 736.326 773.374 748.215 785.959C726.086 805.117 707.204 806.849 679.415 806.474C692.262 800.553 697.526 804.139 707.133 801.098C713.501 797.001 715.307 788.836 710.3 782.702C706.329 777.837 699.057 779.121 693.535 778.679C682.257 777.777 670.547 771.045 665.8 760.438C662.506 753.254 663.185 747.137 663.556 739.691C684.512 750.938 709.704 737.905 725.799 723.901Z" fill="#A7C957"/>
<path d="M649.954 736.412C655.208 736.298 657.145 739.323 656.462 744.348C653.476 766.317 670.777 784.005 692.01 785.729C695.873 786.043 700.626 784.923 704.292 786.253C707.513 787.731 707.748 791.554 705.101 793.77C700.818 797.357 698.001 794.645 693.869 794.711C688.668 794.795 681.532 797.055 676.874 799.262C665.045 804.784 657.263 816.421 656.678 829.463C656.372 835.407 658.066 842.276 653.705 846.648C644.088 846.877 647.484 838.098 646.829 831.099C646.489 827.681 645.692 824.325 644.457 821.121C638.607 806.048 624.616 795.679 608.493 794.465C606.226 794.312 590.99 797.26 596.676 786.358C597.971 783.874 604.694 785.407 607.913 785.242C618.831 784.681 629.456 780.221 636.808 771.946C643.708 763.435 649.488 752.679 646.279 741.951C645.729 740.112 648.44 737.734 649.954 736.412Z" fill="#FBF7EF"/>
<path d="M647.878 439.422C648.722 439.467 649.665 439.578 650.517 439.657C655.153 442.474 652.154 451.906 653.536 457.245C657.538 472.707 670.625 482.232 686.605 480.956C689.304 480.741 697.878 480.046 698.605 483.751C699.563 489.732 690.196 487.785 686.911 488.002C677.613 487.622 669.247 490.163 662.714 496.91C652.864 507.083 652.852 517.661 652.922 530.88C652.363 531.989 651.796 533.104 650.584 533.653C649.541 534.126 648.688 534.024 647.746 533.424C645.471 531.976 645.569 519.415 645.012 516.265C638.744 480.767 613.741 493.221 606.217 486.304C605.302 485.463 605.333 484.927 605.32 483.802C609.388 478.017 629.041 481.308 635.932 474.434C644.628 465.761 645.558 457.08 645.625 445.351C645.643 442.223 645.708 441.411 647.878 439.422Z" fill="#FBF7EF"/>
</g>
<defs>
<clipPath id="clip0_975_27603">
<rect width="1024" height="1024" rx="100" fill="white"/>
</clipPath>
</defs>
</svg>
