<svg width="500" height="500" viewBox="0 0 500 500" fill="none" xmlns="http://www.w3.org/2000/svg">
<rect width="500" height="500" fill="white"/>
<rect width="500" height="376" transform="translate(0 62)" fill="white"/>
<path d="M198.816 62.2658L200.978 63.462L202.895 64.9239L203.881 65.8764L204.047 66.0426L204.734 66.9839L205.222 68.0915L205.3 70.6499L204.978 73.1308L203.97 76.1987L202.274 79.1116L202.186 79.1448L201.62 79.7096L201.299 80.784L201.044 83.3756L201.144 85.4467L201.365 85.8897L201.798 86.1334L204.734 86.7315L212.503 91.0509L216.725 96.1234L218.465 98.7372L219.973 101.406L220.438 101.883L221.081 102.038L226.733 101.838L231.808 101.982L236.02 102.58L239.976 103.81L243.755 105.704L247.268 108.251L248.033 108.461L248.676 108.007L248.742 107.852L252.688 96.068L252.953 95.3925L256.411 90.486L259.825 85.5796L263.249 81.814L266.895 78.4027L270.752 75.3459L274.83 72.6546L280.105 69.8303L285.713 67.5267L291.631 65.7657L297.87 64.5363L298.856 64.2594L299.809 64.2705L300.042 64.3148L305.439 64.3702L310.825 64.7135L316.278 65.7214L321.497 67.1612L326.473 69.044L331.194 71.3698L335.461 73.9725L339.506 76.974L343.33 80.3742L346.942 84.162L349.724 87.8168L352.395 91.5493L352.672 91.7486L353.093 92.3024L353.348 93.0223L358.091 103.921L359.055 106.811L360.308 117.433L361.061 128.12L361.327 138.886L361.083 149.717L361.139 150.437L361.394 150.814L362.203 150.714L434.603 150.936L438.781 152.221L442.317 153.948L445.22 156.108L447.481 158.711L448.822 161.092L449.764 163.761L450.307 166.707L450.44 169.93L450.141 192.635L450.429 240.669L450.351 277.085L450.252 307.864L450.518 333.824L450.639 344.523L450.163 359.974L450.329 375.357L450.019 380.064L449.808 382.08L449.265 383.42L447.825 385.347L445.741 386.123L444.156 386.112L344.427 386.399L344.327 386.344L343.363 386.399L342.687 386.289L342.122 387.009L341.878 388.227L342.022 389.312L342.122 389.567L341.324 394.784L340.958 395.902V397.242L341.135 397.564L341.423 397.497L341.59 397.619L342.498 397.907L354.356 398.139L356.54 398.084L370.57 397.752L425.616 398.139L443.735 397.995L453.454 398.261L457.466 398.239L463.229 397.641L463.517 397.907L464.016 397.619L464.127 397.353L464.47 392.159L464.448 387.009L464.393 358.212L464.426 313.9L464.193 197.065L463.96 165.755L463.805 163.506L463.373 161.181L462.664 158.799L461.688 156.352L461.356 155.189L461.112 154.69L458.308 150.537L454.984 146.938L451.083 143.847H450.894L450.296 143.382L446.916 141.123L443.303 139.506L439.568 138.542L435.612 138.21L419.254 138.288L379.148 137.867L377.197 134.101L378.217 131.332L378.704 130.413L379.369 129.715L379.491 129.627L380.577 129.04L381.586 128.851L402.986 128.94L422.601 128.63L433.14 128.696L437.174 129.017L440.399 129.538L445.785 131.033L450.739 133.038L455.261 135.552L459.339 138.587L462.331 141.422L465.035 144.601L467.462 148.111L469.59 151.966L470.732 154.779L471.685 158.268L473.103 164.869L473.314 397.087L473.602 397.796L474.3 398.084H498.216L498.836 398.25L499.224 398.693L499.723 399.878L500 401.097L499.878 403.577L499.169 407.088L498.282 410.422L497.207 413.567L495.933 416.525L494.481 419.294L492.841 421.874L491.012 424.266L488.995 426.481L486.07 429.106L482.811 431.399L479.221 433.381L475.32 435.032L472.183 435.984L468.548 436.737L464.437 437.28L459.838 437.601L450.24 437.9L440.621 437.922H62.3491L36.9041 437.335L32.5931 437.058L28.8362 436.494L25.6224 435.63L22.9515 434.489L14.9058 430.159L11.4703 426.913L11.0935 426.072L10.5504 425.429L9.5087 424.864L7.99043 423.347L4.98714 418.075L3.32479 414.908L2.09464 411.707L1.28562 408.495L0.919922 405.261L0.97532 401.905L1.49619 398.527L9.67493 397.674L19.2279 398.162L26.9301 398.139L27.5285 397.907L27.6172 397.087L27.5839 163.218L29.0357 158.976L30.3434 154.679L32.0944 150.792L34.1557 147.214L36.5162 143.936L39.1871 140.979L42.5561 138L46.3241 135.419L50.4799 133.237L55.0237 131.432L61.3517 129.316L72.8219 128.541L89.2458 128.851L105.592 128.685L107.454 128.962L108.994 129.804L110.335 131.233L110.801 133.282L110.557 135.065L110.069 136.017L109.327 136.881L107.066 138.332L105.459 138.232L90.6644 137.8L75.8141 138.21L66.6934 138.133L62.5375 138.542L58.6365 139.384L54.9904 140.669L51.6214 142.386L48.2967 144.7L45.2823 147.513L42.5672 150.825L40.1402 154.635L39.7301 156.097L39.2203 156.961L38.2229 159.098L37.4915 161.38L37.015 163.794L36.8044 166.364L36.7379 172.644L36.9485 177.716L37.1036 188.991L36.6825 203.112L37.0593 217.123L36.6603 279.056L37.0482 340.99V357.116L36.5827 390.608L36.6825 393.266L37.026 395.814L36.7933 396.932L37.015 397.608L37.4029 397.829L38.0013 397.851L156.094 398.018H156.194L156.748 397.863L157.18 397.497L157.446 396.988L157.479 396.423L156.959 392.812L157.236 389.888L156.815 387.153L156.803 387.097L156.305 386.366L155.451 386.078L56.5641 385.968L54.1149 385.646L53.0843 385.225L52.2531 384.627L51.3222 383.442L50.7238 381.958L50.3913 380.031L50.3026 377.55L50.6018 275.811L50.5797 174.05L50.6794 169.742L50.9897 166.142L51.5106 163.252L52.2531 161.059L54.1593 157.891L56.143 155.742L58.5479 153.915L61.3628 152.42L64.6099 151.235L121.163 151.002L122.193 150.903L122.637 150.382L122.847 149.496L122.615 146.616L123.058 142.075L124.665 137.28L125.274 135.973L126.227 134.71L127.967 133.027L129.84 131.521L133.409 129.394L137.387 127.832L137.853 127.567L138.119 127.135L138.285 126.603L138.429 125.052L138.141 123.402L138.573 120.356L141.831 112.648L141.942 112.205L142.43 111.784L144.668 109.292L147.073 107.155L149.622 105.371L152.337 103.932L155.119 102.879L158.045 102.16L161.114 101.772L164.339 101.705L171.266 102.016L172.662 101.761L173.36 101.207L174.07 100.144L175.488 97.7515L177.062 95.5475L178.802 93.5207L180.697 91.6711L181.805 90.7408L183.855 89.2899L186.039 88.1048L188.665 87.0969L191.458 86.4324L192.477 85.9119L192.81 84.8376V80.5735L192.732 80.0198L192.455 79.4881L188.421 73.9393L188.244 71.6135L188.355 69.5091L188.743 67.5931L189.419 65.8986L191.026 64.8353L192.023 63.5727L194.384 62.4098L196.755 62L198.816 62.2658ZM302.558 73.9947L299.965 73.7843L298.912 73.9836L298.014 74.3824L301.272 79.2445L303.001 81.2602L304.808 82.999L307.766 85.5907L310.858 87.8833L314.094 89.888L317.452 91.5825L320.921 92.9669L324.523 94.0523L328.258 94.8497L332.125 95.3481L336.314 95.7579L339.938 95.3925L341.645 95.4589L343.097 95.182L343.274 95.0934L343.573 94.5618L343.33 93.9859L342.809 93.7311H342.598L342.199 92.7786L341.512 91.8151L339.706 89.3896L337.689 87.1856L335.129 84.9372L332.303 82.9658L331.56 82.6335L331.25 82.2127L331.239 82.1352L329.543 80.7507L327.46 79.9754V79.8204L327.016 79.3109L321.387 76.6749L315.557 74.8807L311.878 74.2051L308.132 73.8396L305.206 73.6514L302.558 73.9947ZM328.18 111.917L334.73 112.382L341.113 111.995L344.892 111.928L347.729 111.319L348.904 110.953L349.591 111.131L349.868 110.654L349.946 110.012L349.879 108.927L349.569 107.83L348.228 105.604L347.596 104.995V104.452L346.843 104.231L345.247 104.574L344.416 104.563L339.972 104.862L337.578 105.072L335.583 104.995L331.183 104.33L324.678 103.123L318.561 101.329L312.809 98.9366L307.434 95.9573L303.489 93.1995L299.776 90.0873L296.296 86.5986L293.038 82.7554L291.154 79.8647L289.725 78.004L288.904 77.2177L288.273 77.0072L287.985 76.974L286.5 76.9851L285.425 77.3506L283.541 78.436L281.756 79.1669L281.269 79.4438L280.947 79.8979L280.825 80.4406L280.936 80.9944L280.992 81.1051L284.339 86.4767L288.162 91.4496L292.839 96.356L298.069 100.797L301.97 103.533L305.993 105.892L310.138 107.863L314.416 109.447L317.752 110.4L321.154 111.131L324.634 111.629L328.18 111.917ZM261.598 99.579L259.503 103.677L258.339 107.055L257.586 110.61L257.785 111.33L258.461 111.651H258.561L261.055 111.175L265.842 109.359L270.419 107.143L276.005 103.677L281.213 99.5347L281.513 98.9809L281.402 98.3607L274.209 85.9119L274.11 85.7679L273.677 85.3913L273.112 85.2252L272.536 85.3138L272.037 85.6239L266.795 91.3721L264.235 94.7058L261.886 98.2167L261.697 98.6043L261.598 99.579ZM202.285 95.5032L202.529 95.8133L201.798 95.7026L201.775 95.625L201.343 95.1045L200.512 94.739L198.129 94.2627L195.769 94.1631L194.073 94.3292L192.788 94.6061L190.704 95.3814L188.72 96.5665L186.238 98.5157L184.254 100.432L183.711 101.196L183.656 101.739L184.099 102.06L185.03 102.171H209.156L209.677 101.982V101.451L209.167 100.531L208.469 99.9001L207.993 99.5236L207.782 99.2799L206.563 97.9509L204.612 96.5221L202.285 95.5032ZM280.46 111.596L279.584 111.729L273.877 115.195L267.892 118.008L262.318 119.947L256.522 121.353L255.757 121.874L255.602 122.771L255.613 122.815L255.912 124.554L255.824 126.226L255.669 126.924L255.658 126.946L255.779 127.677L256.389 128.109L260.711 129.095L263.282 130.468L265.51 132.063L267.394 133.88L268.923 135.917L270.142 138.254L270.995 140.824L271.472 143.626L271.572 146.672L271.472 155.078L271.594 162.842L271.771 164.625L272.181 166.131L273.012 167.804L274.353 169.642L279.019 174.737L281.468 176.952L283.884 178.835L286.344 180.474L288.927 181.903L291.542 183.066L294.279 184.018L295 184.217L296.729 185.059L298.036 185.236L299.433 185.092L303.444 185.491L307.622 185.214L310.581 184.815L313.407 184.029L317.009 182.346L320.356 179.942L324.468 176.332L328.136 171.968L330.374 168.734L332.214 165.146L333.655 161.225L334.697 156.961L336.015 148.455L336.547 140.879L337.057 134.001L337.39 122.527L337.257 122.062L336.824 121.83L336.281 121.73L333.012 121.431L329.654 121.652H327.56L325.687 121.165L319.414 120.024L313.385 118.418L307.611 116.325L302.081 113.756L295.432 109.824L289.17 105.117L288.206 104.773L287.264 105.172L280.46 111.596ZM147.251 165.157L146.852 175.844L146.918 184.572L147.35 187.817L148.459 190.708L149.655 192.546L151.185 194.196L152.049 194.828L152.293 195.193L153.59 196.256L155.751 197.552L158.178 198.494L160.86 199.081L163.808 199.302L194.328 199.59L227.819 199.524L232.595 199.202L234.424 198.837L235.876 198.316L239.156 196.312L242.558 193.277L244.398 191.129L245.717 188.969L246.537 186.787L246.836 184.605V184.328L246.714 132.285L246.481 125.983L246.027 122.616L245.085 119.891L243.445 117.189L241.395 114.963L238.48 112.969L235.011 111.618L229.459 111.275L200.18 111.308L166.567 110.998L161.68 111.097L158.532 111.563L156.338 112.316L154.376 113.29L152.659 114.475L151.174 115.882L150.01 117.377L149.046 119.072L148.381 120.955L147.893 123.424L147.45 130.158L147.251 165.157ZM351.475 120.212L349.148 120.888L347.807 120.667L346.887 120.977H346.876L346.51 121.63L346.377 122.771L346.034 139.273L346.211 141.223L345.934 143.36L344.682 152.387L343.451 158.788L342.731 162.366L342.51 165.245L342.731 213.324L342.842 214.11L343.186 214.653L343.828 214.952H344.737L346.266 215.284L347.884 215.328L349.802 216.126L351.431 216.059L351.475 216.048L351.863 215.771L352.007 215.284L352.328 138.62L352.118 128.641L351.475 120.212ZM136.922 137.878L136.767 137.911L136.202 138.365L136.057 138.033L135.537 138.177L133.63 139.905L132.555 141.898L132.312 143.881L132.079 154.048L132.223 157.825L132.555 160.738L133.01 162.155L133.896 163.606L135.226 165.09L136.977 166.619L137.132 167.305L137.498 167.438L138.052 167.361L138.396 167.128L138.529 166.729V138.343L138.496 138.199L138.097 137.601L137.664 137.379L136.922 137.878ZM261.321 163.728L261.575 163.274L262.218 161.812L262.296 161.214L262.418 154.635L262.263 147.237L262.008 144.811L261.454 142.74L260.611 141.012L259.459 139.639L258.373 138.819L257.198 138.221L256.91 138.11H256.4L256.223 138.598V165.788L256.511 166.43L257.187 166.619L257.309 166.596L258.705 166.076L259.836 165.422L260.711 164.636L261.321 163.728ZM130.128 376.576L130.284 376.387L130.272 376.354L130.084 376.088L115.71 362.798L110.923 358.068L107.476 353.804L105.027 349.596L104.174 347.514L103.553 345.365L103.099 341.887L102.921 336.715L102.6 255.255L102.799 249.452L103.054 247.491L103.431 246.151L104.861 243.205L106.567 240.636L108.518 238.454L110.745 236.66L113.405 235.164L116.375 234.101L119.633 233.481L123.202 233.293L123.812 233.082L124.144 232.517L125.008 229.117L126.25 226.127L127.857 223.546L129.84 221.387L132.023 219.736L134.539 218.44L136.778 217.765L139.748 217.311L143.438 217.078L147.849 217.067L162.843 217.244L178.525 217.167L178.735 216.934V216.923L177.583 208.949L177.472 208.727L177.25 208.661L165.858 208.517L159.951 208.229L156.56 207.609L153.346 206.568L150.863 205.394L148.492 203.954L146.242 202.215L144.103 200.199L142.031 197.729L140.368 194.994L139.072 191.738L138.285 188.127L137.952 183.996L138.008 178.447L137.82 177.783L137.288 177.34L134.694 176.155L132.334 174.759L130.195 173.153L128.289 171.326L126.46 169.099L124.909 166.619L123.634 163.883L122.626 160.893L122.326 160.45L121.817 160.283L97.624 160.306L73.0213 160.062L67.314 160.272L65.4078 160.616L64.1333 161.114L62.2604 162.543L60.8862 164.259L59.911 166.619L59.5785 169.365V375.778L59.8113 376.343L60.3764 376.576H130.128ZM440.466 376.553L440.909 376.376L441.087 375.933L440.965 176.852L440.987 175.291L440.854 169L440.543 166.785L440.056 165.134L439.236 163.639L438.172 162.421L436.897 161.524L435.401 160.881L433.672 160.494L431.7 160.372L361.626 160.272L361.239 160.405L361.117 160.771V215.395L361.349 215.982L361.915 216.259L365.007 216.624L368.01 217.222L370.891 218.064L373.673 219.138L376.277 220.412L378.782 221.907L381.198 223.624L383.503 225.573L385.852 227.899L387.98 230.391L390.186 233.492L392.092 236.804L393.71 240.348L395.04 244.124L395.749 247.104L396.248 250.825L396.558 255.266L396.658 260.45L396.647 375.811L396.868 376.332L397.4 376.553H440.466ZM262.329 175.357L262.207 175.501L256.433 177.096L256.001 177.373L255.868 177.86L256.012 182.911L254.815 214.985L254.937 215.638L255.325 216.181L255.912 216.491L256.577 216.536L256.877 216.447L257.785 216.081L259.891 216.159L261.542 215.96L262.728 215.506L263.448 214.786L263.681 214.088L263.592 177.118L263.703 175.656L263.393 174.992H262.95L262.329 175.357ZM332.624 181.792L331.915 182.324L330.884 183.032L329.854 184.107L329.045 185.425L326.352 187.396L326.23 187.54L325.365 189.201L325.044 191.284L325.277 193.787L326.041 196.733L326.307 199.081L326.85 201.063L327.626 202.924L329.532 205.914L332.125 208.55L333.333 209.458L333.91 209.624L333.688 208.705L333.4 182.911L333.566 181.748L333.477 181.438L333.223 181.205L332.89 181.238L332.846 181.26L332.624 181.792ZM273.19 204.508L272.658 205.349L272.558 206.136L272.791 206.712L272.625 207.576L272.758 208.329L273.001 208.772L273.378 209.159L273.788 209.082L274.298 208.672L275.805 206.867L276.692 205.305L279.762 200.421L280.903 198.848L281.679 196.423L282.111 193.111V189.578L281.956 189.08L281.59 188.703L277.057 185.668L275.34 184.273L273.777 182.49L273.456 182.268L273.179 182.545L272.946 183.099L272.669 185.159L272.957 194.052V202.581L273.19 204.497V204.508ZM310.415 194.008L297.039 194.063L294.867 193.443L293.06 193.399L292.229 193.366L291.852 193.676L291.575 194.23L290.899 196.965L290.844 198.771L290.799 199.623L290.467 200.376L287.663 206.468L286.422 207.775L285.203 210.101L285.591 211.972L287.342 214.542L289.259 216.912L291.343 219.072L293.592 221.01L295.011 222.073L296.418 222.926L299.311 224L302.569 224.377L305.517 224.067L308.476 223.026L310.271 222.317L311.878 221.364L313.485 219.991L314.87 218.308L316.799 216.857L318.494 215.184L319.802 213.512L320.921 211.662L321.087 210.865L320.833 210.09L318.55 206.014L316.954 201.706L315.979 197.109L315.502 192.923L310.415 194.008ZM216.67 208.462H216.626L215.994 208.749L215.739 209.392V216.524L215.905 217.012L216.382 217.167H245.107L245.706 216.923L245.972 216.314L246.271 203.156L246.171 202.846L245.85 202.902L240.696 205.77L238.702 206.767L236.729 207.498L234.79 207.974L232.872 208.185L216.67 208.462ZM185.928 209.558L186.205 210.677L186.16 210.754L186.016 211.319L186.172 212.05L187.091 214.199L188.2 216.137L189.496 217.876L190.981 219.393L193.929 221.508L196.168 222.062L196.755 222.106L198.373 221.697L199.47 221.11L201.332 219.803L203.028 218.197L203.804 217.898L205.3 216.691L206.419 214.73L208.026 209.303L208.048 209.193L207.793 208.395L207.028 208.052H186.382L185.817 208.229L185.54 208.783L185.662 209.425L185.928 209.558ZM365.616 272.478L367.511 272.677L368.885 273.441L369.739 274.826L370.027 276.808L370.049 343.449L370.226 343.892L370.67 344.069H387.049L387.393 343.925L387.537 343.582L387.648 256.042L387.426 251.955L386.828 248.61L385.852 245.31L384.5 242.064L382.772 238.853L380.81 235.951L378.627 233.415L376.222 231.222L373.606 229.383L369.428 227.334L364.796 226.038L361.139 225.628L355.287 225.484L349.48 225.352L345.779 224.964L345.335 224.886L341.124 223.834L337.013 222.306L332.99 220.279L329.067 217.776L328.302 217.588L327.604 217.975L323.503 222.948L321.154 225.462L318.649 227.644L315.99 229.483L313.219 230.978L310.349 232.119L307.401 232.883L304.409 233.271H301.383L297.56 232.684L293.77 231.443L290.19 229.582L286.732 227.057L282.355 222.86L278.398 218.042L277.955 217.71L277.39 217.831L267.427 223.58L267.194 223.823L267.261 224.178L268.081 226.005L268.735 228.043L269.533 232.783L269.699 233.259L270.131 233.525L272.514 233.736L273.655 233.791L276.836 234.422L279.706 235.397L282.255 236.726L284.505 238.41L285.901 239.805L287.142 241.378L289.148 245.055L289.846 247.259L290.323 250.028L290.589 253.35L290.622 257.238L290.511 280.784L290.722 281.294L291.221 281.504L332.269 281.338L338.597 281.615L340.947 281.958L342.764 282.457L345.025 283.464L347.064 284.771L349.381 286.931L351.32 289.6L352.317 291.749L352.938 294.263L353.137 297.143L352.938 300.299L343.385 375.989L343.496 376.387L343.862 376.576H343.895H360.474L360.563 376.564L360.939 376.365L361.095 375.955L361.05 277.085L361.349 275.003L362.247 273.541L363.588 272.754L365.439 272.489L365.616 272.478ZM164.206 226.526L164.118 226.758L164.351 227.201L163.907 227.312L163.963 227.799L171.066 242.995L171.355 243.305L171.609 243.327L172.54 245.697L172.252 246.207H173.106L173.571 246.04L174.048 245.686L185.784 234.035L188.565 231.288L189.385 230.546L189.452 229.948L189.23 229.228L188.632 228.541L187.634 228.375L186.039 227.168L185.218 226.06L184.398 225.695L183.767 225.916L183.401 225.905L175.422 226.204L170.634 226.315L164.206 225.651L163.852 225.828L163.763 226.227L164.206 226.526ZM207.993 226.559L204.435 229.272L204.092 229.405L204.236 230.003L205.144 231.078L218.233 244.158L220.017 244.966L220.427 245.01L220.704 244.7L225.226 234.622L225.68 234.179L226.367 232.938L226.6 231.321L228.362 227.434L228.318 227.057L228.118 226.791L228.351 226.647L228.373 226.625L228.417 226.437L228.318 226.282L227.619 225.928L226.877 225.972L226.068 226.404L213.323 226.249L211.672 225.739L210.298 225.551L209.201 225.673L208.369 226.116L207.993 226.559ZM134.45 339.019L152.581 357.005L152.925 357.659L153.213 357.847L153.534 357.725L153.601 357.614L153.634 356.662L152.991 356.219L152.825 353.86L152.282 351.634L152.492 351.512L152.781 351.002L152.792 350.172L148.193 309.137L147.339 303.522L146.996 299.402L147.217 295.359L147.694 292.613L148.436 289.899L149.944 287.385L151.905 285.491L152.404 285.159L156.393 283.01L158.455 282.268L160.549 281.748L164.628 281.36L178.281 281.604L178.946 281.537L179.445 281.271L179.766 280.806L179.91 280.142L180.309 274.538L180.874 272.555L181.018 271.68L182.393 261.69L183.999 251.733L184.121 251.036L184.077 250.515L183.767 250.138L183.745 249.784L183.7 249.817L184.398 248.765L184.542 247.923L184.332 247.536L183.944 247.735L174.469 257.88L172.917 259.143L171.377 259.564L169.914 259.154L168.639 258.035L167.376 256.053L162.677 246.262L156.294 231.709L155.983 231.354L155.762 231.421L155.629 231.266L155.551 230.911L155.052 229.35L153.545 226.603L153.157 226.26L152.659 226.105L147.073 225.828L141.222 225.961L139.371 226.193L137.786 226.647L136.456 227.345L135.392 228.275L134.672 229.283L134.151 230.468L133.841 231.842L133.719 233.392L133.52 278.314L133.619 333.016L133.841 336.682L134.45 339.019ZM214.188 253.151L211.395 249.828L210.608 249.441L209.677 249.651L209.666 249.74L209.721 252.653L210.597 255.665L211.517 261.026L214.032 277.882L214.564 278.569L215.13 279.798L215.584 280.419L216.315 280.662H259.636L260.279 280.396L260.534 279.754L260.057 233.171L259.958 231.199L259.337 229.527L258.129 228.098L256.356 226.991L240.253 226.47L239.644 226.426L239.067 226.614L238.38 227.467L225.314 256.33L224.328 257.858L223.087 258.689L221.812 258.855L220.36 258.356L218.665 257.038L214.188 253.151ZM203.682 281.415L204.269 281.294L204.746 280.928L205.034 280.408L205.078 279.809L199.038 238.177L198.728 237.468L198.085 237.047L196.112 236.394L195.037 236.482L194.528 236.914L194.284 237.546L188.565 279.821L188.809 280.806L189.651 281.382L189.962 281.415H203.682ZM123.302 327.899L123.335 328.287L123.856 328.265L124.543 327.733L124.809 326.891L124.465 255.986L124.144 243.825L123.978 243.416L123.59 243.194L121.052 242.95L118.847 243.106L116.94 243.659L115.367 244.601L114.303 245.686L113.45 247.048L112.94 248.488L112.563 250.515L112.197 256.274L111.987 271.547L111.832 318.352L111.987 322.439L112.142 327.223L112.352 327.81L112.895 328.121L116.575 328.486L120.21 328.375L123.302 327.899ZM281.302 280.74L281.546 280.308L281.612 279.854L281.457 254.103L281.224 251.301L280.571 248.411L279.451 246.317L277.922 244.745L276.359 243.825L274.52 243.272L272.414 243.083L270.031 243.238L269.71 243.416L269.577 243.759V280.12V280.142L269.71 280.729L270.053 281.216L270.563 281.537L271.151 281.637L280.97 281.327L281.258 281.294L281.391 281.05L281.302 280.74ZM220.649 245.453L220.493 245.719L220.571 245.985L220.77 245.775L220.815 245.664L220.782 245.487V245.476L220.649 245.453ZM260.766 280.662L260.888 280.74L260.899 280.729L261.01 280.629L260.988 280.23L260.955 280.186L260.755 280.252L260.766 280.662ZM160.594 291.206L158.676 292.092L157.269 293.377L156.349 295.16L155.994 297.386L156.427 303.876L156.637 305.804L157.579 310.3L160.04 332.052L160.383 338.62L161.214 345.11L162.001 349.23L162.045 349.275L162.411 350.161L162.3 351.456L167.31 397.408L167.72 397.608L168.096 397.763L168.385 397.796L211.506 398.328L215.717 403.799L217.468 405.593L218.366 406.069L219.297 406.28L219.474 406.291L240.43 406.457L278.775 406.38L281.213 406.047L283.175 405.073L284.327 403.932L288.162 398.162L329.366 397.796L330.308 397.951L331.05 397.84L331.472 397.564L331.66 397.076L337.999 347.004L340.67 326.271L344.072 298.405L344.028 296.744L343.474 295.459L343.352 295.315L343.263 295.348L343.163 294.872L342.343 293.521L341.302 292.447L339.24 291.328L338.708 291.162L336.049 290.575H335.827L169.892 290.63L165.337 290.774L160.594 291.206ZM112.175 338.543L112.153 338.653L112.075 340.027L112.386 341.478L112.419 343.161L112.796 344.723L113.494 346.107L114.137 346.871L115.045 348.533L116.952 351.08L119.09 353.384L122.57 356.274L134.617 367.937L142.851 375.911L143.261 376.199L143.815 376.321L153.966 376.62L154.631 376.465L154.731 376.398L155.119 375.822L155.097 375.612L155.152 374.216L154.576 372.555L153.9 371.758L152.98 371.126L140.834 358.788L126.97 343.803L125.873 342.397L125.175 340.868L124.842 338.753L124.499 337.933L123.69 337.579L113.926 337.524L112.452 337.679L111.898 338.033L112.175 338.543ZM371.29 353.638L370.67 353.971L370.359 354.403L370.315 354.635L370.215 365.456L370.581 376.288L386.706 376.631L387.515 376.31L387.847 375.512V375.501L387.625 357.083L387.736 354.58L387.814 353.882L387.537 353.472L386.617 353.206L371.29 353.638ZM10.9937 408.484L11.8249 410.81L12.246 412.36L12.9331 413.944L15.072 417.189L17.3217 419.748L19.7487 421.985L22.3198 423.912L25.0683 425.518L28.3043 426.924L31.0305 427.667L34.5658 428.209L38.8989 428.553L44.0522 428.697L132.212 428.929L289.049 428.674L372.21 428.752L461.943 428.564L465.822 428.353L469.479 427.722L472.926 426.692L476.151 425.252L479.199 423.369L482.036 421.054L484.651 418.33L487.034 415.185L488.995 411.596L490.048 408.451V407.775L489.383 407.188L488.951 407.111L474.622 407.321L460.281 407.487L342.498 407.343L296.252 407.321L295.033 407.443L293.947 407.841L292.628 408.916L291.609 410.566L290.722 411.596L289.913 412.238L287.63 413.667L285.203 414.664L282.953 415.196L280.604 415.406L275.639 415.661L239.943 415.705L220.804 415.749L216.149 415.151L211.273 413.623L206.264 408.495L206.319 407.709L205.953 407.498L201.111 407.299L105.06 407.398L16.1913 407.255L11.2708 407.576L10.9272 407.753L10.8496 408.118L10.8829 408.273L10.9937 408.484Z" fill="#16335D"/>
<path d="M203.881 65.8742L202.895 64.9218L200.977 63.4598L198.816 62.2637L200.745 62.6513L202.274 63.5152L203.205 64.5452L203.881 65.8742Z" fill="#9A9DA5" fill-opacity="0.996"/>
<path d="M192.023 63.5723L191.026 64.8348L189.419 65.8981L190.239 64.6798L191.27 63.8713L192.023 63.5723Z" fill="#9A9DA5" fill-opacity="0.996"/>
<path d="M352.395 91.5468L349.724 87.8144L346.942 84.1595L343.329 80.3717L339.506 76.9716L335.461 73.9701L331.194 71.3674L326.473 69.0415L321.497 67.1587L316.278 65.7189L310.825 64.711L305.439 64.3677L300.042 64.3123L303.001 63.7253L305.65 63.6367L312.764 64.4231L319.491 65.9072L325.842 68.078L331.793 70.9465L337.024 74.2691L341.9 78.2009L346.455 82.7308L350.655 87.8809L351.453 89.2874L352.395 91.5468Z" fill="#9A9DA5" fill-opacity="0.996"/>
<path d="M297.87 64.5352L291.63 65.7645L285.712 67.5255L280.105 69.8292L274.83 72.6535L270.751 75.3448L266.895 78.4016L263.249 81.8128L259.824 85.5785L256.411 90.4849L252.953 95.3913L255.07 91.5371L257.464 87.8932L261.143 83.308L265.354 79.0883L270.075 75.2451L275.317 71.7785L280.448 69.054L285.635 66.9496L290.888 65.4877L296.196 64.6681L297.87 64.5352Z" fill="#9A9DA5" fill-opacity="0.996"/>
<path d="M205.223 68.0918L205.788 69.0997L206.099 70.1408L206.165 71.2815L205.955 72.4666L204.536 75.911L202.275 79.1119L203.971 76.199L204.979 73.1311L205.301 70.6502L205.223 68.0918Z" fill="#9A9DA5" fill-opacity="0.996"/>
<path d="M327.46 79.9756L323.548 78.1593L319.836 76.7416L316.034 75.5344L312.134 74.5708L308.133 73.8398L311.879 74.2054L315.558 74.8809L321.387 76.6752L327.017 79.3111L327.46 79.8206V79.9756Z" fill="#9A9DA5" fill-opacity="0.996"/>
<path d="M142.432 111.784L144.027 109.58L145.767 107.642L147.674 105.97L149.746 104.563L152.151 103.345L154.744 102.437L157.515 101.838L160.474 101.551L171.467 101.207L172.753 100.82L173.662 99.8338L175.014 97.4526L176.532 95.2597L178.227 93.2772L180.1 91.494L182.339 89.7773L184.788 88.3043L187.448 87.0638L190.307 86.0671L191.227 85.469L191.648 84.4501L191.715 83.0767L191.504 80.7841L190.895 78.5026L189.864 76.221L188.423 73.9395L192.457 79.4883L192.734 80.0199L192.812 80.5737V84.8377L192.479 85.912L191.46 86.4325L188.667 87.0971L186.04 88.1049L183.857 89.29L181.807 90.7409L180.699 91.6712L178.804 93.5208L177.064 95.5476L175.49 97.7516L174.072 100.144L173.362 101.207L172.664 101.761L171.268 102.016L164.341 101.706L161.116 101.772L158.047 102.16L155.121 102.88L152.339 103.932L149.624 105.372L147.075 107.155L144.67 109.292L142.432 111.784Z" fill="#9A9DA5" fill-opacity="0.996"/>
<path d="M302.558 73.9936L302.348 74.0822L300.309 74.5474L298.015 74.3813L298.912 73.9826L299.965 73.7832L302.558 73.9936Z" fill="#9A9DA5" fill-opacity="0.996"/>
<path d="M287.985 76.9727L285.326 78.3128L282.777 79.0548L282.167 79.2542L281.813 79.5975L281.713 80.0738L281.857 80.6829L284.129 85.39L286.955 89.4879L290.623 93.619L294.535 97.3293L298.68 100.652L303.079 103.554L308.809 106.566L314.893 108.959L321.354 110.742L328.181 111.916L324.634 111.628L321.155 111.129L317.752 110.398L314.417 109.446L310.139 107.862L305.994 105.891L301.971 103.532L298.07 100.796L292.839 96.3547L288.163 91.4483L284.339 86.4754L280.992 81.1038L280.937 80.993L280.826 80.4393L280.948 79.8966L281.269 79.4425L281.757 79.1656L283.541 78.4346L285.425 77.3492L286.5 76.9837L287.985 76.9727Z" fill="#9A9DA5" fill-opacity="0.996"/>
<path d="M331.185 104.327L326.11 103.94L321.233 102.888L318.695 102.057L315.171 100.639L311.769 99.0224L308.5 97.2281L305.363 95.2235L299.645 90.7933L294.425 85.6211L291.887 82.232L288.906 77.2148L289.726 78.0012L291.156 79.8619L293.04 82.7526L296.298 86.5957L299.778 90.0845L303.491 93.1967L307.436 95.9545L312.811 98.9338L318.562 101.326L324.68 103.12L331.185 104.327Z" fill="#9A9DA5" fill-opacity="0.996"/>
<path d="M202.274 79.1113L201.676 81.5812L201.576 83.5194L202.108 85.0367L203.15 86.0556L204.734 86.7312L201.798 86.1331L201.365 85.8895L201.144 85.4465L201.044 83.3754L201.299 80.7837L201.62 79.7094L202.185 79.1446L202.274 79.1113Z" fill="#9A9DA5" fill-opacity="0.996"/>
<path d="M331.239 82.1343L328.89 81.06L327.46 79.9746L329.543 80.7499L331.239 82.1343Z" fill="#9A9DA5" fill-opacity="0.996"/>
<path d="M332.126 95.3471L328.259 94.8487L324.524 94.0513L320.922 92.9659L317.454 91.5815L314.096 89.887L310.86 87.8823L307.768 85.5897L304.809 82.998L308.111 85.5011L311.536 87.7383L315.06 89.7208L318.706 91.4375L325.244 93.7744L332.126 95.3471Z" fill="#9A9DA5" fill-opacity="0.996"/>
<path d="M341.514 91.8141L332.305 82.9648L335.131 84.9363L337.691 87.1846L339.708 89.3886L341.514 91.8141Z" fill="#9A9DA5" fill-opacity="0.996"/>
<path d="M261.6 99.5784L258.109 109.28L258.031 109.712L258.175 110.322L258.574 110.798L259.15 111.03L259.771 110.975L264.603 109.136L268.737 107.198L272.737 104.983L276.627 102.491L280.395 99.7002L280.949 98.781L280.728 97.7288L273.236 86.3543L272.992 86.166L272.627 86.3322L269.867 89.0013L267.296 91.8145L264.304 95.5801L261.6 99.5784L261.699 98.6038L261.888 98.2161L264.237 94.7052L266.797 91.3715L272.039 85.6233L272.538 85.3132L273.114 85.2246L273.679 85.3908L274.112 85.7673L274.211 85.9113L281.404 98.3601L281.515 98.9803L281.215 99.5341L276.007 103.676L270.421 107.143L265.844 109.358L261.057 111.174L258.563 111.651H258.463L257.787 111.329L257.588 110.61L258.341 107.054L259.505 103.676L261.6 99.5784Z" fill="#9A9DA5" fill-opacity="0.996"/>
<path d="M252.687 96.066L248.742 107.85L248.676 108.005L248.033 108.459L247.268 108.249L243.755 105.702L239.976 103.808L236.02 102.578L231.808 101.98L226.733 101.836L221.081 102.036L220.438 101.881L219.972 101.404L218.465 98.7352L216.725 96.1214L212.503 91.0488L214.365 92.6216L216.094 94.5154L217.701 96.7527L219.186 99.3222L219.74 99.9978L220.726 100.74L221.568 101.083L222.688 101.194L229.991 101.26L232.95 101.57L236.651 102.368L240.286 103.631L243.855 105.336L247.346 107.496L247.933 107.584L248.365 107.197L248.41 107.064L248.753 105.502L250.349 100.696L252.687 96.066Z" fill="#9A9DA5" fill-opacity="0.996"/>
<path d="M358.091 103.92L353.348 93.0215L354.822 95.3695L356.063 97.8172L357.226 100.796L358.091 103.92Z" fill="#9A9DA5" fill-opacity="0.996"/>
<path d="M339.938 95.3898L341.146 94.9468L342.122 94.2601L342.598 93.7285H342.809L343.33 93.9832L343.573 94.5592L343.274 95.0908L343.097 95.1794L341.645 95.4563L339.938 95.3898Z" fill="#9A9DA5" fill-opacity="0.996"/>
<path d="M201.798 95.7016L202.54 97.0639L203.538 98.1271L204.369 98.6698L204.812 98.8027L204.602 98.404L202.286 95.5022L204.613 96.5212L206.563 97.9499L207.782 99.279L207.993 99.5226L208.469 99.8992L209.168 100.53L209.677 101.45V101.981L209.157 102.17H185.03L184.1 102.059L183.656 101.738L183.712 101.195L184.255 100.431L186.238 98.5147L188.721 96.5655L190.705 95.3804L192.788 94.6051L194.074 94.3282L195.769 94.1621L198.13 94.2618L200.512 94.738L201.344 95.1035L201.776 95.6241L201.798 95.7016ZM197.121 95.1645L196.669 94.8529L195.579 94.727L194.49 94.8605L194.04 95.1754L194.493 95.4871L195.582 95.613L196.671 95.4794L197.121 95.1645ZM190.937 96.0228L190.926 96.0339L191.026 96.4215L191.403 96.488L191.602 96.1446L191.558 95.8677L191.281 95.8013H191.248L190.937 96.0228ZM187.302 100.198L187.092 99.5337L186.593 99.5669L185.418 100.697L185.263 101.073L185.651 101.228L186.582 101.14L187.125 100.785L187.302 100.198ZM207.328 100.575L207.638 100.807L208.126 100.885L207.96 100.287L207.095 99.4119L206.707 99.279L206.253 99.3233L206.342 99.7774L206.907 100.209L207.328 100.575ZM203.671 100.623L203.529 100.278L203.185 100.134L189.133 100.085L188.787 100.227L188.643 100.571L188.643 100.615L188.785 100.96L189.129 101.104L203.181 101.153L203.527 101.011L203.671 100.668L203.671 100.623Z" fill="#9A9DA5" fill-opacity="0.996"/>
<path d="M347.597 104.993L346.423 104.672L345.248 104.572L346.844 104.229L347.597 104.45V104.993Z" fill="#9A9DA5" fill-opacity="0.996"/>
<path d="M325.687 121.163L320.799 120.631L316.023 119.679L310.05 117.863L304.243 115.371L296.906 111.284L289.78 106.377L289.126 106.034L288.384 105.912L287.652 106.045L286.998 106.411L280.46 111.594L287.264 105.17L288.206 104.771L289.171 105.115L295.432 109.822L302.082 113.754L307.612 116.323L313.385 118.416L319.414 120.022L325.687 121.163Z" fill="#9A9DA5" fill-opacity="0.996"/>
<path d="M348.905 110.953L349.182 109.812L349.171 108.55L348.849 107.143L348.229 105.604L349.569 107.83L349.88 108.926L349.946 110.012L349.869 110.654L349.592 111.13L348.905 110.953Z" fill="#9A9DA5" fill-opacity="0.996"/>
<path d="M359.056 106.811L359.854 109.657L360.929 115.483L361.316 121.474L361.283 146.915L361.505 148.798L362.203 150.714L361.394 150.813L361.139 150.437L361.084 149.717L361.328 138.885L361.062 128.12L360.308 117.432L359.056 106.811Z" fill="#9A9DA5" fill-opacity="0.996"/>
<path d="M347.73 111.319L344.893 111.928L341.114 111.995L343.264 111.518L345.436 111.297L347.73 111.319Z" fill="#9A9DA5" fill-opacity="0.996"/>
<path d="M152.293 195.192L154.997 196.765L158.056 197.884L161.447 198.526L165.182 198.714L199.404 198.57L228.905 198.914L232.019 198.725L234.945 198.006L238.214 196.455L241.228 194.151L243.268 191.881L244.741 189.356L245.695 186.421L246.038 183.22L246.193 155.022L246.094 126.458L245.772 123.49L245.129 121.33L244.154 119.237L242.625 117.033L240.586 115.028L238.048 113.223L235.011 111.617L238.48 112.968L241.395 114.962L243.445 117.188L245.085 119.891L246.027 122.615L246.481 125.982L246.714 132.284L246.836 184.327V184.604L246.537 186.786L245.717 188.968L244.398 191.128L242.558 193.276L239.156 196.311L235.876 198.316L234.424 198.836L232.595 199.202L227.819 199.523L194.328 199.589L163.807 199.301L160.86 199.08L158.178 198.493L155.751 197.551L153.59 196.256L152.293 195.192Z" fill="#9A9DA5" fill-opacity="0.996"/>
<path d="M280.46 111.596L279.972 111.928L276.504 114.143L272.924 116.17L265.377 119.67L263.316 120.412L260.379 121.187L257.353 121.663L256.855 121.863L256.533 122.295L255.99 124.632L256.079 126.714L256.267 127.168L256.677 127.467L260.711 129.095L256.389 128.109L255.78 127.677L255.658 126.946L255.669 126.924L255.824 126.226L255.913 124.554L255.614 122.815L255.603 122.771L255.758 121.874L256.522 121.353L262.318 119.947L267.893 118.008L273.877 115.195L279.585 111.729L280.46 111.596Z" fill="#9A9DA5" fill-opacity="0.996"/>
<path d="M138.574 120.355L139.029 117.952L139.86 115.714L140.735 114.131L141.832 112.646L138.574 120.355Z" fill="#9A9DA5" fill-opacity="0.996"/>
<path d="M347.885 215.327L349.558 215.471L350.766 215.116L351.143 214.74L351.254 214.252L351.475 120.211L352.118 128.639L352.329 138.618L352.007 215.282L351.863 215.77L351.475 216.047L351.431 216.058L349.802 216.124L347.885 215.327Z" fill="#9A9DA5" fill-opacity="0.996"/>
<path d="M349.148 120.888L347.586 121.397L347.231 121.785L347.087 122.283L346.034 139.273L346.378 122.77L346.511 121.63L346.876 120.976H346.888L347.807 120.666L349.148 120.888Z" fill="#9A9DA5" fill-opacity="0.996"/>
<path d="M337.058 134.002L336.881 123.503L336.626 122.772L335.939 122.462L329.655 121.653L333.013 121.432L336.283 121.731L336.826 121.83L337.258 122.063L337.391 122.528L337.058 134.002Z" fill="#9A9DA5" fill-opacity="0.996"/>
<path d="M126.228 134.71L127.812 132.551L129.186 131.255L130.893 130.07L135.991 127.633L136.7 127.334L137.11 127.035L137.31 126.614L138.141 123.402L138.429 125.053L138.285 126.603L138.119 127.135L137.853 127.567L137.387 127.833L133.409 129.394L129.84 131.521L127.967 133.027L126.228 134.71Z" fill="#9A9DA5" fill-opacity="0.996"/>
<path d="M110.337 131.231L108.996 129.802L107.455 128.961L105.594 128.684L89.2472 128.85L72.8232 128.54L80.7582 127.964L88.7042 127.676L97.2264 127.687L105.76 128.041L107.677 128.418L109.129 129.293L109.827 130.157L110.337 131.231Z" fill="#9A9DA5" fill-opacity="0.996"/>
<path d="M215.32 174.282L218.523 173.64L221.504 172.677L224.252 171.414L226.779 169.819L228.84 168.136L230.724 166.186L233.329 162.598L235.157 158.721L235.977 155.82L236.421 152.785L236.454 149.429L236.011 146.173L235.434 144.035L234.636 141.942L232.376 137.9L230.192 135.197L227.677 132.949L224.751 131.122L221.482 129.77L219.199 129.228L216.284 128.884L208.56 128.785L193.82 128.962L178.992 128.563L185.653 128.043L192.779 127.732L208.405 127.755L217.403 128.297L219.819 128.696L222.025 129.305L224.042 130.114L225.859 131.133L227.943 132.628L229.849 134.256L231.567 136.028L233.085 137.933L233.761 138.896L234.548 140.203L235.512 142.197L236.243 144.323L236.753 146.572L237.03 148.942L237.097 151.5L236.919 153.981L236.498 156.374L235.844 158.688L234.78 161.236L233.406 163.672L231.711 165.998L229.705 168.224L226.99 170.528L224.008 172.289L221.992 173.108L219.875 173.718L217.647 174.116L215.32 174.282Z" fill="#9A9DA5" fill-opacity="0.996"/>
<path d="M473.104 164.868L471.686 158.267L470.733 154.778L469.591 151.965L467.464 148.111L465.037 144.6L462.332 141.421L459.34 138.586L455.262 135.551L450.74 133.037L445.787 131.032L440.401 129.537L437.176 129.017L433.142 128.695L422.602 128.629L402.987 128.939L381.587 128.85L380.578 129.039L379.492 129.626L379.37 129.714L378.705 130.412L378.218 131.331L377.198 134.1L377.453 132.472L377.908 131.088L378.561 129.947L379.415 129.061L381.088 128.175L383.216 127.854L402.422 127.688L423.489 127.754L429.95 127.931L435.458 128.33L440.024 128.961L443.626 129.825L448.867 131.741L453.633 134.067L457.911 136.803L461.701 139.959L464.815 143.282L467.43 146.914L469.602 150.924L471.276 155.254L472.439 159.906L473.104 164.868Z" fill="#9A9DA5" fill-opacity="0.996"/>
<path d="M178.99 128.562L193.818 128.961L208.558 128.784L216.282 128.884L219.197 129.227L221.48 129.77L224.749 131.121L227.675 132.948L230.191 135.197L232.374 137.899L234.635 141.942L235.432 144.035L236.009 146.172L236.452 149.429L236.419 152.784L235.975 155.819L235.155 158.721L233.327 162.597L230.722 166.186L228.838 168.135L226.777 169.818L224.25 171.413L221.502 172.676L218.521 173.64L215.318 174.282L175.067 174.105L171.066 172.532L167.553 170.561L164.539 168.224L162.001 165.488L159.896 162.232L158.311 158.555L157.546 155.742L157.158 152.895L157.191 149.373L157.768 145.818L158.92 142.219L160.616 138.586L161.092 137.999L165.348 133.436H165.37L165.536 133.325L168.817 131.453L172.241 130.047L177.128 128.862L178.99 128.562ZM169.083 141.908L166.489 146.017L165.703 148.476L165.414 150.935L165.725 153.792L166.711 156.661L166.922 156.838L167.11 157.558L168.008 159.253L169.049 160.748L170.224 162.032L171.554 163.118L173.006 163.982L174.591 164.646L176.319 165.1L178.192 165.366L216.316 165.388L218.654 164.912L220.56 164.17L222.366 163.118L222.832 162.675L223.009 162.221V162.154L225.414 160.161L227.054 157.779L227.719 156.041L228.063 154.136L228.284 152.341V150.503L227.619 146.627L226.821 144.766L225.857 143.105L224.716 141.643L223.408 140.391L221.225 138.918L218.687 137.877L215.795 137.268L212.547 137.068L184.31 136.825L178.835 137.046L176.441 137.434L174.291 138.01L174.125 138.065L172.74 138.674L171.443 139.527L169.083 141.908Z" fill="#16335D"/>
<path d="M177.129 128.861L172.242 130.046L168.817 131.453L165.537 133.325L167.909 131.431L170.491 130.057L173.672 129.127L177.129 128.861Z" fill="#9A9DA5" fill-opacity="0.996"/>
<path d="M61.3527 129.316L55.0247 131.432L50.481 133.237L46.3251 135.419L42.5572 138L39.1881 140.979L36.5173 143.936L34.1568 147.214L32.0955 150.792L30.3444 154.679L29.0367 158.976L27.585 163.218L28.9148 157.404L30.8321 152.099L33.3478 147.281L36.4619 142.95L40.0304 139.24L44.1641 135.995L48.8408 133.215L54.0827 130.9L57.3963 129.937L61.3527 129.316Z" fill="#9A9DA5" fill-opacity="0.996"/>
<path d="M323.538 134.554L322.019 132.738L320.224 131.52L318.318 130.955L316.168 130.888L317.254 130.622L318.373 130.578L319.493 130.766L320.557 131.165L321.532 131.774L322.374 132.561L323.538 134.554Z" fill="#9A9DA5" fill-opacity="0.996"/>
<path d="M290.236 142.463L291.887 141.576L293.162 140.591L294.048 139.505L294.558 138.32L294.613 136.338L293.793 134.123L292.696 132.683L291.289 131.764L289.892 131.42L288.374 131.509L287.365 131.819L286.013 132.672L284.861 133.979L284.052 135.574L283.819 137.146L284.063 138.42L284.706 139.671L285.736 140.912L287.155 142.13L285.991 141.51L284.994 140.646L284.207 139.583L283.686 138.376L283.442 136.537L283.775 134.71L284.673 133.071L286.036 131.808L288.064 130.944L290.28 130.889L292.341 131.664L293.982 133.137L294.913 134.964L295.156 137.002L294.691 138.996L293.572 140.701L292.042 141.853L290.236 142.463Z" fill="#9A9DA5" fill-opacity="0.996"/>
<path d="M316.168 130.889L318.318 130.955L320.224 131.52L322.019 132.738L323.538 134.555L323.571 134.643L323.515 137.346L323.183 138.486L322.64 139.472L321.41 140.701L320.146 141.41L318.85 141.743L317.442 141.698L315.98 141.233L314.373 140.103L313.674 139.184L313.176 138.088L312.766 135.319L312.921 134.422L313.408 133.458L315.359 131.265L316.168 130.889Z" fill="#16335D"/>
<path d="M290.236 142.462L288.673 142.506L287.155 142.13L285.737 140.912L284.706 139.671L284.063 138.42L283.819 137.146L284.052 135.573L284.861 133.978L286.014 132.671L287.366 131.819L288.374 131.509L289.892 131.42L291.289 131.763L292.696 132.683L293.793 134.122L294.613 136.337L294.558 138.32L294.048 139.505L293.162 140.59L291.887 141.576L290.236 142.462Z" fill="#16335D"/>
<path d="M315.359 131.266L313.409 133.459L312.921 134.422L312.766 135.319L313.176 138.088L313.675 139.185L314.373 140.104L315.98 141.234L317.443 141.699L318.85 141.743L320.147 141.411L321.41 140.702L322.64 139.473L323.183 138.487L323.516 137.346L323.571 134.644L323.893 136.881L323.383 139.052L322.108 140.835L320.269 141.998L319.892 142.12L318.773 142.33L317.631 142.308L316.512 142.042L315.459 141.566L314.517 140.879L313.719 140.026L313.098 139.03L312.677 137.922L312.467 135.973L312.888 134.09L313.885 132.451L315.359 131.266Z" fill="#9A9DA5" fill-opacity="0.996"/>
<path d="M165.349 133.438L161.094 138.001L161.881 136.406L162.945 135.066L164.053 134.157L165.349 133.438Z" fill="#9A9DA5" fill-opacity="0.996"/>
<path d="M227.62 146.626L226.257 144.333L224.716 142.384L222.976 140.767L221.059 139.493L218.92 138.541L216.582 137.932L211.517 137.5L203.97 137.721L197.93 137.91L193.974 137.799L184.044 137.644L176.519 137.976L174.923 138.308L173.161 139.084L171.211 140.28L169.083 141.908L171.444 139.527L172.74 138.674L174.125 138.065L174.292 138.009L176.442 137.433L178.835 137.046L184.31 136.824L212.548 137.068L215.795 137.267L218.687 137.876L221.225 138.917L223.408 140.391L224.716 141.642L225.858 143.104L226.822 144.765L227.62 146.626Z" fill="#9A9DA5" fill-opacity="0.996"/>
<path d="M124.666 137.279L123.059 142.075L123.192 140.369L123.679 138.819L124.666 137.279Z" fill="#9A9DA5" fill-opacity="0.996"/>
<path d="M136.978 166.616L137.333 166.129L137.388 165.785L137.311 155.441L137.466 140.578L137.344 139.105L136.923 137.875L137.665 137.377L138.098 137.598L138.497 138.197L138.53 138.341V166.727L138.397 167.126L138.053 167.358L137.499 167.436L137.133 167.303L136.978 166.616Z" fill="#9A9DA5" fill-opacity="0.996"/>
<path d="M419.255 138.288L409.835 138.908L400.648 139.218L391.683 139.207L382.95 138.886L382.052 138.798L380.578 138.443L379.148 137.867L419.255 138.288Z" fill="#9A9DA5" fill-opacity="0.996"/>
<path d="M107.067 138.33L101.16 138.862L95.2417 139.139L85.5336 139.028L75.8145 138.209L90.6648 137.799L105.46 138.231L107.067 138.33Z" fill="#9A9DA5" fill-opacity="0.996"/>
<path d="M66.6947 138.131L61.9515 138.939L57.5518 140.235L53.5178 142.018L49.8274 144.3L46.9017 146.681L44.2419 149.45L41.8482 152.584L39.7314 156.095L40.1415 154.633L42.5685 150.823L45.2837 147.512L48.2981 144.699L51.6228 142.384L54.9918 140.667L58.6378 139.382L62.5388 138.541L66.6947 138.131Z" fill="#9A9DA5" fill-opacity="0.996"/>
<path d="M136.202 138.363L134.451 140.18L133.255 141.93L132.312 143.879L132.556 141.897L133.631 139.903L135.537 138.175L136.058 138.031L136.202 138.363Z" fill="#9A9DA5" fill-opacity="0.996"/>
<path d="M450.296 143.381L446.307 141.365L442.184 139.782L438.937 138.874L435.612 138.209L439.569 138.541L443.303 139.505L446.916 141.122L450.296 143.381Z" fill="#9A9DA5" fill-opacity="0.996"/>
<path d="M175.067 174.103L170.911 172.741L167.287 170.946L164.184 168.731L161.602 166.095L159.574 163.072L158.055 159.638L157.036 155.795L156.537 151.531L156.548 149.405L156.925 146.658L157.734 143.944L158.964 141.253L160.615 138.584L158.92 142.217L157.767 145.816L157.191 149.371L157.158 152.893L157.546 155.74L158.31 158.553L159.895 162.23L162.001 165.486L164.539 168.222L167.553 170.559L171.066 172.53L175.067 174.103Z" fill="#9A9DA5" fill-opacity="0.996"/>
<path d="M261.322 163.728L261.444 153.904L261.122 144.324L260.878 142.74L259.659 140.015L259.46 139.639L260.612 141.012L261.455 142.74L262.009 144.811L262.264 147.236L262.419 154.635L262.297 161.214L262.219 161.812L261.577 163.274L261.322 163.728Z" fill="#9A9DA5" fill-opacity="0.996"/>
<path d="M328.136 171.966L330.474 167.624L332.292 163.471L333.588 159.506L334.353 155.729L336.547 140.877L336.015 148.453L334.697 156.959L333.655 161.223L332.214 165.143L330.374 168.732L328.136 171.966Z" fill="#9A9DA5" fill-opacity="0.996"/>
<path d="M345.934 143.359L345.025 154.047L344.527 157.857L344.061 163.173L343.962 168.545L343.552 209.723L343.175 211.894L343.186 212.913L343.696 213.987L344.737 214.951H343.829L343.186 214.652L342.842 214.109L342.731 213.323L342.51 165.244L342.731 162.365L343.452 158.787L344.682 152.386L345.934 143.359Z" fill="#9A9DA5" fill-opacity="0.996"/>
<path d="M461.69 156.35L457.966 151.045L454.708 147.301L451.084 143.846L454.985 146.936L458.31 150.535L461.114 154.689L461.357 155.187L461.69 156.35Z" fill="#9A9DA5" fill-opacity="0.996"/>
<path d="M187.015 148.996L185.275 146.936L183.214 145.641L181.075 145.142L178.67 145.286L179.889 144.976L181.152 144.898L182.405 145.054L183.59 145.452L184.688 146.072L185.652 146.892L186.439 147.878L187.015 148.996Z" fill="#9A9DA5" fill-opacity="0.996"/>
<path d="M213.08 144.844L214.532 145.641L216.227 146.25L216.671 146.45L217.07 146.837L218.61 149.484L218.954 150.647L219.009 151.699L218.477 153.97L217.369 155.664L216.383 156.418L215.164 156.949L213.922 157.226L212.703 157.259L211.107 156.938L209.534 156.196L208.437 155.343L207.639 154.324L207.085 152.884L206.94 151.212L207.217 149.285L207.916 147.114L208.98 146.14L210.232 145.42L211.628 144.977L213.08 144.844Z" fill="#16335D"/>
<path d="M207.917 147.114L207.219 149.285L206.942 151.212L207.086 152.884L207.64 154.324L208.438 155.343L209.535 156.196L211.108 156.938L212.704 157.259L213.923 157.226L215.165 156.949L216.384 156.418L217.37 155.664L218.478 153.97L219.01 151.699L218.955 150.647L218.611 149.484L217.071 146.837L216.672 146.45L216.229 146.25L214.533 145.641L213.081 144.844L214.411 144.988L215.685 145.386L216.849 146.029L217.858 146.871L218.678 147.901L219.265 149.052L219.609 150.304L219.686 151.6L219.32 153.438L218.711 154.679L217.847 155.775L216.76 156.661L215.497 157.304L214.134 157.669L212.704 157.758L211.297 157.547L209.967 157.049L208.892 156.373L207.961 155.509L207.219 154.502L206.687 153.372L206.332 151.223L206.753 149.041L207.917 147.114Z" fill="#9A9DA5" fill-opacity="0.996"/>
<path d="M178.67 145.285L181.075 145.141L183.214 145.639L185.275 146.935L187.015 148.995L187.392 150.346L187.48 151.742L187.27 153.137L186.771 154.444L184.521 156.515L183.546 157.091L182.682 157.357L179.911 157.368L178.703 157.069L177.628 156.559L176.509 155.696L175.556 154.544L175.268 154.045L174.858 152.772L174.791 151.332L175.356 147.954L176.786 146.337L178.67 145.285Z" fill="#16335D"/>
<path d="M166.491 146.018L166.269 148L166.203 152.308L166.713 156.661L165.726 153.793L165.416 150.935L165.704 148.476L166.491 146.018Z" fill="#9A9DA5" fill-opacity="0.996"/>
<path d="M121.163 151.001L122.615 146.615L122.848 149.495L122.637 150.381L122.194 150.901L121.163 151.001Z" fill="#9A9DA5" fill-opacity="0.996"/>
<path d="M186.77 154.445L186.028 155.586L185.064 156.561L183.922 157.303L182.648 157.801L181.307 158.023L179.944 157.956L178.614 157.613L177.395 157.015L176.896 156.66L176.009 155.83L175.289 154.866L174.757 153.77L174.436 152.607L174.336 151.4L174.469 150.192L174.801 149.029L175.355 147.955L174.79 151.333L174.857 152.773L175.267 154.047L175.555 154.545L176.508 155.697L177.627 156.561L178.702 157.07L179.91 157.369L182.681 157.358L183.545 157.092L184.521 156.516L186.77 154.445Z" fill="#9A9DA5" fill-opacity="0.996"/>
<path d="M451.238 224.707V225.538V285.622L451.138 286.453L451.116 286.464L451.349 301.216L451.205 315.958L450.518 333.822L450.252 307.861L450.351 277.083L450.429 240.667L450.141 192.633L450.44 169.928L450.307 166.705L449.764 163.759L448.822 161.09L447.481 158.709L445.22 156.106L442.317 153.946L438.782 152.218L434.604 150.934L438.017 151.709L441.031 152.861L443.658 154.389L445.874 156.305L447.537 158.354L448.878 160.702L449.886 163.371L450.584 166.34L451.083 172.509L451.238 183.218L451.227 203.963L451.238 224.707Z" fill="#9A9DA5" fill-opacity="0.996"/>
<path d="M64.6105 151.232L61.3634 152.418L58.5485 153.913L56.1436 155.74L54.1599 157.889L52.2538 161.056L51.5112 163.249L50.9904 166.14L50.6801 169.739L50.5803 174.048L50.6025 275.809L50.3033 377.548L50.3919 380.029L50.7244 381.956L51.3229 383.44L52.2538 384.625L53.0849 385.223L54.1156 385.644L56.5648 385.965L155.452 386.076L156.305 386.364L156.804 387.095L156.815 387.15L157.236 389.886L156.959 392.81L156.073 387.748L155.873 387.338L155.463 387.128L152.682 386.752L149.922 386.763L144.403 387.172L61.5629 387.183L58.7037 386.973L54.9246 386.308L53.8939 386.109L52.1318 385.389L51.1233 384.448L50.5138 383.396L50.0705 382L49.727 378.146L49.7824 224.474L49.7713 203.985L49.6494 186.674L49.8821 169.64L50.2035 166.04L50.9682 162.817L52.1873 159.949L53.8496 157.457L55.8998 155.375L58.3823 153.647L61.2858 152.262L64.6105 151.232Z" fill="#9A9DA5" fill-opacity="0.996"/>
<path d="M223.01 162.155L228.063 154.137L227.72 156.042L227.055 157.781L225.415 160.162L223.01 162.155Z" fill="#9A9DA5" fill-opacity="0.996"/>
<path d="M39.7305 156.096L38.2455 161.467L37.8465 164.07L37.6913 166.606L37.4586 172.62L36.9488 177.715L36.7383 172.642L36.8048 166.363L37.0153 163.793L37.4919 161.379L38.2233 159.097L39.2207 156.96L39.7305 156.096Z" fill="#9A9DA5" fill-opacity="0.996"/>
<path d="M463.231 397.641L463.342 215.893L463.353 167.715L462.932 162.332L461.69 156.352L462.666 158.799L463.375 161.18L463.807 163.506L463.962 165.755L464.195 197.065L464.428 313.9L464.395 358.212L464.45 387.009L464.472 392.159L464.129 397.353L464.018 397.619L463.519 397.907L463.231 397.641Z" fill="#9A9DA5" fill-opacity="0.996"/>
<path d="M178.194 165.367L176.321 165.101L174.592 164.647L173.007 163.982L171.555 163.118L170.225 162.033L169.051 160.748L168.009 159.253L167.111 157.559L169.383 160.405L172.054 162.664L174.947 164.27L178.194 165.367Z" fill="#9A9DA5" fill-opacity="0.996"/>
<path d="M130.13 376.574H60.378L59.8128 376.342L59.5801 375.777V169.364L59.9126 166.617L60.8878 164.258L62.262 162.541L64.1349 161.113L65.4094 160.614L67.3155 160.271L73.0229 160.061L97.6256 160.304L121.818 160.282L122.328 160.448L122.627 160.891L123.636 163.882L124.91 166.617L126.462 169.098L128.29 171.324L130.196 173.152L132.335 174.758L134.696 176.153L137.289 177.338L137.821 177.781L138.01 178.446L137.954 183.995L138.287 188.126L139.073 191.736L140.37 194.992L142.032 197.728L144.105 200.198L146.244 202.214L148.493 203.952L150.865 205.392L153.347 206.566L156.561 207.607L159.952 208.228L165.859 208.516L177.252 208.66L177.474 208.726L177.584 208.948L178.737 216.922V216.933L178.526 217.165L162.845 217.243L147.851 217.066L143.44 217.077L139.749 217.309L136.779 217.764L134.541 218.439L132.025 219.735L129.842 221.385L127.858 223.545L126.251 226.126L125.01 229.116L124.146 232.516L123.813 233.081L123.204 233.291L119.635 233.48L116.377 234.1L113.407 235.163L110.747 236.658L108.519 238.452L106.569 240.634L104.862 243.204L103.433 246.15L103.056 247.49L102.801 249.45L102.602 255.254L102.923 336.714L103.1 341.886L103.555 345.364L104.175 347.512L105.029 349.594L107.478 353.803L110.924 358.067L115.712 362.796L130.086 376.087L130.274 376.353L130.285 376.386L130.13 376.574Z" fill="#52B9F9"/>
<path d="M296.773 161.546L291.188 160.704L292.185 160.316L293.238 160.217L294.357 160.383L296.773 161.546Z" fill="#9A9DA5" fill-opacity="0.996"/>
<path d="M289.094 165.532L290.468 167.691L291.964 169.441L293.56 170.781L295.267 171.723L296.375 172.144L299.489 172.908L302.78 173.14L306.26 172.841L309.917 172.011L311.713 171.357L313.275 170.527L314.616 169.519L315.725 168.334L316.666 166.85L317.32 164.923L317.198 163.25L316.777 162.419L316.101 161.666L314.982 161.002L314.029 160.847L313.031 160.957L310.25 162.01L310.061 162.098L307.258 163.062L304.443 163.427L302.592 163.35L300.741 163.029L298.879 162.442L297.018 161.611L300.154 161.987L303.246 162.076L306.271 161.899L309.252 161.445L313.297 160.348L314.384 160.326L316.378 161.356L317.132 162.143L317.631 163.051L317.919 164.38L317.753 165.786L317.143 167.215L316.09 168.577L313.73 170.77L311.99 171.845L309.408 172.653L306.837 173.196L304.276 173.462H301.739L299.156 173.185L296.585 172.62L294.125 171.656L292.086 170.228L290.346 168.145L289.094 165.532Z" fill="#9A9DA5" fill-opacity="0.996"/>
<path d="M440.467 376.553H397.402L396.87 376.331L396.648 375.81L396.659 260.449L396.559 255.265L396.249 250.824L395.75 247.103L395.041 244.124L393.711 240.347L392.093 236.803L390.187 233.491L387.982 230.39L385.854 227.898L383.504 225.572L381.199 223.623L378.783 221.906L376.279 220.411L373.674 219.137L370.893 218.063L368.011 217.221L365.008 216.623L361.916 216.258L361.351 215.981L361.118 215.394V160.77L361.24 160.404L361.628 160.271L431.701 160.371L433.674 160.493L435.403 160.881L436.899 161.523L438.173 162.42L439.237 163.638L440.057 165.134L440.545 166.784L440.855 168.999L440.988 175.29L440.966 176.851L441.088 375.932L440.911 376.375L440.467 376.553Z" fill="#52B9F9"/>
<path d="M291.188 160.703L296.774 161.545L296.763 161.434L297.018 161.611L298.879 162.442L300.741 163.029L302.592 163.35L304.443 163.428L307.258 163.062L310.061 162.099L310.25 162.01L313.031 160.958L314.029 160.847L314.982 161.002L316.101 161.667L316.777 162.42L317.198 163.25L317.32 164.923L316.666 166.85L315.725 168.334L314.616 169.519L313.275 170.527L311.713 171.358L309.917 172.011L306.26 172.842L302.78 173.141L299.489 172.908L296.375 172.144L295.267 171.723L293.56 170.782L291.964 169.442L290.468 167.692L289.094 165.532L289.271 163.793L289.858 162.276L291.188 160.703Z" fill="#16335D"/>
<path d="M223.01 162.154V162.221L222.833 162.675L222.367 163.118L220.561 164.17L218.655 164.912L216.316 165.388L223.01 162.154Z" fill="#9A9DA5" fill-opacity="0.996"/>
<path d="M147.252 165.154L147.408 174.081L147.297 180.726L147.33 183.672L147.707 186.452L148.416 189.044L149.458 191.47L151.187 194.194L149.657 192.544L148.46 190.705L147.352 187.815L146.92 184.57L146.854 175.842L147.252 165.154Z" fill="#9A9DA5" fill-opacity="0.996"/>
<path d="M263.593 177.117L263.438 176.784L262.33 175.356L262.951 174.99H263.394L263.704 175.655L263.593 177.117Z" fill="#9A9DA5" fill-opacity="0.996"/>
<path d="M262.208 175.5L259.959 176.574L257.443 177.228L256.734 177.615L256.412 178.346L256.013 182.909L255.869 177.859L256.002 177.372L256.434 177.095L262.208 175.5Z" fill="#9A9DA5" fill-opacity="0.996"/>
<path d="M320.356 179.939L317.009 182.343L313.407 184.026L310.581 184.813L307.622 185.211L309.539 184.669L315.047 182.631L320.356 179.939Z" fill="#9A9DA5" fill-opacity="0.996"/>
<path d="M333.401 182.909L332.625 181.79L332.847 181.259L332.891 181.236L333.223 181.203L333.478 181.436L333.567 181.746L333.401 182.909Z" fill="#9A9DA5" fill-opacity="0.996"/>
<path d="M331.915 182.322L331.295 183.496L330.463 184.449L329.045 185.423L329.854 184.105L330.885 183.031L331.915 182.322Z" fill="#9A9DA5" fill-opacity="0.996"/>
<path d="M299.434 185.092L298.037 185.236L296.73 185.059L295.001 184.217L299.434 185.092Z" fill="#9A9DA5" fill-opacity="0.996"/>
<path d="M279.762 200.42L280.615 198.449L281.225 196.478L281.59 194.495L281.723 192.524L281.59 190.419L281.479 189.943L280.925 189.013L279.928 188.226L277.955 186.709L277.058 185.668L281.59 188.703L281.956 189.079L282.111 189.578V193.122L281.679 196.433L280.903 198.859L279.762 200.42Z" fill="#9A9DA5" fill-opacity="0.996"/>
<path d="M326.353 187.395L326.042 196.731L325.278 193.785L325.045 191.282L325.366 189.2L326.231 187.539L326.353 187.395Z" fill="#9A9DA5" fill-opacity="0.996"/>
<path d="M37.1057 188.99L37.826 198.892L37.7485 208.749L37.0614 217.122L36.6846 203.111L37.1057 188.99Z" fill="#9A9DA5" fill-opacity="0.996"/>
<path d="M315.504 192.922L312.955 193.919L311.725 194.085L310.528 194.029L310.417 194.007L315.504 192.922Z" fill="#9A9DA5" fill-opacity="0.996"/>
<path d="M297.04 194.063L296.342 194.174L294.724 194.041L293.062 193.398L294.868 193.443L297.04 194.063Z" fill="#9A9DA5" fill-opacity="0.996"/>
<path d="M291.577 194.229V195.945L291.333 197.363L290.846 198.769L290.901 196.964L291.577 194.229Z" fill="#9A9DA5" fill-opacity="0.996"/>
<path d="M314.871 218.306L316.267 216.91L318.994 214.009L319.814 212.79L320.257 211.738L320.324 211.251L320.168 210.697L319.293 208.936L317.642 205.503L316.655 203L316.09 200.729L315.902 198.625L315.979 197.107L316.955 201.704L318.55 206.012L320.833 210.088L321.088 210.863L320.922 211.661L319.803 213.51L318.495 215.183L316.799 216.855L314.871 218.306Z" fill="#9A9DA5" fill-opacity="0.996"/>
<path d="M326.309 199.08L327.339 201.716L328.747 204.086L330.941 206.589L333.689 208.705L333.911 209.624L333.335 209.458L332.127 208.55L329.534 205.914L327.627 202.923L326.852 201.063L326.309 199.08Z" fill="#9A9DA5" fill-opacity="0.996"/>
<path d="M290.467 200.375L290.035 202.546L289.181 204.484L287.663 206.466L290.467 200.375Z" fill="#9A9DA5" fill-opacity="0.996"/>
<path d="M216.67 208.461L232.872 208.184L234.79 207.974L236.729 207.497L238.702 206.766L240.697 205.77L245.85 202.901L246.171 202.846L246.271 203.156L245.972 216.313L245.706 216.923L245.107 217.166H216.382L215.905 217.011L215.739 216.524V209.391L216.016 208.738L216.67 208.461Z" fill="#52B9F9"/>
<path d="M273.191 204.508L273.502 205.593L273.291 206.169L272.792 206.712L272.56 206.136L272.659 205.35L273.191 204.508Z" fill="#9A9DA5" fill-opacity="0.996"/>
<path d="M276.691 205.303L275.805 206.864L274.298 208.67L273.788 209.079L273.378 209.157L273.001 208.769L276.691 205.303Z" fill="#9A9DA5" fill-opacity="0.996"/>
<path d="M287.665 206.467L286.336 208.903L285.205 210.1L286.424 207.774L287.665 206.467Z" fill="#9A9DA5" fill-opacity="0.996"/>
<path d="M203.028 218.196L205.267 215.626L206.707 212.769L207.317 209.9V209.845L207.04 209.103L206.308 208.793L188.732 208.616L187.479 208.749L186.416 209.192L185.928 209.557L185.662 209.424L185.54 208.782L185.817 208.228L186.382 208.051H207.029L207.793 208.394L208.048 209.192L208.026 209.302L206.419 214.729L205.3 216.69L203.804 217.897L203.028 218.196Z" fill="#9A9DA5" fill-opacity="0.996"/>
<path d="M186.206 210.674L187.913 214.273L190.561 218.094L193.93 221.506L190.982 219.39L189.497 217.873L188.201 216.134L187.093 214.196L186.173 212.047L186.018 211.316L186.162 210.751L186.206 210.674Z" fill="#9A9DA5" fill-opacity="0.996"/>
<path d="M302.57 224.377L299.312 224.001L296.419 222.926L295.012 222.073L293.593 221.01L291.344 219.072L289.26 216.912L287.343 214.542L285.592 211.973L287.919 214.719L290.368 217.245L292.961 219.57L295.688 221.686L297.527 222.827L299.456 223.668L302.57 224.377Z" fill="#9A9DA5" fill-opacity="0.996"/>
<path d="M257.787 216.08L259.693 215.493L261.522 215.26L262.364 214.961L263.683 214.086L263.45 214.784L262.73 215.504L261.544 215.958L259.893 216.157L257.787 216.08Z" fill="#9A9DA5" fill-opacity="0.996"/>
<path d="M365.618 272.476L365.441 272.487L363.59 272.753L362.249 273.539L361.352 275.001L361.052 277.083L361.097 375.954L360.919 376.397L360.476 376.574H343.897H343.864L343.498 376.385L343.387 375.987L352.94 300.297L353.139 297.141L352.94 294.261L352.319 291.747L351.322 289.598L349.383 286.929L347.066 284.77L345.027 283.463L342.766 282.455L340.949 281.956L338.6 281.613L332.272 281.336L291.223 281.502L290.724 281.292L290.513 280.782L290.624 257.236L290.591 253.349L290.325 250.026L289.849 247.257L289.15 245.053L287.144 241.376L285.903 239.803L284.507 238.408L282.257 236.724L279.708 235.395L276.838 234.421L273.657 233.789L272.516 233.734L270.133 233.524L269.701 233.258L269.535 232.781L268.737 228.041L268.083 226.003L267.263 224.176L267.196 223.821L267.429 223.578L277.392 217.83L277.957 217.708L278.4 218.04L282.357 222.858L286.734 227.055L290.192 229.581L293.772 231.441L297.562 232.682L301.385 233.269H304.411L307.403 232.881L310.351 232.117L313.221 230.976L315.992 229.481L318.651 227.642L321.156 225.461L323.505 222.946L327.606 217.974L328.304 217.586L329.069 217.774L332.992 220.277L337.015 222.304L341.126 223.832L345.338 224.885L345.781 224.962L349.482 225.35L355.289 225.483L361.141 225.627L364.798 226.036L369.43 227.332L373.609 229.381L376.224 231.22L378.629 233.413L380.812 235.949L382.774 238.851L384.502 242.063L385.854 245.308L386.83 248.608L387.428 251.953L387.65 256.04L387.539 343.58L387.395 343.923L387.051 344.067H370.672L370.228 343.89L370.051 343.447L370.029 276.806L369.741 274.824L368.887 273.439L367.513 272.675L365.618 272.476Z" fill="#52B9F9"/>
<path d="M314.872 218.307L313.487 219.99L311.88 221.363L310.273 222.316L308.478 223.025L314.872 218.307Z" fill="#9A9DA5" fill-opacity="0.996"/>
<path d="M170.636 226.315L164.208 226.525L163.765 226.226L163.853 225.828L163.975 225.706L164.208 225.65L170.636 226.315Z" fill="#9A9DA5" fill-opacity="0.996"/>
<path d="M186.038 227.166L185.063 226.945L184.276 226.48L183.767 225.915L184.398 225.693L185.218 226.059L186.038 227.166Z" fill="#9A9DA5" fill-opacity="0.996"/>
<path d="M213.325 226.249L207.994 226.559L208.371 226.116L209.202 225.673L210.299 225.551L211.673 225.739L213.325 226.249Z" fill="#9A9DA5" fill-opacity="0.996"/>
<path d="M155.551 230.912L154.52 229.583L153.878 228.176L153.091 227.013L151.772 226.504L147.173 226.315L142.153 226.415L139.105 226.825L136.922 227.755L135.47 229.118L134.572 230.945L134.251 233.215L134.173 318.23L133.996 327.312L134.051 333.193L134.45 339.019L133.841 336.682L133.619 333.016L133.52 278.315L133.719 233.393L133.841 231.842L134.151 230.469L134.672 229.284L135.392 228.276L136.456 227.345L137.786 226.648L139.371 226.194L141.222 225.961L147.073 225.828L152.659 226.105L153.157 226.26L153.545 226.603L155.052 229.35L155.551 230.912Z" fill="#9A9DA5" fill-opacity="0.996"/>
<path d="M228.119 226.792L226.068 226.404L226.877 225.972L227.62 225.928L228.318 226.282L228.418 226.437L228.373 226.625L228.351 226.648L228.119 226.792Z" fill="#9A9DA5" fill-opacity="0.996"/>
<path d="M240.255 226.468L239.723 226.734L238.903 227.487L238.293 228.595L234.315 238.031L228.851 249.937L227.134 254.112L225.693 256.948L224.917 258.1L224.086 258.963L223.155 259.429L221.914 259.44L220.517 258.886L218.445 257.557L216.694 256.161L215.276 254.688L214.189 253.149L218.667 257.036L220.362 258.354L221.814 258.853L223.089 258.687L224.33 257.856L225.316 256.327L238.382 227.465L239.069 226.612L239.645 226.424L240.255 226.468Z" fill="#9A9DA5" fill-opacity="0.996"/>
<path d="M260.058 233.17L259.238 230.911L257.997 228.851L256.356 226.99L258.13 228.098L259.338 229.527L259.958 231.199L260.058 233.17Z" fill="#9A9DA5" fill-opacity="0.996"/>
<path d="M164.351 227.201L171.609 243.327L171.355 243.305L171.066 242.995L163.963 227.799L163.907 227.312L164.351 227.201Z" fill="#9A9DA5" fill-opacity="0.996"/>
<path d="M188.566 231.286L188.588 230.444L188.3 229.392L187.635 228.373L188.632 228.539L189.231 229.226L189.452 229.946L189.386 230.544L188.566 231.286Z" fill="#9A9DA5" fill-opacity="0.996"/>
<path d="M204.435 229.271L218.233 244.157L205.145 231.077L204.236 230.002L204.092 229.404L204.435 229.271Z" fill="#9A9DA5" fill-opacity="0.996"/>
<path d="M183.701 249.818L182.903 249.519L182.659 249.707L178.947 254.237L175.279 257.97L173.251 259.41L171.355 259.908L170.269 259.797L169.294 259.454L168.086 258.535L167.133 257.117L161.47 245.023L155.763 231.422L155.984 231.355L156.295 231.71L162.678 246.263L167.377 256.054L168.64 258.036L169.915 259.155L171.378 259.565L172.918 259.144L174.47 257.881L183.945 247.736L184.333 247.537L184.543 247.924L184.399 248.766L183.701 249.818Z" fill="#9A9DA5" fill-opacity="0.996"/>
<path d="M226.6 231.32L226.367 232.937L225.68 234.178L225.226 234.621L226.101 232.173L226.6 231.32Z" fill="#9A9DA5" fill-opacity="0.996"/>
<path d="M185.785 234.035L174.049 245.687L173.573 246.041L173.107 246.207H172.254L172.542 245.698L177.695 241.035L182.627 236.095L183.691 235.143L184.866 234.423L185.785 234.035Z" fill="#9A9DA5" fill-opacity="0.996"/>
<path d="M203.682 281.415H189.962L189.053 281.083L188.654 280.507L188.565 279.82L194.284 237.545L194.494 236.969L194.927 236.537L195.503 236.338L196.112 236.393L198.085 237.047L198.728 237.468L199.038 238.176L205.078 279.809L205.034 280.407L204.746 280.928L204.269 281.293L203.682 281.415Z" fill="#52B9F9"/>
<path d="M280.571 248.411L278.742 245.997L277.689 245.144L276.526 244.513L275.296 244.125L273.955 243.959L270.996 244.313L270.608 244.568L270.453 245V280.165L270.597 280.585L271.007 280.718L281.302 280.74L281.391 281.051L281.258 281.294L280.97 281.327L271.151 281.638L270.563 281.538L270.054 281.217L269.71 280.729L269.577 280.142V280.12V243.76L269.71 243.416L270.031 243.239L272.414 243.084L274.52 243.272L276.36 243.826L277.922 244.745L279.451 246.318L280.571 248.411Z" fill="#9A9DA5" fill-opacity="0.996"/>
<path d="M220.649 245.451L220.782 245.473V245.484L220.816 245.662L220.771 245.772L220.572 245.983L220.494 245.717L220.649 245.451Z" fill="#9A9DA5" fill-opacity="0.996"/>
<path d="M209.679 249.65L210.51 252.452L210.599 255.664L209.723 252.652L209.668 249.739L209.679 249.65Z" fill="#9A9DA5" fill-opacity="0.996"/>
<path d="M183.768 250.137L184.079 250.513L184.123 251.034L184.001 251.732L182.394 261.688L181.02 271.678L180.876 272.553L180.311 274.536L183.192 250.779L183.314 250.436L183.768 250.137Z" fill="#9A9DA5" fill-opacity="0.996"/>
<path d="M123.304 327.897L123.492 327.631L123.869 326.779L124.024 325.771L124.146 324.198L124.467 255.984L124.811 326.889L124.545 327.731L123.858 328.263L123.337 328.285L123.304 327.897Z" fill="#9A9DA5" fill-opacity="0.996"/>
<path d="M211.519 261.025L211.574 261.236L212.605 265.278L213.347 269.398L213.824 273.607L214.034 277.882L211.519 261.025Z" fill="#9A9DA5" fill-opacity="0.996"/>
<path d="M180.31 274.535L179.912 280.139L179.767 280.804L179.446 281.269L178.947 281.535L178.282 281.601L164.629 281.358L160.551 281.745L158.456 282.266L156.395 283.008L152.405 285.156L154.5 283.252L156.672 282.133L160.717 281.136L164.939 280.704L171.766 280.593L178.471 280.726H178.548L179.368 280.339L179.657 279.475L179.634 279.242L179.712 276.905L180.31 274.535Z" fill="#9A9DA5" fill-opacity="0.996"/>
<path d="M260.768 280.662L260.757 280.252L260.956 280.186L260.99 280.23L261.012 280.629L260.901 280.728L260.89 280.739L260.768 280.662Z" fill="#9A9DA5" fill-opacity="0.996"/>
<path d="M451.116 286.467L451.138 286.456L451.238 285.625L451.127 286.467H451.116Z" fill="#16335D"/>
<path d="M148.438 289.898L147.695 292.612L147.219 295.359L146.997 299.401L147.341 303.521L148.194 309.136L152.793 350.171L152.782 351.002L152.494 351.511L152.283 351.633L151.907 346.394L151.297 341.222L149.901 330.866L146.587 300.066L146.487 296.245L147.197 292.701L148.438 289.898Z" fill="#9A9DA5" fill-opacity="0.996"/>
<path d="M160.595 291.205L158.501 292.889L157.104 294.915L156.406 297.452L156.506 300.364L157.171 305.304L157.581 310.299L156.639 305.802L156.428 303.875L155.996 297.385L156.351 295.159L157.271 293.376L158.678 292.091L160.595 291.205Z" fill="#9A9DA5" fill-opacity="0.996"/>
<path d="M343.164 294.87L339.241 291.326L341.303 292.445L342.344 293.519L343.164 294.87Z" fill="#9A9DA5" fill-opacity="0.996"/>
<path d="M329.367 397.795L331.007 396.699L331.34 396.322L331.44 395.813L331.717 390.907L342.622 305.892L343.508 298.659L343.564 297.042L343.353 295.314L343.475 295.458L344.029 296.743L344.073 298.405L340.671 326.27L338 347.004L331.661 397.076L331.473 397.563L331.052 397.84L330.309 397.95L329.367 397.795Z" fill="#9A9DA5" fill-opacity="0.996"/>
<path d="M233.261 343.593L233.704 347.624L234.657 351.179L236.109 354.247L238.081 356.828L240.841 359.109L244.21 360.804L247.113 361.635L249.984 361.901L252.377 361.723L254.716 361.192L257.121 360.261L259.459 358.977L261.653 357.249L263.316 355.277L264.634 352.963L265.488 350.847L266.075 348.809L266.386 346.827L266.43 344.911L266.186 342.53L265.687 340.314L264.923 338.265L263.892 336.383L262.573 334.633L260.988 333.06L259.127 331.665L256.988 330.435L253.996 329.25L250.959 328.674L248.576 328.652L246.149 328.984L243.7 329.682L241.218 330.745L243.279 329.638L245.473 328.84L247.756 328.342L250.083 328.176L253.874 328.619L257.475 329.904L259.193 330.878L260.789 332.052L262.241 333.414L263.537 334.932L264.634 336.593L265.543 338.365L266.253 340.237L266.729 342.186L267.028 345.852L266.552 349.507L265.322 352.963L263.393 356.086L260.734 358.833L257.531 360.904L253.962 362.199L250.194 362.654L248.122 362.532L246.083 362.155L244.099 361.524L242.204 360.66L240.198 359.397L238.392 357.858L236.807 356.086L235.477 354.103L234.435 351.955L233.693 349.673L233.272 347.314L233.172 344.922L233.261 343.593Z" fill="#9A9DA5" fill-opacity="0.996"/>
<path d="M233.261 343.593L233.804 340.725L234.812 338L235.488 337.424L235.898 336.76L236.054 335.785L238.37 332.983L241.218 330.746L243.7 329.682L246.149 328.985L248.576 328.652L250.959 328.675L253.996 329.25L256.988 330.435L259.127 331.665L260.989 333.06L262.573 334.633L263.892 336.383L264.923 338.266L265.688 340.315L266.186 342.53L266.43 344.911L266.386 346.827L266.075 348.81L265.488 350.847L264.635 352.963L263.316 355.278L261.654 357.249L259.459 358.977L257.121 360.262L254.716 361.192L252.378 361.724L249.984 361.901L247.114 361.635L244.21 360.804L240.841 359.11L238.082 356.828L236.109 354.248L234.657 351.18L233.704 347.625L233.261 343.593ZM251.863 353.168L253.296 352.671L254.602 351.886L255.732 350.846L256.641 349.589L257.294 348.163L257.667 346.624L257.746 345.031L257.526 343.445L257.017 341.926L256.238 340.534L255.219 339.321L254 338.335L252.626 337.613L251.152 337.183L249.633 337.061L248.127 337.252L246.694 337.75L245.388 338.534L244.258 339.574L243.349 340.831L242.696 342.257L242.323 343.796L242.244 345.389L242.464 346.975L242.973 348.494L243.752 349.886L244.771 351.099L245.99 352.085L247.364 352.807L248.838 353.238L250.358 353.359L251.863 353.168Z" fill="#16335D"/>
<path d="M160.04 332.053L162.002 349.231L161.215 345.111L160.384 338.62L160.04 332.053Z" fill="#9A9DA5" fill-opacity="0.996"/>
<path d="M236.054 335.783L235.899 336.758L235.489 337.422L234.812 337.998L236.054 335.783Z" fill="#9A9DA5" fill-opacity="0.996"/>
<path d="M242.465 346.973C243.496 351.368 247.704 354.14 251.863 353.165C256.023 352.19 258.558 347.837 257.527 343.442C256.495 339.047 252.287 336.275 248.128 337.25C243.969 338.225 241.433 342.578 242.465 346.973Z" fill="#52B9F9"/>
<path d="M140.834 358.788L132.046 350.149L126.416 344.346L124.843 342.042L123.756 339.063L123.502 338.664L123.047 338.509L112.175 338.542L111.898 338.033L112.453 337.679L113.926 337.523L123.69 337.579L124.499 337.933L124.843 338.753L125.175 340.868L125.873 342.397L126.97 343.803L140.834 358.788Z" fill="#9A9DA5" fill-opacity="0.996"/>
<path d="M37.0498 340.988L37.4709 344.599L37.6261 350.823L37.0498 357.114V340.988Z" fill="#9A9DA5" fill-opacity="0.996"/>
<path d="M112.386 341.477L113.494 346.106L112.796 344.722L112.419 343.16L112.386 341.477Z" fill="#9A9DA5" fill-opacity="0.996"/>
<path d="M450.639 344.523L451.049 351.291L451.238 358.988L450.916 377.185L450.639 379.976L450.03 382.268L449.088 384.052L447.824 385.347L449.265 383.42L449.808 382.08L450.019 380.064L450.329 375.357L450.163 359.974L450.639 344.523Z" fill="#9A9DA5" fill-opacity="0.996"/>
<path d="M122.571 356.273L119.091 353.382L116.952 351.079L115.046 348.531L122.571 356.273Z" fill="#9A9DA5" fill-opacity="0.996"/>
<path d="M387.738 354.578L371.292 353.637L386.619 353.205L387.539 353.471L387.816 353.881L387.738 354.578Z" fill="#9A9DA5" fill-opacity="0.996"/>
<path d="M152.583 357.003L152.993 356.217L153.636 356.66L153.603 357.612L153.536 357.723L153.215 357.845L152.927 357.657L152.583 357.003Z" fill="#9A9DA5" fill-opacity="0.996"/>
<path d="M370.582 376.287L385.853 375.788L386.485 375.5L386.718 374.858V374.847L386.574 371.536L386.762 364.314L387.627 357.082L387.848 375.5V375.512L387.516 376.309L386.707 376.63L370.582 376.287Z" fill="#9A9DA5" fill-opacity="0.996"/>
<path d="M134.617 367.936L143.151 375.19L143.605 375.478L144.115 375.633L147.805 376.021L151.462 376.01L155.097 375.611L155.119 375.821L154.732 376.397L154.632 376.464L153.967 376.619L143.815 376.32L143.261 376.198L142.851 375.91L134.617 367.936Z" fill="#9A9DA5" fill-opacity="0.996"/>
<path d="M155.154 374.215L153.624 372.399L152.981 371.125L153.901 371.756L154.577 372.554L155.154 374.215Z" fill="#9A9DA5" fill-opacity="0.996"/>
<path d="M444.157 386.109L441.719 386.885L438.638 387.15L362.647 387.206H349.98L347.132 387.006L344.428 386.397L444.157 386.109Z" fill="#9A9DA5" fill-opacity="0.996"/>
<path d="M343.363 386.398L342.62 387.904L342.122 389.565L342.022 389.311L341.878 388.225L342.122 387.007L342.687 386.287L343.363 386.398Z" fill="#9A9DA5" fill-opacity="0.996"/>
<path d="M341.324 394.781L341.424 397.495L341.135 397.561L340.958 397.24V395.9L341.324 394.781Z" fill="#9A9DA5" fill-opacity="0.996"/>
<path d="M37.0276 395.812L38.0029 397.85L37.4045 397.828L37.0166 397.607L36.7949 396.931L37.0276 395.812Z" fill="#9A9DA5" fill-opacity="0.996"/>
<path d="M27.618 397.085L27.5294 397.904L26.9309 398.137L19.2287 398.159L9.67578 397.672L14.7293 397.096L21.1571 396.83L27.618 397.085Z" fill="#9A9DA5" fill-opacity="0.996"/>
<path d="M1.49608 398.527L0.975214 401.905L0.919816 405.261L1.28552 408.495L2.09454 411.707L3.32469 414.908L4.98703 418.075L7.99033 423.347L5.36383 419.67L3.2582 415.883L1.66234 411.995L0.609513 408.008L0.18838 405.283L0 402.514L0.0886435 401.274L0.432192 400.133L1.49608 398.527Z" fill="#9A9DA5" fill-opacity="0.996"/>
<path d="M288.164 398.16L284.33 403.93L283.177 405.071L281.215 406.046L278.777 406.378L240.433 406.456L219.476 406.289L219.299 406.278L218.368 406.068L217.47 405.592L215.719 403.798L211.508 398.326L212.14 398.227L212.638 398.36L213.015 398.736L216.362 403.897L217.16 404.695L218.379 405.304L219.875 405.536L248.7 405.88L279.609 405.581L280.107 405.547L282.058 405.005L282.944 404.385L283.742 403.321L285.826 400.397L288.164 398.16Z" fill="#9A9DA5" fill-opacity="0.996"/>
<path d="M499.878 403.578L499.812 405.073L499.091 409.891L497.606 414.687L495.401 419.239L492.564 423.425L489.062 427.279L485.05 430.624L480.606 433.404L475.807 435.531L472.937 436.384L469.601 437.048L465.822 437.491L461.589 437.746L451.116 437.967L440.621 437.923L450.241 437.901L459.838 437.602L464.437 437.281L468.548 436.738L472.184 435.985L475.32 435.032L479.221 433.382L482.811 431.4L486.07 429.107L488.995 426.482L491.012 424.267L492.841 421.875L494.481 419.294L495.933 416.525L497.207 413.568L498.282 410.423L499.169 407.089L499.878 403.578Z" fill="#9A9DA5" fill-opacity="0.996"/>
<path d="M206.265 408.492L203.971 408.105L153.923 408.16L58.3382 408.138L13.6323 408.116L11.7593 408.304L10.9947 408.481L10.8838 408.271L10.8506 408.116L10.9282 407.75L11.2717 407.573L16.1923 407.252L105.061 407.396L201.111 407.296L205.954 407.496L206.32 407.706L206.265 408.492Z" fill="#9A9DA5" fill-opacity="0.996"/>
<path d="M11.8252 410.809L13.8422 414.685L16.1805 418.063L18.8625 420.943L21.8879 423.324L25.4232 425.295L29.3463 426.702L33.6351 427.555L38.2897 427.854L116.83 427.987L209.7 427.843L218.654 427.964L230.013 428.097L445.01 427.82L457.943 427.809L465.623 427.499L468.527 427.112L470.81 426.591L471.774 426.281L474.755 425.074L477.614 423.512L480.363 421.629L483 419.392L484.784 417.476L486.081 415.693L487.178 413.744L488.087 411.639L488.796 409.369L488.818 409.258L488.586 408.472L487.843 408.128L465.933 408.018L444.046 408.217L313.131 408.184L295.388 408.25L294.501 408.405L293.57 408.837L291.609 410.565L292.628 408.915L293.947 407.84L295.033 407.442L296.252 407.32L342.499 407.342L460.281 407.486L474.622 407.32L488.951 407.109L489.383 407.187L490.048 407.774V408.449L488.996 411.595L487.034 415.183L484.651 418.329L482.036 421.053L479.199 423.368L476.151 425.251L472.926 426.691L469.48 427.721L465.823 428.352L461.944 428.563L372.21 428.751L289.049 428.673L132.212 428.928L44.0525 428.695L38.8992 428.551L34.5661 428.208L31.0308 427.665L28.3046 426.923L25.0686 425.517L22.3201 423.911L19.749 421.984L17.322 419.746L15.0723 417.188L12.9334 413.943L12.2463 412.359L11.8252 410.809Z" fill="#9A9DA5" fill-opacity="0.996"/>
<path d="M289.915 412.236L287.975 414.119L285.781 415.282L283.321 415.714L280.605 415.404L282.955 415.193L285.205 414.662L287.632 413.665L289.915 412.236Z" fill="#9A9DA5" fill-opacity="0.996"/>
<path d="M220.804 415.748L214.332 415.393L212.847 414.839L211.273 413.621L216.15 415.149L220.804 415.748Z" fill="#9A9DA5" fill-opacity="0.996"/>
<path d="M11.4703 426.912L10.7832 426.491L10.0629 425.783L9.50879 424.863L10.5505 425.428L11.0935 426.071L11.4703 426.912Z" fill="#9A9DA5" fill-opacity="0.996"/>
<path d="M62.3505 437.922L39.2439 438H36.3515L32.1624 437.734L28.0952 436.958L24.6486 435.851L21.3017 434.356L18.0546 432.451L14.9072 430.158L22.953 434.489L25.6238 435.629L28.8377 436.493L32.5946 437.058L36.9056 437.335L62.3505 437.922Z" fill="#9A9DA5" fill-opacity="0.996"/>
</svg>
