<svg width="452" height="340" viewBox="0 0 452 340" fill="none" xmlns="http://www.w3.org/2000/svg">
<rect width="451.17" height="339.49" fill="white"/>
<path d="M179.4 0.240021L181.35 1.32001L183.08 2.64001L183.97 3.5L184.12 3.65002L184.74 4.5L185.18 5.5L185.25 7.81L184.96 10.05L184.05 12.82L182.52 15.45L182.44 15.48L181.93 15.99L181.64 16.96L181.41 19.3L181.5 21.17L181.7 21.57L182.09 21.79L184.74 22.33L191.75 26.23L195.56 30.81L197.13 33.17L198.49 35.58L198.91 36.01L199.49 36.15L204.59 35.97L209.17 36.1L212.97 36.64L216.54 37.75L219.95 39.46L223.12 41.76L223.81 41.95L224.39 41.54L224.45 41.4L228.01 30.76L228.25 30.15L231.37 25.72L234.45 21.29L237.54 17.89L240.83 14.81L244.31 12.05L247.99 9.62003L252.75 7.07001L257.81 4.99002L263.15 3.40002L268.78 2.29001L269.67 2.04001L270.53 2.05002L270.74 2.09003L275.61 2.14001L280.47 2.45001L285.39 3.36002L290.1 4.66L294.59 6.36002L298.85 8.46002L302.7 10.81L306.35 13.52L309.8 16.59L313.06 20.01L315.57 23.31L317.98 26.68L318.23 26.86L318.61 27.36L318.84 28.01L323.12 37.85L323.99 40.46L325.12 50.05L325.8 59.7L326.04 69.42L325.82 79.2L325.87 79.85L326.1 80.19L326.83 80.1L392.16 80.3L395.93 81.46L399.12 83.02L401.74 84.97L403.78 87.32L404.99 89.47L405.84 91.88L406.33 94.54L406.45 97.45L406.18 117.95L406.44 161.32L406.37 194.2L406.28 221.99L406.52 245.43L406.63 255.09L406.2 269.04L406.35 282.93L406.07 287.18L405.88 289L405.39 290.21L404.09 291.95L402.21 292.65L400.78 292.64L310.79 292.9L310.7 292.85L309.83 292.9L309.22 292.8L308.71 293.45L308.49 294.55L308.62 295.53L308.71 295.76L307.99 300.47L307.66 301.48V302.69L307.82 302.98L308.08 302.92L308.23 303.03L309.05 303.29L319.75 303.5L321.72 303.45L334.38 303.15L384.05 303.5L400.4 303.37L409.17 303.61L412.79 303.59L417.99 303.05L418.25 303.29L418.7 303.03L418.8 302.79L419.11 298.1L419.09 293.45L419.04 267.45L419.07 227.44L418.86 121.95L418.65 93.68L418.51 91.65L418.12 89.55L417.48 87.4L416.6 85.19L416.3 84.14L416.08 83.69L413.55 79.94L410.55 76.69L407.03 73.9H406.86L406.32 73.48L403.27 71.44L400.01 69.98L396.64 69.11L393.07 68.81L378.31 68.88L342.12 68.5L340.36 65.1L341.28 62.6L341.72 61.77L342.32 61.14L342.43 61.06L343.41 60.53L344.32 60.36L363.63 60.44L381.33 60.16L390.84 60.22L394.48 60.51L397.39 60.98L402.25 62.33L406.72 64.14L410.8 66.41L414.48 69.15L417.18 71.71L419.62 74.58L421.81 77.75L423.73 81.23L424.76 83.77L425.62 86.92L426.9 92.88L427.09 302.55L427.35 303.19L427.98 303.45H449.56L450.12 303.6L450.47 304L450.92 305.07L451.17 306.17L451.06 308.41L450.42 311.58L449.62 314.59L448.65 317.43L447.5 320.1L446.19 322.6L444.71 324.93L443.06 327.09L441.24 329.09L438.6 331.46L435.66 333.53L432.42 335.32L428.9 336.81L426.07 337.67L422.79 338.35L419.08 338.84L414.93 339.13L406.27 339.4L397.59 339.42H56.2601L33.3001 338.89L29.4101 338.64L26.0201 338.13L23.1201 337.35L20.7101 336.32L13.4501 332.41L10.3501 329.48L10.0101 328.72L9.52008 328.14L8.58008 327.63L7.21008 326.26L4.50009 321.5L3.00009 318.64L1.89008 315.75L1.16006 312.85L0.830078 309.93L0.880066 306.9L1.35007 303.85L8.73007 303.08L17.3501 303.52L24.3001 303.5L24.8401 303.29L24.9201 302.55L24.8901 91.39L26.2001 87.56L27.3801 83.68L28.9601 80.17L30.8201 76.94L32.9501 73.98L35.3601 71.31L38.4001 68.62L41.8001 66.29L45.5501 64.32L49.6501 62.69L55.3601 60.78L65.7101 60.08L80.5301 60.36L95.2801 60.21L96.9601 60.46L98.3501 61.22L99.5601 62.51L99.9801 64.36L99.7601 65.97L99.3201 66.83L98.6501 67.61L96.6101 68.92L95.1601 68.83L81.8101 68.44L68.4101 68.81L60.1801 68.74L56.4301 69.11L52.9101 69.87L49.6201 71.03L46.5801 72.58L43.5801 74.67L40.8601 77.21L38.4101 80.2L36.2201 83.64L35.8501 84.96L35.3901 85.74L34.4901 87.67L33.8301 89.73L33.4001 91.91L33.2101 94.23L33.1501 99.9L33.3401 104.48L33.4801 114.66L33.1001 127.41L33.4401 140.06L33.0801 195.98L33.4301 251.9V266.46L33.0101 296.7L33.1001 299.1L33.4101 301.4L33.2001 302.41L33.4001 303.02L33.7501 303.22L34.2901 303.24L140.85 303.39H140.94L141.44 303.25L141.83 302.92L142.07 302.46L142.1 301.95L141.63 298.69L141.88 296.05L141.5 293.58L141.49 293.53L141.04 292.87L140.27 292.61L51.0401 292.51L48.8301 292.22L47.9001 291.84L47.1501 291.3L46.3101 290.23L45.7701 288.89L45.4701 287.15L45.3901 284.91L45.6601 193.05L45.6401 101.17L45.7301 97.28L46.0101 94.03L46.4801 91.42L47.1501 89.44L48.8701 86.58L50.6601 84.64L52.8301 82.99L55.3701 81.64L58.3001 80.57L109.33 80.36L110.26 80.27L110.66 79.8L110.85 79L110.64 76.4L111.04 72.3L112.49 67.97L113.04 66.79L113.9 65.65L115.47 64.13L117.16 62.77L120.38 60.85L123.97 59.44L124.39 59.2L124.63 58.81L124.78 58.33L124.91 56.93L124.65 55.44L125.04 52.69L127.98 45.73L128.08 45.33L128.52 44.95L130.54 42.7L132.71 40.77L135.01 39.16L137.46 37.86L139.97 36.91L142.61 36.26L145.38 35.91L148.29 35.85L154.54 36.13L155.8 35.9L156.43 35.4L157.07 34.44L158.35 32.28L159.77 30.29L161.34 28.46L163.05 26.79L164.05 25.95L165.9 24.64L167.87 23.57L170.24 22.66L172.76 22.06L173.68 21.59L173.98 20.62V16.77L173.91 16.27L173.66 15.79L170.02 10.78L169.86 8.68002L169.96 6.78L170.31 5.05002L170.92 3.52002L172.37 2.56L173.27 1.42001L175.4 0.370026L177.54 0L179.4 0.240021ZM273.01 10.83L270.67 10.64L269.72 10.82L268.91 11.18L271.85 15.57L273.41 17.39L275.04 18.96L277.71 21.3L280.5 23.37L283.42 25.18L286.45 26.71L289.58 27.96L292.83 28.94L296.2 29.66L299.69 30.11L303.47 30.48L306.74 30.15L308.28 30.21L309.59 29.96L309.75 29.88L310.02 29.4L309.8 28.88L309.33 28.65H309.14L308.78 27.79L308.16 26.92L306.53 24.73L304.71 22.74L302.4 20.71L299.85 18.93L299.18 18.63L298.9 18.25L298.89 18.18L297.36 16.93L295.48 16.23V16.09L295.08 15.63L290 13.25L284.74 11.63L281.42 11.02L278.04 10.69L275.4 10.52L273.01 10.83ZM296.13 45.07L302.04 45.49L307.8 45.14L311.21 45.08L313.77 44.53L314.83 44.2L315.45 44.36L315.7 43.93L315.77 43.35L315.71 42.37L315.43 41.38L314.22 39.37L313.65 38.82V38.33L312.97 38.13L311.53 38.44L310.78 38.43L306.77 38.7L304.61 38.89L302.81 38.82L298.84 38.22L292.97 37.13L287.45 35.51L282.26 33.35L277.41 30.66L273.85 28.17L270.5 25.36L267.36 22.21L264.42 18.74L262.72 16.13L261.43 14.45L260.69 13.74L260.12 13.55L259.86 13.52L258.52 13.53L257.55 13.86L255.85 14.84L254.24 15.5L253.8 15.75L253.51 16.16L253.4 16.65L253.5 17.15L253.55 17.25L256.57 22.1L260.02 26.59L264.24 31.02L268.96 35.03L272.48 37.5L276.11 39.63L279.85 41.41L283.71 42.84L286.72 43.7L289.79 44.36L292.93 44.81L296.13 45.07ZM236.05 33.93L234.16 37.63L233.11 40.68L232.43 43.89L232.61 44.54L233.22 44.83H233.31L235.56 44.4L239.88 42.76L244.01 40.76L249.05 37.63L253.75 33.89L254.02 33.39L253.92 32.83L247.43 21.59L247.34 21.46L246.95 21.12L246.44 20.97L245.92 21.05L245.47 21.33L240.74 26.52L238.43 29.53L236.31 32.7L236.14 33.05L236.05 33.93ZM182.53 30.25L182.75 30.53L182.09 30.43L182.07 30.36L181.68 29.89L180.93 29.56L178.78 29.13L176.65 29.04L175.12 29.19L173.96 29.44L172.08 30.14L170.29 31.21L168.05 32.97L166.26 34.7L165.77 35.39L165.72 35.88L166.12 36.17L166.96 36.27H188.73L189.2 36.1V35.62L188.74 34.79L188.11 34.22L187.68 33.88L187.49 33.66L186.39 32.46L184.63 31.17L182.53 30.25ZM253.07 44.78L252.28 44.9L247.13 48.03L241.73 50.57L236.7 52.32L231.47 53.59L230.78 54.06L230.64 54.87L230.65 54.91L230.92 56.48L230.84 57.99L230.7 58.62L230.69 58.64L230.8 59.3L231.35 59.69L235.25 60.58L237.57 61.82L239.58 63.26L241.28 64.9L242.66 66.74L243.76 68.85L244.53 71.17L244.96 73.7L245.05 76.45L244.96 84.04L245.07 91.05L245.23 92.66L245.6 94.02L246.35 95.53L247.56 97.19L251.77 101.79L253.98 103.79L256.16 105.49L258.38 106.97L260.71 108.26L263.07 109.31L265.54 110.17L266.19 110.35L267.75 111.11L268.93 111.27L270.19 111.14L273.81 111.5L277.58 111.25L280.25 110.89L282.8 110.18L286.05 108.66L289.07 106.49L292.78 103.23L296.09 99.29L298.11 96.37L299.77 93.13L301.07 89.59L302.01 85.74L303.2 78.06L303.68 71.22L304.14 65.01L304.44 54.65L304.32 54.23L303.93 54.02L303.44 53.93L300.49 53.66L297.46 53.86H295.57L293.88 53.42L288.22 52.39L282.78 50.94L277.57 49.05L272.58 46.73L266.58 43.18L260.93 38.93L260.06 38.62L259.21 38.98L253.07 44.78ZM132.87 93.14L132.51 102.79L132.57 110.67L132.96 113.6L133.96 116.21L135.04 117.87L136.42 119.36L137.2 119.93L137.42 120.26L138.59 121.22L140.54 122.39L142.73 123.24L145.15 123.77L147.81 123.97L175.35 124.23L205.57 124.17L209.88 123.88L211.53 123.55L212.84 123.08L215.8 121.27L218.87 118.53L220.53 116.59L221.72 114.64L222.46 112.67L222.73 110.7V110.45L222.62 63.46L222.41 57.77L222 54.73L221.15 52.27L219.67 49.83L217.82 47.82L215.19 46.02L212.06 44.8L207.05 44.49L180.63 44.52L150.3 44.24L145.89 44.33L143.05 44.75L141.07 45.43L139.3 46.31L137.75 47.38L136.41 48.65L135.36 50L134.49 51.53L133.89 53.23L133.45 55.46L133.05 61.54L132.87 93.14ZM317.15 52.56L315.05 53.17L313.84 52.97L313.01 53.25H313L312.67 53.84L312.55 54.87L312.24 69.77L312.4 71.53L312.15 73.46L311.02 81.61L309.91 87.39L309.26 90.62L309.06 93.22L309.26 136.63L309.36 137.34L309.67 137.83L310.25 138.1H311.07L312.45 138.4L313.91 138.44L315.64 139.16L317.11 139.1L317.15 139.09L317.5 138.84L317.63 138.4L317.92 69.18L317.73 60.17L317.15 52.56ZM123.55 68.51L123.41 68.54L122.9 68.95L122.77 68.65L122.3 68.78L120.58 70.34L119.61 72.14L119.39 73.93L119.18 83.11L119.31 86.52L119.61 89.15L120.02 90.43L120.82 91.74L122.02 93.08L123.6 94.46L123.74 95.08L124.07 95.2L124.57 95.13L124.88 94.92L125 94.56V68.93L124.97 68.8L124.61 68.26L124.22 68.06L123.55 68.51ZM235.8 91.85L236.03 91.44L236.61 90.12L236.68 89.58L236.79 83.64L236.65 76.96L236.42 74.77L235.92 72.9L235.16 71.34L234.12 70.1L233.14 69.36L232.08 68.82L231.82 68.72H231.36L231.2 69.16V93.71L231.46 94.29L232.07 94.46L232.18 94.44L233.44 93.97L234.46 93.38L235.25 92.67L235.8 91.85ZM117.42 284.03L117.56 283.86L117.55 283.83L117.38 283.59L104.41 271.59L100.09 267.32L96.9801 263.47L94.7701 259.67L94.0001 257.79L93.4401 255.85L93.0301 252.71L92.8701 248.04L92.5801 174.49L92.7601 169.25L92.9901 167.48L93.3301 166.27L94.6201 163.61L96.1601 161.29L97.9201 159.32L99.9301 157.7L102.33 156.35L105.01 155.39L107.95 154.83L111.17 154.66L111.72 154.47L112.02 153.96L112.8 150.89L113.92 148.19L115.37 145.86L117.16 143.91L119.13 142.42L121.4 141.25L123.42 140.64L126.1 140.23L129.43 140.02L133.41 140.01L146.94 140.17L161.09 140.1L161.28 139.89V139.88L160.24 132.68L160.14 132.48L159.94 132.42L149.66 132.29L144.33 132.03L141.27 131.47L138.37 130.53L136.13 129.47L133.99 128.17L131.96 126.6L130.03 124.78L128.16 122.55L126.66 120.08L125.49 117.14L124.78 113.88L124.48 110.15L124.53 105.14L124.36 104.54L123.88 104.14L121.54 103.07L119.41 101.81L117.48 100.36L115.76 98.71L114.11 96.7L112.71 94.46L111.56 91.99L110.65 89.29L110.38 88.89L109.92 88.74L88.0901 88.76L65.8901 88.54L60.7401 88.73L59.0201 89.04L57.8701 89.49L56.1801 90.78L54.9401 92.33L54.0601 94.46L53.7601 96.94V283.31L53.9701 283.82L54.4801 284.03H117.42ZM397.45 284.01L397.85 283.85L398.01 283.45L397.9 103.7L397.92 102.29L397.8 96.61L397.52 94.61L397.08 93.12L396.34 91.77L395.38 90.67L394.23 89.86L392.88 89.28L391.32 88.93L389.54 88.82L326.31 88.73L325.96 88.85L325.85 89.18V138.5L326.06 139.03L326.57 139.28L329.36 139.61L332.07 140.15L334.67 140.91L337.18 141.88L339.53 143.03L341.79 144.38L343.97 145.93L346.05 147.69L348.17 149.79L350.09 152.04L352.08 154.84L353.8 157.83L355.26 161.03L356.46 164.44L357.1 167.13L357.55 170.49L357.83 174.5L357.92 179.18L357.91 283.34L358.11 283.81L358.59 284.01H397.45ZM236.71 102.35L236.6 102.48L231.39 103.92L231 104.17L230.88 104.61L231.01 109.17L229.93 138.13L230.04 138.72L230.39 139.21L230.92 139.49L231.52 139.53L231.79 139.45L232.61 139.12L234.51 139.19L236 139.01L237.07 138.6L237.72 137.95L237.93 137.32L237.85 103.94L237.95 102.62L237.67 102.02H237.27L236.71 102.35ZM300.14 108.16L299.5 108.64L298.57 109.28L297.64 110.25L296.91 111.44L294.48 113.22L294.37 113.35L293.59 114.85L293.3 116.73L293.51 118.99L294.2 121.65L294.44 123.77L294.93 125.56L295.63 127.24L297.35 129.94L299.69 132.32L300.78 133.14L301.3 133.29L301.1 132.46L300.84 109.17L300.99 108.12L300.91 107.84L300.68 107.63L300.38 107.66L300.34 107.68L300.14 108.16ZM246.51 128.67L246.03 129.43L245.94 130.14L246.15 130.66L246 131.44L246.12 132.12L246.34 132.52L246.68 132.87L247.05 132.8L247.51 132.43L248.87 130.8L249.67 129.39L252.44 124.98L253.47 123.56L254.17 121.37L254.56 118.38V115.19L254.42 114.74L254.09 114.4L250 111.66L248.45 110.4L247.04 108.79L246.75 108.59L246.5 108.84L246.29 109.34L246.04 111.2L246.3 119.23V126.93L246.51 128.66V128.67ZM280.1 119.19L268.03 119.24L266.07 118.68L264.44 118.64L263.69 118.61L263.35 118.89L263.1 119.39L262.49 121.86L262.44 123.49L262.4 124.26L262.1 124.94L259.57 130.44L258.45 131.62L257.35 133.72L257.7 135.41L259.28 137.73L261.01 139.87L262.89 141.82L264.92 143.57L266.2 144.53L267.47 145.3L270.08 146.27L273.02 146.61L275.68 146.33L278.35 145.39L279.97 144.75L281.42 143.89L282.87 142.65L284.12 141.13L285.86 139.82L287.39 138.31L288.57 136.8L289.58 135.13L289.73 134.41L289.5 133.71L287.44 130.03L286 126.14L285.12 121.99L284.69 118.21L280.1 119.19ZM195.51 132.24H195.47L194.9 132.5L194.67 133.08V139.52L194.82 139.96L195.25 140.1H221.17L221.71 139.88L221.95 139.33L222.22 127.45L222.13 127.17L221.84 127.22L217.19 129.81L215.39 130.71L213.61 131.37L211.86 131.8L210.13 131.99L195.51 132.24ZM167.77 133.23L168.02 134.24L167.98 134.31L167.85 134.82L167.99 135.48L168.82 137.42L169.82 139.17L170.99 140.74L172.33 142.11L174.99 144.02L177.01 144.52L177.54 144.56L179 144.19L179.99 143.66L181.67 142.48L183.2 141.03L183.9 140.76L185.25 139.67L186.26 137.9L187.71 133L187.73 132.9L187.5 132.18L186.81 131.87H168.18L167.67 132.03L167.42 132.53L167.53 133.11L167.77 133.23ZM329.91 190.04L331.62 190.22L332.86 190.91L333.63 192.16L333.89 193.95L333.91 254.12L334.07 254.52L334.47 254.68H349.25L349.56 254.55L349.69 254.24L349.79 175.2L349.59 171.51L349.05 168.49L348.17 165.51L346.95 162.58L345.39 159.68L343.62 157.06L341.65 154.77L339.48 152.79L337.12 151.13L333.35 149.28L329.17 148.11L325.87 147.74L320.59 147.61L315.35 147.49L312.01 147.14L311.61 147.07L307.81 146.12L304.1 144.74L300.47 142.91L296.93 140.65L296.24 140.48L295.61 140.83L291.91 145.32L289.79 147.59L287.53 149.56L285.13 151.22L282.63 152.57L280.04 153.6L277.38 154.29L274.68 154.64H271.95L268.5 154.11L265.08 152.99L261.85 151.31L258.73 149.03L254.78 145.24L251.21 140.89L250.81 140.59L250.3 140.7L241.31 145.89L241.1 146.11L241.16 146.43L241.9 148.08L242.49 149.92L243.21 154.2L243.36 154.63L243.75 154.87L245.9 155.06L246.93 155.11L249.8 155.68L252.39 156.56L254.69 157.76L256.72 159.28L257.98 160.54L259.1 161.96L260.91 165.28L261.54 167.27L261.97 169.77L262.21 172.77L262.24 176.28L262.14 197.54L262.33 198L262.78 198.19L299.82 198.04L305.53 198.29L307.65 198.6L309.29 199.05L311.33 199.96L313.17 201.14L315.26 203.09L317.01 205.5L317.91 207.44L318.47 209.71L318.65 212.31L318.47 215.16L309.85 283.5L309.95 283.86L310.28 284.03H310.31H325.27L325.35 284.02L325.69 283.84L325.83 283.47L325.79 194.2L326.06 192.32L326.87 191L328.08 190.29L329.75 190.05L329.91 190.04ZM148.17 148.55L148.09 148.76L148.3 149.16L147.9 149.26L147.95 149.7L154.36 163.42L154.62 163.7L154.85 163.72L155.69 165.86L155.43 166.32H156.2L156.62 166.17L157.05 165.85L167.64 155.33L170.15 152.85L170.89 152.18L170.95 151.64L170.75 150.99L170.21 150.37L169.31 150.22L167.87 149.13L167.13 148.13L166.39 147.8L165.82 148L165.49 147.99L158.29 148.26L153.97 148.36L148.17 147.76L147.85 147.92L147.77 148.28L148.17 148.55ZM187.68 148.58L184.47 151.03L184.16 151.15L184.29 151.69L185.11 152.66L196.92 164.47L198.53 165.2L198.9 165.24L199.15 164.96L203.23 155.86L203.64 155.46L204.26 154.34L204.47 152.88L206.06 149.37L206.02 149.03L205.84 148.79L206.05 148.66L206.07 148.64L206.11 148.47L206.02 148.33L205.39 148.01L204.72 148.05L203.99 148.44L192.49 148.3L191 147.84L189.76 147.67L188.77 147.78L188.02 148.18L187.68 148.58ZM121.32 250.12L137.68 266.36L137.99 266.95L138.25 267.12L138.54 267.01L138.6 266.91L138.63 266.05L138.05 265.65L137.9 263.52L137.41 261.51L137.6 261.4L137.86 260.94L137.87 260.19L133.72 223.14L132.95 218.07L132.64 214.35L132.84 210.7L133.27 208.22L133.94 205.77L135.3 203.5L137.07 201.79L137.52 201.49L141.12 199.55L142.98 198.88L144.87 198.41L148.55 198.06L160.87 198.28L161.47 198.22L161.92 197.98L162.21 197.56L162.34 196.96L162.7 191.9L163.21 190.11L163.34 189.32L164.58 180.3L166.03 171.31L166.14 170.68L166.1 170.21L165.82 169.87L165.8 169.55L165.76 169.58L166.39 168.63L166.52 167.87L166.33 167.52L165.98 167.7L157.43 176.86L156.03 178L154.64 178.38L153.32 178.01L152.17 177L151.03 175.21L146.79 166.37L141.03 153.23L140.75 152.91L140.55 152.97L140.43 152.83L140.36 152.51L139.91 151.1L138.55 148.62L138.2 148.31L137.75 148.17L132.71 147.92L127.43 148.04L125.76 148.25L124.33 148.66L123.13 149.29L122.17 150.13L121.52 151.04L121.05 152.11L120.77 153.35L120.66 154.75L120.48 195.31L120.57 244.7L120.77 248.01L121.32 250.12ZM193.27 172.59L190.75 169.59L190.04 169.24L189.2 169.43L189.19 169.51L189.24 172.14L190.03 174.86L190.86 179.7L193.13 194.92L193.61 195.54L194.12 196.65L194.53 197.21L195.19 197.43H234.28L234.86 197.19L235.09 196.61L234.66 154.55L234.57 152.77L234.01 151.26L232.92 149.97L231.32 148.97L216.79 148.5L216.24 148.46L215.72 148.63L215.1 149.4L203.31 175.46L202.42 176.84L201.3 177.59L200.15 177.74L198.84 177.29L197.31 176.1L193.27 172.59ZM183.79 198.11L184.32 198L184.75 197.67L185.01 197.2L185.05 196.66L179.6 159.07L179.32 158.43L178.74 158.05L176.96 157.46L175.99 157.54L175.53 157.93L175.31 158.5L170.15 196.67L170.37 197.56L171.13 198.08L171.41 198.11H183.79ZM111.26 240.08L111.29 240.43L111.76 240.41L112.38 239.93L112.62 239.17L112.31 175.15L112.02 164.17L111.87 163.8L111.52 163.6L109.23 163.38L107.24 163.52L105.52 164.02L104.1 164.87L103.14 165.85L102.37 167.08L101.91 168.38L101.57 170.21L101.24 175.41L101.05 189.2L100.91 231.46L101.05 235.15L101.19 239.47L101.38 240L101.87 240.28L105.19 240.61L108.47 240.51L111.26 240.08ZM253.83 197.5L254.05 197.11L254.11 196.7L253.97 173.45L253.76 170.92L253.17 168.31L252.16 166.42L250.78 165L249.37 164.17L247.71 163.67L245.81 163.5L243.66 163.64L243.37 163.8L243.25 164.11V196.94V196.96L243.37 197.49L243.68 197.93L244.14 198.22L244.67 198.31L253.53 198.03L253.79 198L253.91 197.78L253.83 197.5ZM199.1 165.64L198.96 165.88L199.03 166.12L199.21 165.93L199.25 165.83L199.22 165.67V165.66L199.1 165.64ZM235.3 197.43L235.41 197.5L235.42 197.49L235.52 197.4L235.5 197.04L235.47 197L235.29 197.06L235.3 197.43ZM144.91 206.95L143.18 207.75L141.91 208.91L141.08 210.52L140.76 212.53L141.15 218.39L141.34 220.13L142.19 224.19L144.41 243.83L144.72 249.76L145.47 255.62L146.18 259.34L146.22 259.38L146.55 260.18L146.45 261.35L150.97 302.84L151.34 303.02L151.68 303.16L151.94 303.19L190.85 303.67L194.65 308.61L196.23 310.23L197.04 310.66L197.88 310.85L198.04 310.86L216.95 311.01L251.55 310.94L253.75 310.64L255.52 309.76L256.56 308.73L260.02 303.52L297.2 303.19L298.05 303.33L298.72 303.23L299.1 302.98L299.27 302.54L304.99 257.33L307.4 238.61L310.47 213.45L310.43 211.95L309.93 210.79L309.82 210.66L309.74 210.69L309.65 210.26L308.91 209.04L307.97 208.07L306.11 207.06L305.63 206.91L303.23 206.38H303.03L153.3 206.43L149.19 206.56L144.91 206.95ZM101.22 249.69L101.2 249.79L101.13 251.03L101.41 252.34L101.44 253.86L101.78 255.27L102.41 256.52L102.99 257.21L103.81 258.71L105.53 261.01L107.46 263.09L110.6 265.7L121.47 276.23L128.9 283.43L129.27 283.69L129.77 283.8L138.93 284.07L139.53 283.93L139.62 283.87L139.97 283.35L139.95 283.16L140 281.9L139.48 280.4L138.87 279.68L138.04 279.11L127.08 267.97L114.57 254.44L113.58 253.17L112.95 251.79L112.65 249.88L112.34 249.14L111.61 248.82L102.8 248.77L101.47 248.91L100.97 249.23L101.22 249.69ZM335.03 263.32L334.47 263.62L334.19 264.01L334.15 264.22L334.06 273.99L334.39 283.77L348.94 284.08L349.67 283.79L349.97 283.07V283.06L349.77 266.43L349.87 264.17L349.94 263.54L349.69 263.17L348.86 262.93L335.03 263.32ZM9.92007 312.84L10.6701 314.94L11.0501 316.34L11.6701 317.77L13.6001 320.7L15.6301 323.01L17.8201 325.03L20.1401 326.77L22.6201 328.22L25.5401 329.49L28.0001 330.16L31.1901 330.65L35.1001 330.96L39.7501 331.09L119.3 331.3L260.82 331.07L335.86 331.14L416.83 330.97L420.33 330.78L423.63 330.21L426.74 329.28L429.65 327.98L432.4 326.28L434.96 324.19L437.32 321.73L439.47 318.89L441.24 315.65L442.19 312.81V312.2L441.59 311.67L441.2 311.6L428.27 311.79L415.33 311.94L309.05 311.81L267.32 311.79L266.22 311.9L265.24 312.26L264.05 313.23L263.13 314.72L262.33 315.65L261.6 316.23L259.54 317.52L257.35 318.42L255.32 318.9L253.2 319.09L248.72 319.32L216.51 319.36L199.24 319.4L195.04 318.86L190.64 317.48L186.12 312.85L186.17 312.14L185.84 311.95L181.47 311.77L94.8001 311.86L14.6101 311.73L10.1701 312.02L9.86008 312.18L9.79007 312.51L9.82007 312.65L9.92007 312.84Z" fill="#16335D"/>
<path d="M183.97 3.49826L183.08 2.63828L181.35 1.31827L179.4 0.238281L181.14 0.588287L182.52 1.36829L183.36 2.29828L183.97 3.49826Z" fill="#9A9DA5" fill-opacity="0.996"/>
<path d="M173.27 1.41992L172.37 2.55991L170.92 3.51993L171.66 2.41992L172.59 1.68991L173.27 1.41992Z" fill="#9A9DA5" fill-opacity="0.996"/>
<path d="M317.98 26.6785L315.57 23.3085L313.06 20.0085L309.8 16.5885L306.35 13.5185L302.7 10.8085L298.85 8.45853L294.59 6.35852L290.1 4.65851L285.39 3.35852L280.47 2.44852L275.61 2.13852L270.74 2.08853L273.41 1.5585L275.8 1.47852L282.22 2.18851L288.29 3.5285L294.02 5.48853L299.39 8.07852L304.11 11.0785L308.51 14.6285L312.62 18.7185L316.41 23.3685L317.13 24.6385L317.98 26.6785Z" fill="#9A9DA5" fill-opacity="0.996"/>
<path d="M268.78 2.28906L263.15 3.39908L257.81 4.98907L252.75 7.06906L247.99 9.61908L244.31 12.0491L240.83 14.8091L237.54 17.8891L234.45 21.2891L231.37 25.7191L228.25 30.1491L230.16 26.6691L232.32 23.3791L235.64 19.2391L239.44 15.4291L243.7 11.9591L248.43 8.82907L253.06 6.36908L257.74 4.46906L262.48 3.14908L267.27 2.40906L268.78 2.28906Z" fill="#9A9DA5" fill-opacity="0.996"/>
<path d="M185.181 5.5L185.691 6.41L185.971 7.35001L186.031 8.38L185.841 9.45001L184.561 12.56L182.521 15.45L184.051 12.82L184.961 10.05L185.251 7.81L185.181 5.5Z" fill="#9A9DA5" fill-opacity="0.996"/>
<path d="M295.481 16.2295L291.951 14.5895L288.601 13.3094L285.171 12.2195L281.651 11.3495L278.041 10.6895L281.421 11.0195L284.741 11.6295L290.001 13.2495L295.081 15.6295L295.481 16.0895V16.2295Z" fill="#9A9DA5" fill-opacity="0.996"/>
<path d="M128.521 44.9493L129.961 42.9593L131.531 41.2093L133.251 39.6993L135.121 38.4293L137.291 37.3293L139.631 36.5093L142.131 35.9693L144.801 35.7093L154.721 35.3993L155.881 35.0493L156.701 34.1593L157.921 32.0093L159.291 30.0293L160.821 28.2393L162.511 26.6293L164.531 25.0793L166.741 23.7493L169.141 22.6293L171.721 21.7293L172.551 21.1893L172.931 20.2693L172.991 19.0293L172.801 16.9593L172.251 14.8993L171.321 12.8393L170.021 10.7793L173.661 15.7893L173.911 16.2693L173.981 16.7693V20.6193L173.681 21.5893L172.761 22.0593L170.241 22.6593L167.871 23.5693L165.901 24.6393L164.051 25.9493L163.051 26.7893L161.341 28.4593L159.771 30.2893L158.351 32.2793L157.071 34.4393L156.431 35.3993L155.801 35.8993L154.541 36.1293L148.291 35.8493L145.381 35.9093L142.611 36.2593L139.971 36.9093L137.461 37.8593L135.011 39.1593L132.711 40.7693L130.541 42.6993L128.521 44.9493Z" fill="#9A9DA5" fill-opacity="0.996"/>
<path d="M273.01 10.8287L272.82 10.9087L270.98 11.3287L268.91 11.1787L269.72 10.8187L270.67 10.6387L273.01 10.8287Z" fill="#9A9DA5" fill-opacity="0.996"/>
<path d="M259.86 13.5195L257.46 14.7295L255.16 15.3995L254.61 15.5795L254.29 15.8895L254.2 16.3195L254.33 16.8695L256.38 21.1195L258.93 24.8195L262.24 28.5495L265.77 31.8995L269.51 34.8995L273.48 37.5195L278.65 40.2395L284.14 42.3995L289.97 44.0095L296.13 45.0695L292.93 44.8095L289.79 44.3595L286.72 43.6995L283.71 42.8395L279.85 41.4095L276.11 39.6295L272.48 37.4995L268.96 35.0295L264.24 31.0195L260.02 26.5895L256.57 22.0995L253.55 17.2495L253.5 17.1495L253.4 16.6495L253.51 16.1595L253.8 15.7495L254.24 15.4995L255.85 14.8395L257.55 13.8595L258.52 13.5295L259.86 13.5195Z" fill="#9A9DA5" fill-opacity="0.996"/>
<path d="M298.841 38.2183L294.261 37.8683L289.861 36.9183L287.571 36.1683L284.391 34.8883L281.321 33.4283L278.371 31.8083L275.541 29.9983L270.381 25.9983L265.671 21.3283L263.381 18.2683L260.691 13.7383L261.431 14.4483L262.721 16.1283L264.421 18.7383L267.361 22.2083L270.501 25.3583L273.851 28.1683L277.411 30.6583L282.261 33.3483L287.451 35.5083L292.971 37.1283L298.841 38.2183Z" fill="#9A9DA5" fill-opacity="0.996"/>
<path d="M182.52 15.4492L181.98 17.6792L181.89 19.4292L182.37 20.7992L183.31 21.7192L184.74 22.3292L182.09 21.7892L181.7 21.5692L181.5 21.1692L181.41 19.2992L181.64 16.9592L181.93 15.9892L182.44 15.4792L182.52 15.4492Z" fill="#9A9DA5" fill-opacity="0.996"/>
<path d="M298.891 18.1785L296.77 17.2085L295.48 16.2285L297.36 16.9285L298.891 18.1785Z" fill="#9A9DA5" fill-opacity="0.996"/>
<path d="M299.691 30.109L296.201 29.659L292.831 28.939L289.581 27.959L286.451 26.709L283.421 25.179L280.501 23.369L277.711 21.299L275.041 18.959L278.021 21.219L281.111 23.239L284.291 25.029L287.581 26.579L293.481 28.689L299.691 30.109Z" fill="#9A9DA5" fill-opacity="0.996"/>
<path d="M308.162 26.9197L299.852 18.9297L302.402 20.7097L304.712 22.7397L306.532 24.7297L308.162 26.9197Z" fill="#9A9DA5" fill-opacity="0.996"/>
<path d="M236.052 33.9288L232.902 42.6888L232.832 43.0788L232.962 43.6288L233.322 44.0587L233.842 44.2688L234.402 44.2188L238.762 42.5587L242.492 40.8087L246.102 38.8087L249.612 36.5587L253.012 34.0388L253.512 33.2088L253.312 32.2588L246.552 21.9888L246.332 21.8188L246.002 21.9688L243.512 24.3788L241.192 26.9188L238.492 30.3188L236.052 33.9288L236.142 33.0488L236.312 32.6988L238.432 29.5287L240.742 26.5188L245.472 21.3288L245.922 21.0488L246.442 20.9688L246.952 21.1188L247.342 21.4588L247.432 21.5888L253.922 32.8288L254.022 33.3888L253.752 33.8888L249.052 37.6288L244.012 40.7588L239.882 42.7588L235.562 44.3988L233.312 44.8288H233.222L232.612 44.5388L232.432 43.8888L233.112 40.6788L234.162 37.6288L236.052 33.9288Z" fill="#9A9DA5" fill-opacity="0.996"/>
<path d="M228.01 30.7585L224.45 41.3985L224.39 41.5385L223.81 41.9485L223.12 41.7585L219.95 39.4585L216.54 37.7485L212.97 36.6385L209.17 36.0985L204.59 35.9685L199.49 36.1485L198.91 36.0085L198.49 35.5785L197.13 33.1685L195.56 30.8085L191.75 26.2285L193.43 27.6485L194.99 29.3585L196.44 31.3785L197.78 33.6985L198.28 34.3085L199.17 34.9785L199.93 35.2885L200.94 35.3885L207.53 35.4485L210.2 35.7285L213.54 36.4485L216.82 37.5885L220.04 39.1285L223.19 41.0785L223.72 41.1585L224.11 40.8085L224.15 40.6885L224.46 39.2785L225.9 34.9385L228.01 30.7585Z" fill="#9A9DA5" fill-opacity="0.996"/>
<path d="M323.12 37.8498L318.84 28.0098L320.17 30.1298L321.29 32.3398L322.34 35.0298L323.12 37.8498Z" fill="#9A9DA5" fill-opacity="0.996"/>
<path d="M306.74 30.1484L307.83 29.7484L308.71 29.1284L309.14 28.6484H309.33L309.8 28.8784L310.02 29.3984L309.75 29.8784L309.59 29.9584L308.28 30.2084L306.74 30.1484Z" fill="#9A9DA5" fill-opacity="0.996"/>
<path d="M182.091 30.4291L182.761 31.6591L183.661 32.6191L184.411 33.1091L184.811 33.2291L184.621 32.8691L182.531 30.2491L184.631 31.1691L186.391 32.4591L187.491 33.6591L187.681 33.8791L188.111 34.2191L188.741 34.7891L189.201 35.6191V36.0991L188.731 36.2691H166.961L166.121 36.1691L165.721 35.8791L165.771 35.3891L166.261 34.6991L168.051 32.9691L170.291 31.2091L172.081 30.1391L173.961 29.4391L175.121 29.1891L176.651 29.0391L178.781 29.1291L180.931 29.5591L181.681 29.8891L182.071 30.3591L182.091 30.4291ZM177.871 29.9442L177.463 29.6628L176.479 29.5491L175.497 29.6697L175.091 29.954L175.499 30.2354L176.482 30.3491L177.465 30.2285L177.871 29.9442ZM172.291 30.7191L172.281 30.7291L172.371 31.0791L172.711 31.1391L172.891 30.8291L172.851 30.5791L172.601 30.5191H172.571L172.291 30.7191ZM169.011 34.4891L168.821 33.8891L168.371 33.9191L167.311 34.9391L167.171 35.2791L167.521 35.4191L168.361 35.3391L168.851 35.0191L169.011 34.4891ZM187.081 34.8291L187.361 35.0391L187.801 35.1091L187.651 34.5691L186.871 33.7791L186.521 33.6591L186.111 33.6991L186.191 34.1091L186.701 34.4991L187.081 34.8291ZM183.781 34.8728L183.653 34.5612L183.342 34.4312L170.662 34.387L170.351 34.5148L170.221 34.8254L170.221 34.8654L170.348 35.177L170.659 35.307L183.339 35.3512L183.651 35.2234L183.781 34.9128L183.781 34.8728Z" fill="#9A9DA5" fill-opacity="0.996"/>
<path d="M313.651 38.8189L312.591 38.5289L311.531 38.4389L312.971 38.1289L313.651 38.3289V38.8189Z" fill="#9A9DA5" fill-opacity="0.996"/>
<path d="M293.88 53.4191L289.47 52.9391L285.16 52.0791L279.77 50.4391L274.53 48.1891L267.91 44.4991L261.48 40.0691L260.89 39.7591L260.22 39.6491L259.56 39.7691L258.97 40.0991L253.07 44.7791L259.21 38.9791L260.06 38.6191L260.93 38.9291L266.58 43.1791L272.58 46.7291L277.57 49.0491L282.78 50.9391L288.22 52.3891L293.88 53.4191Z" fill="#9A9DA5" fill-opacity="0.996"/>
<path d="M314.831 44.1991L315.081 43.1691L315.071 42.0291L314.781 40.7591L314.221 39.3691L315.431 41.3791L315.711 42.3691L315.771 43.3491L315.701 43.9291L315.451 44.3591L314.831 44.1991Z" fill="#9A9DA5" fill-opacity="0.996"/>
<path d="M323.99 40.459L324.71 43.029L325.68 48.289L326.03 53.699L326 76.669L326.2 78.369L326.83 80.099L326.1 80.189L325.87 79.849L325.82 79.199L326.04 69.419L325.8 59.699L325.12 50.049L323.99 40.459Z" fill="#9A9DA5" fill-opacity="0.996"/>
<path d="M313.771 44.5298L311.211 45.0798L307.801 45.1398L309.741 44.7098L311.701 44.5098L313.771 44.5298Z" fill="#9A9DA5" fill-opacity="0.996"/>
<path d="M137.42 120.259L139.86 121.679L142.62 122.689L145.68 123.269L149.05 123.439L179.93 123.309L206.55 123.619L209.36 123.449L212 122.799L214.95 121.399L217.67 119.319L219.51 117.269L220.84 114.989L221.7 112.339L222.01 109.449L222.15 83.9888L222.06 58.1988L221.77 55.5188L221.19 53.5688L220.31 51.6788L218.93 49.6888L217.09 47.8788L214.8 46.2488L212.06 44.7988L215.19 46.0188L217.82 47.8188L219.67 49.8288L221.15 52.2688L222 54.7288L222.41 57.7688L222.62 63.4588L222.73 110.449V110.699L222.46 112.669L221.72 114.639L220.53 116.589L218.87 118.529L215.8 121.269L212.84 123.079L211.53 123.549L209.88 123.879L205.57 124.169L175.35 124.229L147.81 123.969L145.15 123.769L142.73 123.239L140.54 122.389L138.59 121.219L137.42 120.259Z" fill="#9A9DA5" fill-opacity="0.996"/>
<path d="M253.071 44.7793L252.631 45.0793L249.501 47.0793L246.271 48.9093L239.461 52.0693L237.601 52.7393L234.951 53.4393L232.221 53.8693L231.771 54.0493L231.481 54.4393L230.991 56.5493L231.071 58.4293L231.241 58.8393L231.611 59.1093L235.251 60.5793L231.351 59.6893L230.801 59.2993L230.691 58.6393L230.701 58.6193L230.841 57.9893L230.921 56.4793L230.651 54.9093L230.641 54.8693L230.781 54.0593L231.471 53.5893L236.701 52.3193L241.731 50.5693L247.131 48.0293L252.281 44.8993L253.071 44.7793Z" fill="#9A9DA5" fill-opacity="0.996"/>
<path d="M125.041 52.6885L125.451 50.5185L126.201 48.4985L126.991 47.0685L127.981 45.7285L125.041 52.6885Z" fill="#9A9DA5" fill-opacity="0.996"/>
<path d="M313.91 138.439L315.42 138.569L316.51 138.249L316.85 137.909L316.95 137.469L317.15 52.5586L317.73 60.1686L317.92 69.1786L317.63 138.399L317.5 138.839L317.15 139.089L317.11 139.099L315.64 139.159L313.91 138.439Z" fill="#9A9DA5" fill-opacity="0.996"/>
<path d="M315.05 53.1688L313.64 53.6288L313.32 53.9788L313.19 54.4288L312.24 69.7688L312.55 54.8688L312.67 53.8388L313 53.2487H313.01L313.84 52.9688L315.05 53.1688Z" fill="#9A9DA5" fill-opacity="0.996"/>
<path d="M304.141 65.0102L303.981 55.5302L303.751 54.8702L303.131 54.5902L297.461 53.8602L300.491 53.6602L303.441 53.9302L303.931 54.0202L304.321 54.2302L304.441 54.6502L304.141 65.0102Z" fill="#9A9DA5" fill-opacity="0.996"/>
<path d="M113.9 65.6495L115.33 63.6995L116.57 62.5294L118.11 61.4595L122.71 59.2595L123.35 58.9895L123.72 58.7195L123.9 58.3395L124.65 55.4395L124.91 56.9295L124.78 58.3295L124.63 58.8094L124.39 59.1995L123.97 59.4395L120.38 60.8495L117.16 62.7695L115.47 64.1295L113.9 65.6495Z" fill="#9A9DA5" fill-opacity="0.996"/>
<path d="M99.5609 62.5088L98.3509 61.2188L96.9609 60.4588L95.2809 60.2088L80.5309 60.3588L65.7109 60.0788L72.8709 59.5588L80.0409 59.2988L87.7309 59.3088L95.4309 59.6288L97.1609 59.9688L98.4709 60.7588L99.1009 61.5388L99.5609 62.5088Z" fill="#9A9DA5" fill-opacity="0.996"/>
<path d="M194.292 101.38L197.182 100.8L199.872 99.9296L202.352 98.7896L204.632 97.3496L206.492 95.8296L208.192 94.0696L210.542 90.8296L212.192 87.3296L212.932 84.7096L213.332 81.9696L213.362 78.9396L212.962 75.9996L212.442 74.0696L211.722 72.1796L209.682 68.5296L207.712 66.0896L205.442 64.0596L202.802 62.4096L199.852 61.1896L197.792 60.6996L195.162 60.3896L188.192 60.2996L174.892 60.4596L161.512 60.0996L167.522 59.6296L173.952 59.3496L188.052 59.3696L196.172 59.8596L198.352 60.2196L200.342 60.7696L202.162 61.4996L203.802 62.4196L205.682 63.7696L207.402 65.2396L208.952 66.8396L210.322 68.5596L210.932 69.4296L211.642 70.6096L212.512 72.4096L213.172 74.3296L213.632 76.3596L213.882 78.4996L213.942 80.8096L213.782 83.0496L213.402 85.2096L212.812 87.2996L211.852 89.5996L210.612 91.7996L209.082 93.8996L207.272 95.9096L204.822 97.9896L202.132 99.5796L200.312 100.32L198.402 100.87L196.392 101.23L194.292 101.38Z" fill="#9A9DA5" fill-opacity="0.996"/>
<path d="M426.901 92.8786L425.621 86.9186L424.761 83.7686L423.731 81.2286L421.811 77.7486L419.621 74.5786L417.181 71.7086L414.481 69.1486L410.801 66.4086L406.721 64.1386L402.251 62.3286L397.391 60.9786L394.481 60.5086L390.841 60.2186L381.331 60.1586L363.631 60.4386L344.321 60.3586L343.411 60.5286L342.431 61.0586L342.321 61.1386L341.721 61.7686L341.281 62.5986L340.361 65.0986L340.591 63.6286L341.001 62.3786L341.591 61.3486L342.361 60.5486L343.871 59.7486L345.791 59.4586L363.121 59.3086L382.131 59.3686L387.961 59.5286L392.931 59.8886L397.051 60.4586L400.301 61.2386L405.031 62.9686L409.331 65.0686L413.191 67.5386L416.611 70.3886L419.421 73.3886L421.781 76.6686L423.741 80.2886L425.251 84.1986L426.301 88.3986L426.901 92.8786Z" fill="#9A9DA5" fill-opacity="0.996"/>
<path d="M161.511 60.0996L174.891 60.4596L188.191 60.2996L195.161 60.3896L197.791 60.6996L199.851 61.1896L202.801 62.4096L205.441 64.0596L207.711 66.0896L209.681 68.5296L211.721 72.1796L212.441 74.0696L212.961 75.9996L213.361 78.9396L213.331 81.9696L212.931 84.7096L212.191 87.3296L210.541 90.8296L208.191 94.0696L206.491 95.8296L204.631 97.3496L202.351 98.7896L199.871 99.9296L197.181 100.8L194.291 101.38L157.971 101.22L154.361 99.7996L151.191 98.0196L148.471 95.9096L146.181 93.4396L144.281 90.4996L142.851 87.1796L142.161 84.6396L141.811 82.0696L141.841 78.8896L142.361 75.6796L143.401 72.4296L144.931 69.1496L145.361 68.6196L149.201 64.4996H149.221L149.371 64.3996L152.331 62.7096L155.421 61.4396L159.831 60.3696L161.511 60.0996ZM152.571 72.1496L150.231 75.8596L149.521 78.0796L149.261 80.2996L149.541 82.8796L150.431 85.4696L150.621 85.6296L150.791 86.2796L151.601 87.8096L152.541 89.1596L153.601 90.3196L154.801 91.2996L156.111 92.0796L157.541 92.6796L159.101 93.0896L160.791 93.3296L195.191 93.3496L197.301 92.9196L199.021 92.2496L200.651 91.2996L201.071 90.8996L201.231 90.4896V90.4296L203.401 88.6296L204.881 86.4796L205.481 84.9096L205.791 83.1896L205.991 81.5696V79.9096L205.391 76.4096L204.671 74.7296L203.801 73.2296L202.771 71.9096L201.591 70.7796L199.621 69.4496L197.331 68.5096L194.721 67.9596L191.791 67.7796L166.311 67.5596L161.371 67.7596L159.211 68.1096L157.271 68.6296L157.121 68.6796L155.871 69.2296L154.701 69.9996L152.571 72.1496Z" fill="#16335D"/>
<path d="M159.831 60.3691L155.421 61.4391L152.331 62.7091L149.371 64.3991L151.511 62.6891L153.841 61.4491L156.711 60.6091L159.831 60.3691Z" fill="#9A9DA5" fill-opacity="0.996"/>
<path d="M55.3606 60.7793L49.6506 62.6893L45.5506 64.3193L41.8006 66.2893L38.4006 68.6193L35.3606 71.3093L32.9506 73.9793L30.8206 76.9393L28.9606 80.1693L27.3806 83.6793L26.2006 87.5593L24.8906 91.3893L26.0906 86.1393L27.8206 81.3493L30.0906 76.9993L32.9006 73.0893L36.1206 69.7393L39.8506 66.8093L44.0706 64.2993L48.8006 62.2093L51.7906 61.3393L55.3606 60.7793Z" fill="#9A9DA5" fill-opacity="0.996"/>
<path d="M291.941 65.5099L290.571 63.8699L288.951 62.7699L287.231 62.2599L285.291 62.1999L286.271 61.9599L287.281 61.9199L288.291 62.0899L289.251 62.4499L290.131 62.9999L290.891 63.7099L291.941 65.5099Z" fill="#9A9DA5" fill-opacity="0.996"/>
<path d="M261.892 72.6492L263.382 71.8492L264.532 70.9592L265.332 69.9792L265.792 68.9092L265.842 67.1192L265.102 65.1192L264.112 63.8192L262.842 62.9892L261.582 62.6792L260.212 62.7592L259.302 63.0392L258.082 63.8092L257.042 64.9892L256.312 66.4292L256.102 67.8492L256.322 68.9992L256.902 70.1292L257.832 71.2492L259.112 72.3492L258.062 71.7892L257.162 71.0092L256.452 70.0492L255.982 68.9592L255.762 67.2992L256.062 65.6492L256.872 64.1692L258.102 63.0292L259.932 62.2492L261.932 62.1992L263.792 62.8992L265.272 64.2292L266.112 65.8792L266.332 67.7192L265.912 69.5192L264.902 71.0592L263.522 72.0992L261.892 72.6492Z" fill="#9A9DA5" fill-opacity="0.996"/>
<path d="M285.291 62.1992L287.231 62.2592L288.951 62.7692L290.571 63.8692L291.941 65.5092L291.971 65.5892L291.921 68.0292L291.621 69.0592L291.131 69.9492L290.021 71.0592L288.881 71.6992L287.711 71.9992L286.441 71.9592L285.121 71.5392L283.671 70.5192L283.041 69.6892L282.591 68.6992L282.221 66.1992L282.361 65.3892L282.801 64.5192L284.561 62.5392L285.291 62.1992Z" fill="#16335D"/>
<path d="M261.892 72.6497L260.482 72.6897L259.112 72.3497L257.832 71.2497L256.902 70.1297L256.322 68.9997L256.102 67.8497L256.312 66.4297L257.042 64.9897L258.082 63.8097L259.302 63.0397L260.212 62.7597L261.582 62.6797L262.842 62.9897L264.112 63.8197L265.102 65.1197L265.842 67.1197L265.792 68.9097L265.332 69.9797L264.532 70.9597L263.382 71.8497L261.892 72.6497Z" fill="#16335D"/>
<path d="M284.561 62.5391L282.801 64.5191L282.361 65.3891L282.221 66.1991L282.591 68.6991L283.041 69.6891L283.671 70.5191L285.121 71.5391L286.441 71.9591L287.711 71.9991L288.881 71.6991L290.021 71.0591L291.131 69.9491L291.621 69.0591L291.921 68.0291L291.971 65.5891L292.261 67.6091L291.801 69.5691L290.651 71.1791L288.991 72.2291L288.651 72.3391L287.641 72.5291L286.611 72.5091L285.601 72.2691L284.651 71.8391L283.801 71.2191L283.081 70.4491L282.521 69.5491L282.141 68.5491L281.951 66.7891L282.331 65.0891L283.231 63.6091L284.561 62.5391Z" fill="#9A9DA5" fill-opacity="0.996"/>
<path d="M149.201 64.5L145.361 68.62L146.071 67.18L147.031 65.97L148.031 65.15L149.201 64.5Z" fill="#9A9DA5" fill-opacity="0.996"/>
<path d="M205.39 76.4086L204.16 74.3386L202.77 72.5786L201.2 71.1186L199.47 69.9686L197.54 69.1086L195.43 68.5586L190.86 68.1686L184.05 68.3686L178.6 68.5386L175.03 68.4386L166.07 68.2986L159.28 68.5986L157.84 68.8986L156.25 69.5986L154.49 70.6786L152.57 72.1486L154.7 69.9986L155.87 69.2286L157.12 68.6786L157.27 68.6286L159.21 68.1086L161.37 67.7586L166.31 67.5586L191.79 67.7786L194.72 67.9586L197.33 68.5086L199.62 69.4486L201.59 70.7786L202.77 71.9086L203.8 73.2286L204.67 74.7286L205.39 76.4086Z" fill="#9A9DA5" fill-opacity="0.996"/>
<path d="M112.491 67.9688L111.041 72.2988L111.161 70.7588L111.601 69.3588L112.491 67.9688Z" fill="#9A9DA5" fill-opacity="0.996"/>
<path d="M123.601 94.4586L123.921 94.0186L123.971 93.7086L123.901 84.3686L124.041 70.9486L123.931 69.6186L123.551 68.5086L124.221 68.0586L124.611 68.2586L124.971 68.7986L125.001 68.9286V94.5586L124.881 94.9186L124.571 95.1286L124.071 95.1986L123.741 95.0786L123.601 94.4586Z" fill="#9A9DA5" fill-opacity="0.996"/>
<path d="M378.311 68.88L369.811 69.44L361.521 69.72L353.431 69.71L345.551 69.42L344.741 69.34L343.411 69.02L342.121 68.5L378.311 68.88Z" fill="#9A9DA5" fill-opacity="0.996"/>
<path d="M96.6102 68.9195L91.2802 69.3995L85.9402 69.6495L77.1802 69.5495L68.4102 68.8094L81.8102 68.4395L95.1602 68.8295L96.6102 68.9195Z" fill="#9A9DA5" fill-opacity="0.996"/>
<path d="M60.1816 68.7383L55.9016 69.4683L51.9316 70.6383L48.2916 72.2483L44.9616 74.3083L42.3216 76.4583L39.9216 78.9583L37.7616 81.7883L35.8516 84.9583L36.2216 83.6383L38.4116 80.1983L40.8616 77.2083L43.5816 74.6683L46.5816 72.5783L49.6216 71.0283L52.9116 69.8683L56.4316 69.1083L60.1816 68.7383Z" fill="#9A9DA5" fill-opacity="0.996"/>
<path d="M122.901 68.9484L121.321 70.5884L120.241 72.1684L119.391 73.9284L119.611 72.1384L120.581 70.3384L122.301 68.7784L122.771 68.6484L122.901 68.9484Z" fill="#9A9DA5" fill-opacity="0.996"/>
<path d="M406.32 73.4786L402.72 71.6586L399 70.2286L396.07 69.4086L393.07 68.8086L396.64 69.1086L400.01 69.9786L403.27 71.4386L406.32 73.4786Z" fill="#9A9DA5" fill-opacity="0.996"/>
<path d="M157.97 101.218L154.22 99.9884L150.95 98.3684L148.15 96.3684L145.82 93.9884L143.99 91.2584L142.62 88.1584L141.7 84.6884L141.25 80.8384L141.26 78.9184L141.6 76.4384L142.33 73.9884L143.44 71.5584L144.93 69.1484L143.4 72.4284L142.36 75.6784L141.84 78.8884L141.81 82.0684L142.16 84.6384L142.85 87.1784L144.28 90.4984L146.18 93.4384L148.47 95.9084L151.19 98.0184L154.36 99.7984L157.97 101.218Z" fill="#9A9DA5" fill-opacity="0.996"/>
<path d="M235.801 91.8496L235.911 82.9796L235.621 74.3296L235.401 72.8996L234.301 70.4396L234.121 70.0996L235.161 71.3396L235.921 72.8996L236.421 74.7696L236.651 76.9596L236.791 83.6396L236.681 89.5796L236.611 90.1196L236.031 91.4396L235.801 91.8496Z" fill="#9A9DA5" fill-opacity="0.996"/>
<path d="M296.09 99.2888L298.2 95.3688L299.84 91.6188L301.01 88.0388L301.7 84.6288L303.68 71.2188L303.2 78.0587L302.01 85.7388L301.07 89.5888L299.77 93.1288L298.11 96.3688L296.09 99.2888Z" fill="#9A9DA5" fill-opacity="0.996"/>
<path d="M312.151 73.459L311.331 83.109L310.881 86.549L310.461 91.349L310.371 96.199L310.001 133.379L309.661 135.339L309.671 136.259L310.131 137.229L311.071 138.099H310.251L309.671 137.829L309.361 137.339L309.261 136.629L309.061 93.219L309.261 90.619L309.911 87.389L311.021 81.609L312.151 73.459Z" fill="#9A9DA5" fill-opacity="0.996"/>
<path d="M416.601 85.1884L413.241 80.3984L410.301 77.0184L407.031 73.8984L410.551 76.6884L413.551 79.9384L416.081 83.6884L416.301 84.1384L416.601 85.1884Z" fill="#9A9DA5" fill-opacity="0.996"/>
<path d="M168.751 78.5496L167.181 76.6896L165.321 75.5196L163.391 75.0696L161.221 75.1996L162.321 74.9196L163.461 74.8496L164.591 74.9896L165.661 75.3496L166.651 75.9096L167.521 76.6496L168.231 77.5396L168.751 78.5496Z" fill="#9A9DA5" fill-opacity="0.996"/>
<path d="M192.27 74.7988L193.58 75.5188L195.11 76.0688L195.51 76.2488L195.87 76.5988L197.26 78.9888L197.57 80.0388L197.62 80.9888L197.14 83.0388L196.14 84.5688L195.25 85.2488L194.15 85.7288L193.03 85.9788L191.93 86.0088L190.49 85.7188L189.07 85.0488L188.08 84.2788L187.36 83.3588L186.86 82.0588L186.73 80.5488L186.98 78.8088L187.61 76.8488L188.57 75.9688L189.7 75.3188L190.96 74.9188L192.27 74.7988Z" fill="#16335D"/>
<path d="M187.612 76.8488L186.982 78.8088L186.732 80.5488L186.862 82.0588L187.362 83.3588L188.082 84.2788L189.072 85.0488L190.492 85.7188L191.932 86.0088L193.032 85.9788L194.152 85.7288L195.252 85.2488L196.142 84.5688L197.142 83.0388L197.622 80.9888L197.572 80.0388L197.262 78.9888L195.872 76.5988L195.512 76.2488L195.112 76.0688L193.582 75.5188L192.272 74.7988L193.472 74.9288L194.622 75.2888L195.672 75.8688L196.582 76.6288L197.322 77.5588L197.852 78.5988L198.162 79.7288L198.232 80.8988L197.902 82.5588L197.352 83.6788L196.572 84.6688L195.592 85.4688L194.452 86.0488L193.222 86.3788L191.932 86.4588L190.662 86.2688L189.462 85.8188L188.492 85.2088L187.652 84.4288L186.982 83.5188L186.502 82.4988L186.182 80.5588L186.562 78.5888L187.612 76.8488Z" fill="#9A9DA5" fill-opacity="0.996"/>
<path d="M161.221 75.1984L163.391 75.0684L165.321 75.5184L167.181 76.6884L168.751 78.5484L169.091 79.7684L169.171 81.0284L168.981 82.2884L168.531 83.4684L166.501 85.3384L165.621 85.8584L164.841 86.0984L162.341 86.1084L161.251 85.8384L160.281 85.3784L159.271 84.5984L158.411 83.5583L158.151 83.1084L157.781 81.9584L157.721 80.6584L158.231 77.6084L159.521 76.1484L161.221 75.1984Z" fill="#16335D"/>
<path d="M150.232 75.8594L150.032 77.6494L149.972 81.5394L150.432 85.4694L149.542 82.8794L149.262 80.2994L149.522 78.0794L150.232 75.8594Z" fill="#9A9DA5" fill-opacity="0.996"/>
<path d="M109.33 80.3584L110.64 76.3984L110.85 78.9984L110.66 79.7984L110.26 80.2684L109.33 80.3584Z" fill="#9A9DA5" fill-opacity="0.996"/>
<path d="M168.531 83.4694L167.861 84.4994L166.991 85.3794L165.961 86.0494L164.811 86.4994L163.601 86.6994L162.371 86.6394L161.171 86.3294L160.071 85.7894L159.621 85.4694L158.821 84.7194L158.171 83.8494L157.691 82.8594L157.401 81.8094L157.311 80.7194L157.431 79.6294L157.731 78.5794L158.231 77.6094L157.721 80.6594L157.781 81.9594L158.151 83.1094L158.411 83.5594L159.271 84.5994L160.281 85.3794L161.251 85.8394L162.341 86.1094L164.841 86.0994L165.621 85.8594L166.501 85.3394L168.531 83.4694Z" fill="#9A9DA5" fill-opacity="0.996"/>
<path d="M407.17 146.909V147.659V201.909L407.08 202.659L407.06 202.669L407.27 215.989L407.14 229.299L406.52 245.429L406.28 221.989L406.37 194.199L406.44 161.319L406.18 117.949L406.45 97.4488L406.33 94.5388L405.84 91.8788L404.99 89.4688L403.78 87.3188L401.74 84.9688L399.12 83.0188L395.93 81.4588L392.16 80.2988L395.24 80.9988L397.96 82.0388L400.33 83.4188L402.33 85.1488L403.83 86.9988L405.04 89.1188L405.95 91.5288L406.58 94.2088L407.03 99.7788L407.17 109.449L407.16 128.179L407.17 146.909Z" fill="#9A9DA5" fill-opacity="0.996"/>
<path d="M58.3008 80.5684L55.3708 81.6384L52.8308 82.9884L50.6608 84.6384L48.8708 86.5784L47.1508 89.4384L46.4808 91.4184L46.0108 94.0284L45.7308 97.2784L45.6408 101.168L45.6608 193.048L45.3908 284.908L45.4708 287.148L45.7708 288.888L46.3108 290.228L47.1508 291.298L47.9008 291.838L48.8308 292.218L51.0408 292.508L140.271 292.608L141.041 292.868L141.491 293.528L141.501 293.578L141.881 296.048L141.631 298.688L140.831 294.118L140.651 293.748L140.281 293.558L137.771 293.218L135.281 293.228L130.301 293.598L55.5508 293.608L52.9708 293.418L49.5608 292.818L48.6308 292.638L47.0408 291.988L46.1308 291.138L45.5808 290.188L45.1808 288.928L44.8708 285.448L44.9208 146.698L44.9108 128.198L44.8008 112.568L45.0108 97.1884L45.3008 93.9384L45.9908 91.0284L47.0908 88.4384L48.5908 86.1884L50.4408 84.3083L52.6808 82.7484L55.3008 81.4984L58.3008 80.5684Z" fill="#9A9DA5" fill-opacity="0.996"/>
<path d="M201.23 90.4295L205.79 83.1895L205.48 84.9095L204.88 86.4795L203.4 88.6295L201.23 90.4295Z" fill="#9A9DA5" fill-opacity="0.996"/>
<path d="M35.8504 84.959L34.5104 89.809L34.1504 92.159L34.0104 94.449L33.8004 99.879L33.3404 104.479L33.1504 99.899L33.2104 94.229L33.4004 91.909L33.8304 89.729L34.4904 87.669L35.3904 85.739L35.8504 84.959Z" fill="#9A9DA5" fill-opacity="0.996"/>
<path d="M417.992 303.049L418.092 138.949L418.102 95.4495L417.722 90.5895L416.602 85.1895L417.482 87.3995L418.122 89.5495L418.512 91.6495L418.652 93.6795L418.862 121.949L419.072 227.439L419.042 267.449L419.092 293.449L419.112 298.099L418.802 302.789L418.702 303.029L418.252 303.289L417.992 303.049Z" fill="#9A9DA5" fill-opacity="0.996"/>
<path d="M160.791 93.3293L159.101 93.0893L157.541 92.6793L156.111 92.0793L154.801 91.2993L153.601 90.3193L152.541 89.1593L151.601 87.8093L150.791 86.2793L152.841 88.8493L155.251 90.8893L157.861 92.3393L160.791 93.3293Z" fill="#9A9DA5" fill-opacity="0.996"/>
<path d="M117.422 284.029H54.4817L53.9717 283.819L53.7617 283.309V96.9391L54.0617 94.4591L54.9417 92.3291L56.1817 90.7791L57.8717 89.4891L59.0217 89.0391L60.7417 88.7291L65.8917 88.5391L88.0917 88.7591L109.922 88.7391L110.382 88.8891L110.652 89.2891L111.562 91.9891L112.712 94.4591L114.112 96.6991L115.762 98.7091L117.482 100.359L119.412 101.809L121.542 103.069L123.882 104.139L124.362 104.539L124.532 105.139L124.482 110.149L124.782 113.879L125.492 117.139L126.662 120.079L128.162 122.549L130.032 124.779L131.962 126.599L133.992 128.169L136.132 129.469L138.372 130.529L141.272 131.469L144.332 132.029L149.662 132.289L159.942 132.419L160.142 132.479L160.242 132.679L161.282 139.879V139.889L161.092 140.099L146.942 140.169L133.412 140.009L129.432 140.019L126.102 140.229L123.422 140.639L121.402 141.249L119.132 142.419L117.162 143.909L115.372 145.859L113.922 148.189L112.802 150.889L112.022 153.959L111.722 154.469L111.172 154.659L107.952 154.829L105.012 155.389L102.332 156.349L99.9317 157.699L97.9217 159.319L96.1617 161.289L94.6217 163.609L93.3317 166.269L92.9917 167.479L92.7617 169.249L92.5817 174.489L92.8717 248.039L93.0317 252.709L93.4417 255.849L94.0017 257.789L94.7717 259.669L96.9817 263.469L100.092 267.319L104.412 271.589L117.382 283.589L117.552 283.829L117.562 283.859L117.422 284.029Z" fill="#52B9F9"/>
<path d="M267.79 89.8797L262.75 89.1197L263.65 88.7697L264.6 88.6797L265.61 88.8297L267.79 89.8797Z" fill="#9A9DA5" fill-opacity="0.996"/>
<path d="M260.861 93.4793L262.101 95.4293L263.451 97.0093L264.891 98.2193L266.431 99.0693L267.431 99.4493L270.241 100.139L273.211 100.349L276.351 100.079L279.651 99.3293L281.271 98.7393L282.681 97.9893L283.891 97.0793L284.891 96.0093L285.741 94.6693L286.331 92.9293L286.221 91.4193L285.841 90.6693L285.231 89.9893L284.221 89.3893L283.361 89.2493L282.461 89.3493L279.951 90.2993L279.781 90.3793L277.251 91.2493L274.711 91.5793L273.041 91.5093L271.371 91.2193L269.691 90.6893L268.011 89.9393L270.841 90.2793L273.631 90.3593L276.361 90.1993L279.051 89.7893L282.701 88.7993L283.681 88.7793L285.481 89.7093L286.161 90.4193L286.611 91.2393L286.871 92.4393L286.721 93.7093L286.171 94.9993L285.221 96.2293L283.091 98.2093L281.521 99.1793L279.191 99.9093L276.871 100.399L274.561 100.639H272.271L269.941 100.389L267.621 99.8793L265.401 99.0093L263.561 97.7193L261.991 95.8393L260.861 93.4793Z" fill="#9A9DA5" fill-opacity="0.996"/>
<path d="M397.452 284.009H358.592L358.112 283.809L357.912 283.339L357.922 179.179L357.832 174.499L357.552 170.489L357.102 167.129L356.462 164.439L355.262 161.029L353.802 157.829L352.082 154.839L350.092 152.039L348.172 149.789L346.052 147.689L343.972 145.929L341.792 144.379L339.532 143.029L337.182 141.879L334.672 140.909L332.072 140.149L329.362 139.609L326.572 139.279L326.062 139.029L325.852 138.499V89.1785L325.962 88.8485L326.312 88.7285L389.542 88.8185L391.322 88.9285L392.882 89.2785L394.232 89.8585L395.382 90.6685L396.342 91.7685L397.082 93.1185L397.522 94.6085L397.802 96.6085L397.922 102.289L397.902 103.699L398.012 283.449L397.852 283.849L397.452 284.009Z" fill="#52B9F9"/>
<path d="M262.751 89.1191L267.791 89.8791L267.781 89.7791L268.011 89.9391L269.691 90.6891L271.371 91.2191L273.041 91.5091L274.711 91.5791L277.251 91.2491L279.781 90.3791L279.951 90.2991L282.461 89.3491L283.361 89.2491L284.221 89.3891L285.231 89.9891L285.841 90.6691L286.221 91.4191L286.331 92.9291L285.741 94.6691L284.891 96.0091L283.891 97.0791L282.681 97.9891L281.271 98.7391L279.651 99.3291L276.351 100.079L273.211 100.349L270.241 100.139L267.431 99.4491L266.431 99.0691L264.891 98.2191L263.451 97.0091L262.101 95.4291L260.861 93.4791L261.021 91.9091L261.551 90.5391L262.751 89.1191Z" fill="#16335D"/>
<path d="M201.231 90.4297V90.4897L201.071 90.8997L200.651 91.2997L199.021 92.2497L197.301 92.9197L195.191 93.3497L201.231 90.4297Z" fill="#9A9DA5" fill-opacity="0.996"/>
<path d="M132.872 93.1387L133.012 101.199L132.912 107.199L132.942 109.859L133.282 112.369L133.922 114.709L134.862 116.899L136.422 119.359L135.042 117.869L133.962 116.209L132.962 113.599L132.572 110.669L132.512 102.789L132.872 93.1387Z" fill="#9A9DA5" fill-opacity="0.996"/>
<path d="M237.851 103.94L237.711 103.64L236.711 102.35L237.271 102.02H237.671L237.951 102.62L237.851 103.94Z" fill="#9A9DA5" fill-opacity="0.996"/>
<path d="M236.601 102.479L234.571 103.449L232.301 104.039L231.661 104.389L231.371 105.049L231.011 109.169L230.881 104.609L231.001 104.169L231.391 103.919L236.601 102.479Z" fill="#9A9DA5" fill-opacity="0.996"/>
<path d="M289.07 106.488L286.05 108.658L282.8 110.178L280.25 110.888L277.58 111.248L279.31 110.758L284.28 108.918L289.07 106.488Z" fill="#9A9DA5" fill-opacity="0.996"/>
<path d="M300.841 109.169L300.141 108.159L300.341 107.679L300.381 107.659L300.681 107.629L300.911 107.839L300.991 108.119L300.841 109.169Z" fill="#9A9DA5" fill-opacity="0.996"/>
<path d="M299.5 108.639L298.94 109.699L298.19 110.559L296.91 111.439L297.64 110.249L298.57 109.279L299.5 108.639Z" fill="#9A9DA5" fill-opacity="0.996"/>
<path d="M270.191 111.14L268.931 111.27L267.751 111.11L266.191 110.35L270.191 111.14Z" fill="#9A9DA5" fill-opacity="0.996"/>
<path d="M252.44 124.98L253.21 123.2L253.76 121.42L254.09 119.63L254.21 117.85L254.09 115.95L253.99 115.52L253.49 114.68L252.59 113.97L250.81 112.6L250 111.66L254.09 114.4L254.42 114.74L254.56 115.19V118.39L254.17 121.38L253.47 123.57L252.44 124.98Z" fill="#9A9DA5" fill-opacity="0.996"/>
<path d="M294.481 113.219L294.201 121.649L293.511 118.989L293.301 116.729L293.591 114.849L294.371 113.349L294.481 113.219Z" fill="#9A9DA5" fill-opacity="0.996"/>
<path d="M33.4816 114.66L34.1316 123.6L34.0616 132.5L33.4416 140.06L33.1016 127.41L33.4816 114.66Z" fill="#9A9DA5" fill-opacity="0.996"/>
<path d="M284.692 118.209L282.392 119.109L281.282 119.259L280.202 119.209L280.102 119.189L284.692 118.209Z" fill="#9A9DA5" fill-opacity="0.996"/>
<path d="M268.031 119.239L267.401 119.339L265.941 119.219L264.441 118.639L266.071 118.679L268.031 119.239Z" fill="#9A9DA5" fill-opacity="0.996"/>
<path d="M263.101 119.389V120.939L262.881 122.219L262.441 123.489L262.491 121.859L263.101 119.389Z" fill="#9A9DA5" fill-opacity="0.996"/>
<path d="M284.121 141.128L285.381 139.868L287.841 137.248L288.581 136.148L288.981 135.198L289.041 134.758L288.901 134.258L288.111 132.668L286.621 129.568L285.731 127.308L285.221 125.258L285.051 123.358L285.121 121.988L286.001 126.138L287.441 130.028L289.501 133.708L289.731 134.408L289.581 135.128L288.571 136.798L287.391 138.308L285.861 139.818L284.121 141.128Z" fill="#9A9DA5" fill-opacity="0.996"/>
<path d="M294.441 123.77L295.371 126.15L296.641 128.29L298.621 130.55L301.101 132.46L301.301 133.29L300.781 133.14L299.691 132.32L297.351 129.94L295.631 127.24L294.931 125.56L294.441 123.77Z" fill="#9A9DA5" fill-opacity="0.996"/>
<path d="M262.1 124.939L261.71 126.899L260.94 128.649L259.57 130.439L262.1 124.939Z" fill="#9A9DA5" fill-opacity="0.996"/>
<path d="M195.51 132.24L210.13 131.99L211.86 131.8L213.61 131.37L215.39 130.71L217.19 129.81L221.84 127.22L222.13 127.17L222.22 127.45L221.95 139.33L221.71 139.88L221.17 140.1H195.25L194.82 139.96L194.67 139.52V133.08L194.92 132.49L195.51 132.24Z" fill="#52B9F9"/>
<path d="M246.511 128.67L246.791 129.65L246.601 130.17L246.151 130.66L245.941 130.14L246.031 129.43L246.511 128.67Z" fill="#9A9DA5" fill-opacity="0.996"/>
<path d="M249.67 129.389L248.87 130.799L247.51 132.429L247.05 132.799L246.68 132.869L246.34 132.519L249.67 129.389Z" fill="#9A9DA5" fill-opacity="0.996"/>
<path d="M259.572 130.439L258.372 132.639L257.352 133.719L258.452 131.619L259.572 130.439Z" fill="#9A9DA5" fill-opacity="0.996"/>
<path d="M183.2 141.029L185.22 138.709L186.52 136.129L187.07 133.539V133.489L186.82 132.819L186.16 132.539L170.3 132.379L169.17 132.499L168.21 132.899L167.77 133.229L167.53 133.109L167.42 132.529L167.67 132.029L168.18 131.869H186.81L187.5 132.179L187.73 132.899L187.71 132.999L186.26 137.899L185.25 139.669L183.9 140.759L183.2 141.029Z" fill="#9A9DA5" fill-opacity="0.996"/>
<path d="M168.022 134.238L169.562 137.488L171.952 140.938L174.992 144.018L172.332 142.108L170.992 140.738L169.822 139.168L168.822 137.418L167.992 135.478L167.852 134.818L167.982 134.308L168.022 134.238Z" fill="#9A9DA5" fill-opacity="0.996"/>
<path d="M273.021 146.61L270.081 146.27L267.471 145.3L266.201 144.53L264.921 143.57L262.891 141.82L261.011 139.87L259.281 137.73L257.701 135.41L259.801 137.89L262.011 140.17L264.351 142.27L266.811 144.18L268.471 145.21L270.211 145.97L273.021 146.61Z" fill="#9A9DA5" fill-opacity="0.996"/>
<path d="M232.611 139.118L234.331 138.588L235.981 138.378L236.741 138.108L237.931 137.318L237.721 137.948L237.071 138.598L236.001 139.008L234.511 139.188L232.611 139.118Z" fill="#9A9DA5" fill-opacity="0.996"/>
<path d="M329.912 190.039L329.752 190.049L328.082 190.289L326.872 190.999L326.062 192.319L325.792 194.199L325.832 283.469L325.672 283.868L325.272 284.029H310.312H310.282L309.952 283.858L309.852 283.499L318.472 215.159L318.652 212.309L318.472 209.709L317.912 207.439L317.012 205.499L315.262 203.089L313.172 201.139L311.332 199.959L309.292 199.049L307.652 198.599L305.532 198.289L299.822 198.039L262.782 198.189L262.332 197.999L262.142 197.539L262.242 176.279L262.212 172.769L261.972 169.769L261.542 167.269L260.912 165.279L259.102 161.959L257.982 160.539L256.722 159.279L254.692 157.759L252.392 156.559L249.802 155.679L246.932 155.109L245.902 155.059L243.752 154.869L243.362 154.629L243.212 154.199L242.492 149.919L241.902 148.079L241.162 146.429L241.102 146.109L241.312 145.889L250.302 140.699L250.812 140.589L251.212 140.889L254.782 145.239L258.732 149.029L261.852 151.309L265.082 152.989L268.502 154.109L271.952 154.639H274.682L277.382 154.289L280.042 153.599L282.632 152.569L285.132 151.219L287.532 149.559L289.792 147.589L291.912 145.319L295.612 140.829L296.242 140.479L296.932 140.649L300.472 142.909L304.102 144.739L307.812 146.119L311.612 147.069L312.012 147.139L315.352 147.489L320.592 147.609L325.872 147.739L329.172 148.109L333.352 149.279L337.122 151.129L339.482 152.789L341.652 154.769L343.622 157.059L345.392 159.679L346.952 162.579L348.172 165.509L349.052 168.489L349.592 171.509L349.792 175.199L349.692 254.238L349.562 254.548L349.252 254.678H334.472L334.072 254.519L333.912 254.118L333.892 193.949L333.632 192.159L332.862 190.909L331.622 190.219L329.912 190.039Z" fill="#52B9F9"/>
<path d="M284.122 141.129L282.872 142.649L281.422 143.889L279.972 144.749L278.352 145.389L284.122 141.129Z" fill="#9A9DA5" fill-opacity="0.996"/>
<path d="M153.971 148.36L148.171 148.55L147.771 148.28L147.851 147.92L147.961 147.81L148.171 147.76L153.971 148.36Z" fill="#9A9DA5" fill-opacity="0.996"/>
<path d="M167.87 149.129L166.99 148.929L166.28 148.509L165.82 147.999L166.39 147.799L167.13 148.129L167.87 149.129Z" fill="#9A9DA5" fill-opacity="0.996"/>
<path d="M192.492 148.3L187.682 148.58L188.022 148.18L188.772 147.78L189.762 147.67L191.002 147.84L192.492 148.3Z" fill="#9A9DA5" fill-opacity="0.996"/>
<path d="M140.36 152.51L139.43 151.31L138.85 150.04L138.14 148.99L136.95 148.53L132.8 148.36L128.27 148.45L125.52 148.82L123.55 149.66L122.24 150.89L121.43 152.54L121.14 154.59L121.07 231.35L120.91 239.55L120.96 244.86L121.32 250.12L120.77 248.01L120.57 244.7L120.48 195.31L120.66 154.75L120.77 153.35L121.05 152.11L121.52 151.04L122.17 150.13L123.13 149.29L124.33 148.66L125.76 148.25L127.43 148.04L132.71 147.92L137.75 148.17L138.2 148.31L138.55 148.62L139.91 151.1L140.36 152.51Z" fill="#9A9DA5" fill-opacity="0.996"/>
<path d="M205.84 148.79L203.99 148.44L204.72 148.05L205.39 148.01L206.02 148.33L206.11 148.47L206.07 148.64L206.05 148.66L205.84 148.79Z" fill="#9A9DA5" fill-opacity="0.996"/>
<path d="M216.791 148.499L216.311 148.739L215.571 149.419L215.021 150.419L211.431 158.939L206.501 169.689L204.951 173.459L203.651 176.019L202.951 177.059L202.201 177.839L201.361 178.259L200.241 178.269L198.981 177.769L197.111 176.569L195.531 175.309L194.251 173.979L193.271 172.589L197.311 176.099L198.841 177.289L200.151 177.739L201.301 177.589L202.421 176.839L203.311 175.459L215.101 149.399L215.721 148.629L216.241 148.459L216.791 148.499Z" fill="#9A9DA5" fill-opacity="0.996"/>
<path d="M234.66 154.549L233.92 152.509L232.8 150.649L231.32 148.969L232.92 149.969L234.01 151.259L234.57 152.769L234.66 154.549Z" fill="#9A9DA5" fill-opacity="0.996"/>
<path d="M148.3 149.16L154.85 163.72L154.62 163.7L154.36 163.42L147.95 149.7L147.9 149.26L148.3 149.16Z" fill="#9A9DA5" fill-opacity="0.996"/>
<path d="M170.151 152.849L170.171 152.089L169.911 151.139L169.311 150.219L170.211 150.369L170.751 150.989L170.951 151.639L170.891 152.179L170.151 152.849Z" fill="#9A9DA5" fill-opacity="0.996"/>
<path d="M184.47 151.029L196.92 164.469L185.11 152.659L184.29 151.689L184.16 151.149L184.47 151.029Z" fill="#9A9DA5" fill-opacity="0.996"/>
<path d="M165.761 169.58L165.041 169.31L164.821 169.48L161.471 173.57L158.161 176.94L156.331 178.24L154.621 178.69L153.641 178.59L152.761 178.28L151.671 177.45L150.811 176.17L145.701 165.25L140.551 152.97L140.751 152.91L141.031 153.23L146.791 166.37L151.031 175.21L152.171 177L153.321 178.01L154.641 178.38L156.031 178L157.431 176.86L165.981 167.7L166.331 167.52L166.521 167.87L166.391 168.63L165.761 169.58Z" fill="#9A9DA5" fill-opacity="0.996"/>
<path d="M204.47 152.879L204.26 154.339L203.64 155.459L203.23 155.859L204.02 153.649L204.47 152.879Z" fill="#9A9DA5" fill-opacity="0.996"/>
<path d="M167.642 155.33L157.052 165.85L156.622 166.17L156.202 166.32H155.432L155.692 165.86L160.342 161.65L164.792 157.19L165.752 156.33L166.812 155.68L167.642 155.33Z" fill="#9A9DA5" fill-opacity="0.996"/>
<path d="M183.79 198.11H171.41L170.59 197.81L170.23 197.29L170.15 196.67L175.31 158.5L175.5 157.98L175.89 157.59L176.41 157.41L176.96 157.46L178.74 158.05L179.32 158.43L179.6 159.07L185.05 196.66L185.01 197.2L184.75 197.67L184.32 198L183.79 198.11Z" fill="#52B9F9"/>
<path d="M253.17 168.31L251.52 166.13L250.57 165.36L249.52 164.79L248.41 164.44L247.2 164.29L244.53 164.61L244.18 164.84L244.04 165.23V196.98L244.17 197.36L244.54 197.48L253.83 197.5L253.91 197.78L253.79 198L253.53 198.03L244.67 198.31L244.14 198.22L243.68 197.93L243.37 197.49L243.25 196.96V196.94V164.11L243.37 163.8L243.66 163.64L245.81 163.5L247.71 163.67L249.37 164.17L250.78 165L252.16 166.42L253.17 168.31Z" fill="#9A9DA5" fill-opacity="0.996"/>
<path d="M199.101 165.639L199.221 165.659V165.669L199.251 165.829L199.211 165.929L199.031 166.119L198.961 165.879L199.101 165.639Z" fill="#9A9DA5" fill-opacity="0.996"/>
<path d="M189.201 169.43L189.951 171.96L190.031 174.86L189.241 172.14L189.191 169.51L189.201 169.43Z" fill="#9A9DA5" fill-opacity="0.996"/>
<path d="M165.821 169.869L166.101 170.209L166.141 170.679L166.031 171.309L164.581 180.299L163.341 189.319L163.211 190.109L162.701 191.899L165.301 170.449L165.411 170.139L165.821 169.869Z" fill="#9A9DA5" fill-opacity="0.996"/>
<path d="M111.262 240.078L111.432 239.838L111.772 239.068L111.912 238.158L112.022 236.738L112.312 175.148L112.622 239.168L112.382 239.928L111.762 240.408L111.292 240.428L111.262 240.078Z" fill="#9A9DA5" fill-opacity="0.996"/>
<path d="M190.861 179.699L190.911 179.889L191.841 183.539L192.511 187.259L192.941 191.059L193.131 194.919L190.861 179.699Z" fill="#9A9DA5" fill-opacity="0.996"/>
<path d="M162.701 191.898L162.341 196.958L162.211 197.558L161.921 197.978L161.471 198.218L160.871 198.278L148.551 198.058L144.871 198.408L142.981 198.878L141.121 199.548L137.521 201.488L139.411 199.768L141.371 198.758L145.021 197.858L148.831 197.468L154.991 197.368L161.041 197.488H161.111L161.851 197.138L162.111 196.358L162.091 196.148L162.161 194.038L162.701 191.898Z" fill="#9A9DA5" fill-opacity="0.996"/>
<path d="M235.301 197.43L235.291 197.06L235.471 197L235.501 197.04L235.521 197.4L235.421 197.49L235.411 197.5L235.301 197.43Z" fill="#9A9DA5" fill-opacity="0.996"/>
<path d="M407.061 202.67L407.081 202.66L407.171 201.91L407.071 202.67H407.061Z" fill="#16335D"/>
<path d="M133.942 205.77L133.272 208.22L132.842 210.7L132.642 214.35L132.952 218.07L133.722 223.14L137.872 260.19L137.862 260.94L137.602 261.4L137.412 261.51L137.072 256.78L136.522 252.109L135.262 242.76L132.272 214.95L132.182 211.5L132.822 208.3L133.942 205.77Z" fill="#9A9DA5" fill-opacity="0.996"/>
<path d="M144.912 206.949L143.022 208.469L141.762 210.299L141.132 212.589L141.222 215.219L141.822 219.679L142.192 224.189L141.342 220.129L141.152 218.389L140.762 212.529L141.082 210.519L141.912 208.909L143.182 207.749L144.912 206.949Z" fill="#9A9DA5" fill-opacity="0.996"/>
<path d="M309.651 210.259L306.111 207.059L307.971 208.069L308.911 209.039L309.651 210.259Z" fill="#9A9DA5" fill-opacity="0.996"/>
<path d="M297.201 303.19L298.681 302.2L298.981 301.86L299.071 301.4L299.321 296.97L309.161 220.21L309.961 213.68L310.011 212.22L309.821 210.66L309.931 210.79L310.431 211.95L310.471 213.45L307.401 238.61L304.991 257.33L299.271 302.54L299.101 302.98L298.721 303.23L298.051 303.33L297.201 303.19Z" fill="#9A9DA5" fill-opacity="0.996"/>
<path d="M210.48 254.25L210.88 257.89L211.74 261.1L213.05 263.87L214.83 266.2L217.32 268.26L220.36 269.79L222.98 270.54L225.57 270.78L227.73 270.62L229.84 270.14L232.01 269.3L234.12 268.14L236.1 266.58L237.6 264.8L238.79 262.71L239.56 260.8L240.09 258.96L240.37 257.17L240.41 255.44L240.19 253.29L239.74 251.29L239.05 249.44L238.12 247.74L236.93 246.16L235.5 244.74L233.82 243.48L231.89 242.37L229.19 241.3L226.45 240.78L224.3 240.76L222.11 241.06L219.9 241.69L217.66 242.65L219.52 241.65L221.5 240.93L223.56 240.48L225.66 240.33L229.08 240.73L232.33 241.89L233.88 242.77L235.32 243.83L236.63 245.06L237.8 246.43L238.79 247.93L239.61 249.53L240.25 251.22L240.68 252.98L240.95 256.29L240.52 259.59L239.41 262.71L237.67 265.53L235.27 268.01L232.38 269.88L229.16 271.05L225.76 271.46L223.89 271.35L222.05 271.01L220.26 270.44L218.55 269.66L216.74 268.52L215.11 267.13L213.68 265.53L212.48 263.74L211.54 261.8L210.87 259.74L210.49 257.61L210.4 255.45L210.48 254.25Z" fill="#9A9DA5" fill-opacity="0.996"/>
<path d="M210.48 254.25L210.97 251.66L211.88 249.2L212.49 248.68L212.86 248.08L213 247.2L215.09 244.67L217.66 242.65L219.9 241.69L222.11 241.06L224.3 240.76L226.451 240.78L229.19 241.3L231.891 242.37L233.82 243.48L235.5 244.74L236.93 246.16L238.12 247.74L239.05 249.44L239.74 251.29L240.19 253.29L240.41 255.44L240.37 257.17L240.09 258.96L239.56 260.8L238.79 262.71L237.6 264.8L236.1 266.58L234.12 268.14L232.01 269.3L229.84 270.14L227.73 270.62L225.57 270.78L222.98 270.54L220.36 269.79L217.32 268.26L214.83 266.2L213.05 263.87L211.74 261.1L210.88 257.89L210.48 254.25ZM227.266 262.895L228.559 262.446L229.738 261.738L230.757 260.798L231.577 259.663L232.167 258.376L232.504 256.987L232.574 255.548L232.376 254.116L231.917 252.745L231.214 251.488L230.295 250.393L229.194 249.502L227.955 248.85L226.624 248.462L225.253 248.352L223.895 248.525L222.602 248.974L221.423 249.682L220.404 250.621L219.584 251.756L218.994 253.043L218.657 254.433L218.587 255.871L218.785 257.304L219.244 258.675L219.947 259.932L220.866 261.027L221.967 261.917L223.206 262.569L224.537 262.958L225.908 263.068L227.266 262.895Z" fill="#16335D"/>
<path d="M144.41 243.83L146.18 259.34L145.47 255.62L144.72 249.76L144.41 243.83Z" fill="#9A9DA5" fill-opacity="0.996"/>
<path d="M213.001 247.199L212.861 248.079L212.491 248.679L211.881 249.199L213.001 247.199Z" fill="#9A9DA5" fill-opacity="0.996"/>
<path d="M218.785 257.302C219.716 261.271 223.513 263.774 227.266 262.894C231.019 262.013 233.307 258.083 232.377 254.115C231.446 250.147 227.649 247.643 223.896 248.524C220.143 249.404 217.855 253.334 218.785 257.302Z" fill="#52B9F9"/>
<path d="M127.081 267.97L119.151 260.169L114.071 254.93L112.651 252.85L111.671 250.16L111.441 249.799L111.031 249.66L101.221 249.69L100.971 249.23L101.471 248.91L102.801 248.77L111.611 248.82L112.341 249.14L112.651 249.88L112.951 251.79L113.581 253.169L114.571 254.44L127.081 267.97Z" fill="#9A9DA5" fill-opacity="0.996"/>
<path d="M33.4316 251.898L33.8116 255.158L33.9516 260.778L33.4316 266.458V251.898Z" fill="#9A9DA5" fill-opacity="0.996"/>
<path d="M101.41 252.34L102.41 256.52L101.78 255.27L101.44 253.86L101.41 252.34Z" fill="#9A9DA5" fill-opacity="0.996"/>
<path d="M406.63 255.09L407 261.2L407.17 268.15L406.88 284.58L406.63 287.1L406.08 289.17L405.23 290.78L404.09 291.95L405.39 290.21L405.88 289L406.07 287.18L406.35 282.93L406.2 269.04L406.63 255.09Z" fill="#9A9DA5" fill-opacity="0.996"/>
<path d="M110.601 265.699L107.461 263.089L105.531 261.009L103.811 258.709L110.601 265.699Z" fill="#9A9DA5" fill-opacity="0.996"/>
<path d="M349.871 264.17L335.031 263.32L348.861 262.93L349.691 263.17L349.941 263.54L349.871 264.17Z" fill="#9A9DA5" fill-opacity="0.996"/>
<path d="M137.682 266.358L138.052 265.648L138.632 266.048L138.602 266.908L138.542 267.008L138.252 267.118L137.992 266.948L137.682 266.358Z" fill="#9A9DA5" fill-opacity="0.996"/>
<path d="M334.391 283.77L348.171 283.32L348.741 283.06L348.951 282.48V282.47L348.821 279.48L348.991 272.96L349.771 266.43L349.971 283.06V283.07L349.671 283.79L348.941 284.08L334.391 283.77Z" fill="#9A9DA5" fill-opacity="0.996"/>
<path d="M121.471 276.229L129.171 282.779L129.581 283.039L130.041 283.178L133.371 283.529L136.671 283.518L139.951 283.159L139.971 283.349L139.621 283.868L139.531 283.928L138.931 284.068L129.771 283.798L129.271 283.688L128.901 283.428L121.471 276.229Z" fill="#9A9DA5" fill-opacity="0.996"/>
<path d="M140.001 281.899L138.621 280.259L138.041 279.109L138.871 279.679L139.481 280.399L140.001 281.899Z" fill="#9A9DA5" fill-opacity="0.996"/>
<path d="M400.781 292.639L398.581 293.339L395.801 293.579L327.231 293.629H315.801L313.231 293.449L310.791 292.899L400.781 292.639Z" fill="#9A9DA5" fill-opacity="0.996"/>
<path d="M309.83 292.899L309.16 294.259L308.71 295.759L308.62 295.529L308.49 294.549L308.71 293.449L309.22 292.799L309.83 292.899Z" fill="#9A9DA5" fill-opacity="0.996"/>
<path d="M307.99 300.469L308.08 302.919L307.82 302.979L307.66 302.689V301.479L307.99 300.469Z" fill="#9A9DA5" fill-opacity="0.996"/>
<path d="M33.4112 301.398L34.2912 303.238L33.7512 303.218L33.4012 303.018L33.2012 302.408L33.4112 301.398Z" fill="#9A9DA5" fill-opacity="0.996"/>
<path d="M24.9205 302.548L24.8405 303.288L24.3005 303.498L17.3505 303.518L8.73047 303.078L13.2905 302.558L19.0905 302.318L24.9205 302.548Z" fill="#9A9DA5" fill-opacity="0.996"/>
<path d="M1.34998 303.85L0.879974 306.9L0.829987 309.93L1.15997 312.85L1.88998 315.75L3 318.64L4.5 321.5L7.20999 326.26L4.84 322.94L2.94 319.52L1.5 316.01L0.549988 312.41L0.169983 309.95L0 307.45L0.0799866 306.33L0.389984 305.3L1.34998 303.85Z" fill="#9A9DA5" fill-opacity="0.996"/>
<path d="M260.022 303.52L256.562 308.73L255.522 309.76L253.752 310.64L251.552 310.94L216.952 311.01L198.042 310.859L197.882 310.85L197.042 310.66L196.232 310.23L194.652 308.609L190.852 303.669L191.422 303.58L191.872 303.7L192.212 304.04L195.232 308.7L195.952 309.419L197.052 309.97L198.402 310.18L224.412 310.49L252.302 310.22L252.752 310.19L254.512 309.7L255.312 309.14L256.032 308.18L257.912 305.54L260.022 303.52Z" fill="#9A9DA5" fill-opacity="0.996"/>
<path d="M451.06 308.41L451 309.76L450.35 314.11L449.01 318.44L447.02 322.55L444.46 326.33L441.3 329.81L437.68 332.83L433.67 335.34L429.34 337.26L426.75 338.03L423.74 338.63L420.33 339.03L416.51 339.26L407.06 339.46L397.59 339.42L406.27 339.4L414.93 339.13L419.08 338.84L422.79 338.35L426.07 337.67L428.9 336.81L432.42 335.32L435.66 333.53L438.6 331.46L441.24 329.09L443.06 327.09L444.71 324.93L446.19 322.6L447.5 320.1L448.65 317.43L449.62 314.59L450.42 311.58L451.06 308.41Z" fill="#9A9DA5" fill-opacity="0.996"/>
<path d="M186.121 312.849L184.051 312.498L138.891 312.548L52.641 312.529L12.301 312.508L10.611 312.678L9.92102 312.839L9.82101 312.648L9.79102 312.508L9.86102 312.178L10.171 312.018L14.611 311.729L94.801 311.858L181.471 311.768L185.841 311.948L186.171 312.138L186.121 312.849Z" fill="#9A9DA5" fill-opacity="0.996"/>
<path d="M10.6699 314.94L12.4899 318.44L14.5999 321.49L17.0199 324.09L19.7499 326.24L22.9399 328.02L26.4799 329.29L30.3499 330.06L34.5499 330.33L105.42 330.45L189.22 330.32L197.3 330.43L207.55 330.55L401.55 330.3L413.22 330.29L420.15 330.01L422.77 329.66L424.83 329.19L425.7 328.91L428.39 327.82L430.97 326.41L433.45 324.71L435.83 322.69L437.44 320.96L438.61 319.35L439.6 317.59L440.42 315.69L441.06 313.64L441.08 313.54L440.87 312.83L440.2 312.52L420.43 312.42L400.68 312.6L282.55 312.57L266.54 312.63L265.74 312.77L264.9 313.16L263.13 314.72L264.05 313.23L265.24 312.26L266.22 311.9L267.32 311.79L309.05 311.81L415.33 311.94L428.27 311.79L441.2 311.6L441.59 311.67L442.19 312.2V312.81L441.24 315.65L439.47 318.89L437.32 321.73L434.96 324.19L432.4 326.28L429.65 327.98L426.74 329.28L423.63 330.21L420.33 330.78L416.83 330.97L335.86 331.14L260.82 331.07L119.3 331.3L39.7499 331.09L35.0999 330.96L31.1899 330.65L27.9999 330.16L25.5399 329.49L22.6199 328.22L20.1399 326.77L17.8199 325.03L15.6299 323.01L13.5999 320.7L11.6699 317.77L11.0499 316.34L10.6699 314.94Z" fill="#9A9DA5" fill-opacity="0.996"/>
<path d="M261.601 316.229L259.851 317.928L257.871 318.979L255.651 319.368L253.201 319.089L255.321 318.898L257.351 318.418L259.541 317.518L261.601 316.229Z" fill="#9A9DA5" fill-opacity="0.996"/>
<path d="M199.241 319.398L193.401 319.078L192.061 318.578L190.641 317.479L195.041 318.858L199.241 319.398Z" fill="#9A9DA5" fill-opacity="0.996"/>
<path d="M10.3501 329.479L9.73007 329.099L9.08008 328.459L8.58008 327.629L9.52008 328.139L10.0101 328.719L10.3501 329.479Z" fill="#9A9DA5" fill-opacity="0.996"/>
<path d="M56.2612 339.42L35.4112 339.49H32.8012L29.0212 339.25L25.3512 338.55L22.2412 337.55L19.2212 336.2L16.2912 334.48L13.4512 332.41L20.7112 336.32L23.1212 337.35L26.0212 338.13L29.4112 338.64L33.3012 338.89L56.2612 339.42Z" fill="#9A9DA5" fill-opacity="0.996"/>
</svg>
